M48
; DRILL file {KiCad 9.0.2} date 2025-06-12T01:43:31-0700
; FORMAT={-:-/ absolute / metric / decimal}
; #@! TF.CreationDate,2025-06-12T01:43:31-07:00
; #@! TF.GenerationSoftware,Kicad,Pcbnew,9.0.2
; #@! TF.FileFunction,Plated,1,2,PTH
FMAT,2
METRIC
; #@! TA.AperFunction,Plated,PTH,ComponentDrill
T1C0.900
; #@! TA.AperFunction,Plated,PTH,ComponentDrill
T2C2.000
; #@! TA.AperFunction,Plated,PTH,ComponentDrill
T3C3.750
%
G90
G05
T1
X50.8Y-44.07
X53.34Y-44.07
X77.893Y-44.07
X80.433Y-44.07
X104.987Y-44.07
X107.527Y-44.07
X132.08Y-44.07
X134.62Y-44.07
X159.173Y-44.07
X161.713Y-44.07
X186.267Y-44.07
X188.807Y-44.07
X213.36Y-44.07
X215.9Y-44.07
X240.453Y-44.07
X242.993Y-44.07
X267.547Y-44.07
X270.087Y-44.07
X294.64Y-44.07
X297.18Y-44.07
X321.733Y-44.07
X324.273Y-44.07
X348.827Y-44.07
X351.367Y-44.07
X375.92Y-44.07
X378.46Y-44.07
X403.013Y-44.07
X405.553Y-44.07
X430.107Y-44.07
X432.647Y-44.07
X457.2Y-44.07
X459.74Y-44.07
T2
X45.72Y-49.15
X55.88Y-38.99
X72.813Y-49.15
X82.973Y-38.99
X99.907Y-49.15
X110.067Y-38.99
X127.0Y-49.15
X137.16Y-38.99
X154.093Y-49.15
X164.253Y-38.99
X181.187Y-49.15
X191.347Y-38.99
X208.28Y-49.15
X218.44Y-38.99
X235.373Y-49.15
X245.533Y-38.99
X262.467Y-49.15
X272.627Y-38.99
X289.56Y-49.15
X299.72Y-38.99
X316.653Y-49.15
X326.813Y-38.99
X343.747Y-49.15
X353.907Y-38.99
X370.84Y-49.15
X381.0Y-38.99
X397.933Y-49.15
X408.093Y-38.99
X425.027Y-49.15
X435.187Y-38.99
X452.12Y-49.15
X462.28Y-38.99
T3
X34.0Y-44.5
X34.0Y-52.55
M30
