%TF.GenerationSoftware,KiCad,Pcbnew,9.0.2*%
%TF.CreationDate,2025-06-12T01:43:54-07:00*%
%TF.ProjectId,BNC-breakout,424e432d-6272-4656-916b-6f75742e6b69,rev?*%
%TF.SameCoordinates,Original*%
%TF.FileFunction,Legend,Top*%
%TF.FilePolarity,Positive*%
%FSLAX46Y46*%
G04 Gerber Fmt 4.6, Leading zero omitted, Abs format (unit mm)*
G04 Created by KiCad (PCBNEW 9.0.2) date 2025-06-12 01:43:54*
%MOMM*%
%LPD*%
G01*
G04 APERTURE LIST*
%ADD10C,0.150000*%
%ADD11C,0.120000*%
G04 APERTURE END LIST*
D10*
X32738095Y-47804819D02*
X33309523Y-47804819D01*
X33023809Y-48804819D02*
X33023809Y-47804819D01*
X33642857Y-48804819D02*
X33642857Y-47804819D01*
X33642857Y-47804819D02*
X34023809Y-47804819D01*
X34023809Y-47804819D02*
X34119047Y-47852438D01*
X34119047Y-47852438D02*
X34166666Y-47900057D01*
X34166666Y-47900057D02*
X34214285Y-47995295D01*
X34214285Y-47995295D02*
X34214285Y-48138152D01*
X34214285Y-48138152D02*
X34166666Y-48233390D01*
X34166666Y-48233390D02*
X34119047Y-48281009D01*
X34119047Y-48281009D02*
X34023809Y-48328628D01*
X34023809Y-48328628D02*
X33642857Y-48328628D01*
X34595238Y-47900057D02*
X34642857Y-47852438D01*
X34642857Y-47852438D02*
X34738095Y-47804819D01*
X34738095Y-47804819D02*
X34976190Y-47804819D01*
X34976190Y-47804819D02*
X35071428Y-47852438D01*
X35071428Y-47852438D02*
X35119047Y-47900057D01*
X35119047Y-47900057D02*
X35166666Y-47995295D01*
X35166666Y-47995295D02*
X35166666Y-48090533D01*
X35166666Y-48090533D02*
X35119047Y-48233390D01*
X35119047Y-48233390D02*
X34547619Y-48804819D01*
X34547619Y-48804819D02*
X35166666Y-48804819D01*
X32738095Y-39754819D02*
X33309523Y-39754819D01*
X33023809Y-40754819D02*
X33023809Y-39754819D01*
X33642857Y-40754819D02*
X33642857Y-39754819D01*
X33642857Y-39754819D02*
X34023809Y-39754819D01*
X34023809Y-39754819D02*
X34119047Y-39802438D01*
X34119047Y-39802438D02*
X34166666Y-39850057D01*
X34166666Y-39850057D02*
X34214285Y-39945295D01*
X34214285Y-39945295D02*
X34214285Y-40088152D01*
X34214285Y-40088152D02*
X34166666Y-40183390D01*
X34166666Y-40183390D02*
X34119047Y-40231009D01*
X34119047Y-40231009D02*
X34023809Y-40278628D01*
X34023809Y-40278628D02*
X33642857Y-40278628D01*
X35166666Y-40754819D02*
X34595238Y-40754819D01*
X34880952Y-40754819D02*
X34880952Y-39754819D01*
X34880952Y-39754819D02*
X34785714Y-39897676D01*
X34785714Y-39897676D02*
X34690476Y-39992914D01*
X34690476Y-39992914D02*
X34595238Y-40040533D01*
X456390476Y-52774819D02*
X456390476Y-53489104D01*
X456390476Y-53489104D02*
X456342857Y-53631961D01*
X456342857Y-53631961D02*
X456247619Y-53727200D01*
X456247619Y-53727200D02*
X456104762Y-53774819D01*
X456104762Y-53774819D02*
X456009524Y-53774819D01*
X457390476Y-53774819D02*
X456819048Y-53774819D01*
X457104762Y-53774819D02*
X457104762Y-52774819D01*
X457104762Y-52774819D02*
X457009524Y-52917676D01*
X457009524Y-52917676D02*
X456914286Y-53012914D01*
X456914286Y-53012914D02*
X456819048Y-53060533D01*
X458247619Y-52774819D02*
X458057143Y-52774819D01*
X458057143Y-52774819D02*
X457961905Y-52822438D01*
X457961905Y-52822438D02*
X457914286Y-52870057D01*
X457914286Y-52870057D02*
X457819048Y-53012914D01*
X457819048Y-53012914D02*
X457771429Y-53203390D01*
X457771429Y-53203390D02*
X457771429Y-53584342D01*
X457771429Y-53584342D02*
X457819048Y-53679580D01*
X457819048Y-53679580D02*
X457866667Y-53727200D01*
X457866667Y-53727200D02*
X457961905Y-53774819D01*
X457961905Y-53774819D02*
X458152381Y-53774819D01*
X458152381Y-53774819D02*
X458247619Y-53727200D01*
X458247619Y-53727200D02*
X458295238Y-53679580D01*
X458295238Y-53679580D02*
X458342857Y-53584342D01*
X458342857Y-53584342D02*
X458342857Y-53346247D01*
X458342857Y-53346247D02*
X458295238Y-53251009D01*
X458295238Y-53251009D02*
X458247619Y-53203390D01*
X458247619Y-53203390D02*
X458152381Y-53155771D01*
X458152381Y-53155771D02*
X457961905Y-53155771D01*
X457961905Y-53155771D02*
X457866667Y-53203390D01*
X457866667Y-53203390D02*
X457819048Y-53251009D01*
X457819048Y-53251009D02*
X457771429Y-53346247D01*
X429297143Y-52774819D02*
X429297143Y-53489104D01*
X429297143Y-53489104D02*
X429249524Y-53631961D01*
X429249524Y-53631961D02*
X429154286Y-53727200D01*
X429154286Y-53727200D02*
X429011429Y-53774819D01*
X429011429Y-53774819D02*
X428916191Y-53774819D01*
X430297143Y-53774819D02*
X429725715Y-53774819D01*
X430011429Y-53774819D02*
X430011429Y-52774819D01*
X430011429Y-52774819D02*
X429916191Y-52917676D01*
X429916191Y-52917676D02*
X429820953Y-53012914D01*
X429820953Y-53012914D02*
X429725715Y-53060533D01*
X431201905Y-52774819D02*
X430725715Y-52774819D01*
X430725715Y-52774819D02*
X430678096Y-53251009D01*
X430678096Y-53251009D02*
X430725715Y-53203390D01*
X430725715Y-53203390D02*
X430820953Y-53155771D01*
X430820953Y-53155771D02*
X431059048Y-53155771D01*
X431059048Y-53155771D02*
X431154286Y-53203390D01*
X431154286Y-53203390D02*
X431201905Y-53251009D01*
X431201905Y-53251009D02*
X431249524Y-53346247D01*
X431249524Y-53346247D02*
X431249524Y-53584342D01*
X431249524Y-53584342D02*
X431201905Y-53679580D01*
X431201905Y-53679580D02*
X431154286Y-53727200D01*
X431154286Y-53727200D02*
X431059048Y-53774819D01*
X431059048Y-53774819D02*
X430820953Y-53774819D01*
X430820953Y-53774819D02*
X430725715Y-53727200D01*
X430725715Y-53727200D02*
X430678096Y-53679580D01*
X402203809Y-52774819D02*
X402203809Y-53489104D01*
X402203809Y-53489104D02*
X402156190Y-53631961D01*
X402156190Y-53631961D02*
X402060952Y-53727200D01*
X402060952Y-53727200D02*
X401918095Y-53774819D01*
X401918095Y-53774819D02*
X401822857Y-53774819D01*
X403203809Y-53774819D02*
X402632381Y-53774819D01*
X402918095Y-53774819D02*
X402918095Y-52774819D01*
X402918095Y-52774819D02*
X402822857Y-52917676D01*
X402822857Y-52917676D02*
X402727619Y-53012914D01*
X402727619Y-53012914D02*
X402632381Y-53060533D01*
X404060952Y-53108152D02*
X404060952Y-53774819D01*
X403822857Y-52727200D02*
X403584762Y-53441485D01*
X403584762Y-53441485D02*
X404203809Y-53441485D01*
X375110476Y-52774819D02*
X375110476Y-53489104D01*
X375110476Y-53489104D02*
X375062857Y-53631961D01*
X375062857Y-53631961D02*
X374967619Y-53727200D01*
X374967619Y-53727200D02*
X374824762Y-53774819D01*
X374824762Y-53774819D02*
X374729524Y-53774819D01*
X376110476Y-53774819D02*
X375539048Y-53774819D01*
X375824762Y-53774819D02*
X375824762Y-52774819D01*
X375824762Y-52774819D02*
X375729524Y-52917676D01*
X375729524Y-52917676D02*
X375634286Y-53012914D01*
X375634286Y-53012914D02*
X375539048Y-53060533D01*
X376443810Y-52774819D02*
X377062857Y-52774819D01*
X377062857Y-52774819D02*
X376729524Y-53155771D01*
X376729524Y-53155771D02*
X376872381Y-53155771D01*
X376872381Y-53155771D02*
X376967619Y-53203390D01*
X376967619Y-53203390D02*
X377015238Y-53251009D01*
X377015238Y-53251009D02*
X377062857Y-53346247D01*
X377062857Y-53346247D02*
X377062857Y-53584342D01*
X377062857Y-53584342D02*
X377015238Y-53679580D01*
X377015238Y-53679580D02*
X376967619Y-53727200D01*
X376967619Y-53727200D02*
X376872381Y-53774819D01*
X376872381Y-53774819D02*
X376586667Y-53774819D01*
X376586667Y-53774819D02*
X376491429Y-53727200D01*
X376491429Y-53727200D02*
X376443810Y-53679580D01*
X348017143Y-52774819D02*
X348017143Y-53489104D01*
X348017143Y-53489104D02*
X347969524Y-53631961D01*
X347969524Y-53631961D02*
X347874286Y-53727200D01*
X347874286Y-53727200D02*
X347731429Y-53774819D01*
X347731429Y-53774819D02*
X347636191Y-53774819D01*
X349017143Y-53774819D02*
X348445715Y-53774819D01*
X348731429Y-53774819D02*
X348731429Y-52774819D01*
X348731429Y-52774819D02*
X348636191Y-52917676D01*
X348636191Y-52917676D02*
X348540953Y-53012914D01*
X348540953Y-53012914D02*
X348445715Y-53060533D01*
X349398096Y-52870057D02*
X349445715Y-52822438D01*
X349445715Y-52822438D02*
X349540953Y-52774819D01*
X349540953Y-52774819D02*
X349779048Y-52774819D01*
X349779048Y-52774819D02*
X349874286Y-52822438D01*
X349874286Y-52822438D02*
X349921905Y-52870057D01*
X349921905Y-52870057D02*
X349969524Y-52965295D01*
X349969524Y-52965295D02*
X349969524Y-53060533D01*
X349969524Y-53060533D02*
X349921905Y-53203390D01*
X349921905Y-53203390D02*
X349350477Y-53774819D01*
X349350477Y-53774819D02*
X349969524Y-53774819D01*
X320923809Y-52774819D02*
X320923809Y-53489104D01*
X320923809Y-53489104D02*
X320876190Y-53631961D01*
X320876190Y-53631961D02*
X320780952Y-53727200D01*
X320780952Y-53727200D02*
X320638095Y-53774819D01*
X320638095Y-53774819D02*
X320542857Y-53774819D01*
X321923809Y-53774819D02*
X321352381Y-53774819D01*
X321638095Y-53774819D02*
X321638095Y-52774819D01*
X321638095Y-52774819D02*
X321542857Y-52917676D01*
X321542857Y-52917676D02*
X321447619Y-53012914D01*
X321447619Y-53012914D02*
X321352381Y-53060533D01*
X322876190Y-53774819D02*
X322304762Y-53774819D01*
X322590476Y-53774819D02*
X322590476Y-52774819D01*
X322590476Y-52774819D02*
X322495238Y-52917676D01*
X322495238Y-52917676D02*
X322400000Y-53012914D01*
X322400000Y-53012914D02*
X322304762Y-53060533D01*
X293830476Y-52774819D02*
X293830476Y-53489104D01*
X293830476Y-53489104D02*
X293782857Y-53631961D01*
X293782857Y-53631961D02*
X293687619Y-53727200D01*
X293687619Y-53727200D02*
X293544762Y-53774819D01*
X293544762Y-53774819D02*
X293449524Y-53774819D01*
X294830476Y-53774819D02*
X294259048Y-53774819D01*
X294544762Y-53774819D02*
X294544762Y-52774819D01*
X294544762Y-52774819D02*
X294449524Y-52917676D01*
X294449524Y-52917676D02*
X294354286Y-53012914D01*
X294354286Y-53012914D02*
X294259048Y-53060533D01*
X295449524Y-52774819D02*
X295544762Y-52774819D01*
X295544762Y-52774819D02*
X295640000Y-52822438D01*
X295640000Y-52822438D02*
X295687619Y-52870057D01*
X295687619Y-52870057D02*
X295735238Y-52965295D01*
X295735238Y-52965295D02*
X295782857Y-53155771D01*
X295782857Y-53155771D02*
X295782857Y-53393866D01*
X295782857Y-53393866D02*
X295735238Y-53584342D01*
X295735238Y-53584342D02*
X295687619Y-53679580D01*
X295687619Y-53679580D02*
X295640000Y-53727200D01*
X295640000Y-53727200D02*
X295544762Y-53774819D01*
X295544762Y-53774819D02*
X295449524Y-53774819D01*
X295449524Y-53774819D02*
X295354286Y-53727200D01*
X295354286Y-53727200D02*
X295306667Y-53679580D01*
X295306667Y-53679580D02*
X295259048Y-53584342D01*
X295259048Y-53584342D02*
X295211429Y-53393866D01*
X295211429Y-53393866D02*
X295211429Y-53155771D01*
X295211429Y-53155771D02*
X295259048Y-52965295D01*
X295259048Y-52965295D02*
X295306667Y-52870057D01*
X295306667Y-52870057D02*
X295354286Y-52822438D01*
X295354286Y-52822438D02*
X295449524Y-52774819D01*
X267213333Y-52774819D02*
X267213333Y-53489104D01*
X267213333Y-53489104D02*
X267165714Y-53631961D01*
X267165714Y-53631961D02*
X267070476Y-53727200D01*
X267070476Y-53727200D02*
X266927619Y-53774819D01*
X266927619Y-53774819D02*
X266832381Y-53774819D01*
X267737143Y-53774819D02*
X267927619Y-53774819D01*
X267927619Y-53774819D02*
X268022857Y-53727200D01*
X268022857Y-53727200D02*
X268070476Y-53679580D01*
X268070476Y-53679580D02*
X268165714Y-53536723D01*
X268165714Y-53536723D02*
X268213333Y-53346247D01*
X268213333Y-53346247D02*
X268213333Y-52965295D01*
X268213333Y-52965295D02*
X268165714Y-52870057D01*
X268165714Y-52870057D02*
X268118095Y-52822438D01*
X268118095Y-52822438D02*
X268022857Y-52774819D01*
X268022857Y-52774819D02*
X267832381Y-52774819D01*
X267832381Y-52774819D02*
X267737143Y-52822438D01*
X267737143Y-52822438D02*
X267689524Y-52870057D01*
X267689524Y-52870057D02*
X267641905Y-52965295D01*
X267641905Y-52965295D02*
X267641905Y-53203390D01*
X267641905Y-53203390D02*
X267689524Y-53298628D01*
X267689524Y-53298628D02*
X267737143Y-53346247D01*
X267737143Y-53346247D02*
X267832381Y-53393866D01*
X267832381Y-53393866D02*
X268022857Y-53393866D01*
X268022857Y-53393866D02*
X268118095Y-53346247D01*
X268118095Y-53346247D02*
X268165714Y-53298628D01*
X268165714Y-53298628D02*
X268213333Y-53203390D01*
X240119999Y-52774819D02*
X240119999Y-53489104D01*
X240119999Y-53489104D02*
X240072380Y-53631961D01*
X240072380Y-53631961D02*
X239977142Y-53727200D01*
X239977142Y-53727200D02*
X239834285Y-53774819D01*
X239834285Y-53774819D02*
X239739047Y-53774819D01*
X240739047Y-53203390D02*
X240643809Y-53155771D01*
X240643809Y-53155771D02*
X240596190Y-53108152D01*
X240596190Y-53108152D02*
X240548571Y-53012914D01*
X240548571Y-53012914D02*
X240548571Y-52965295D01*
X240548571Y-52965295D02*
X240596190Y-52870057D01*
X240596190Y-52870057D02*
X240643809Y-52822438D01*
X240643809Y-52822438D02*
X240739047Y-52774819D01*
X240739047Y-52774819D02*
X240929523Y-52774819D01*
X240929523Y-52774819D02*
X241024761Y-52822438D01*
X241024761Y-52822438D02*
X241072380Y-52870057D01*
X241072380Y-52870057D02*
X241119999Y-52965295D01*
X241119999Y-52965295D02*
X241119999Y-53012914D01*
X241119999Y-53012914D02*
X241072380Y-53108152D01*
X241072380Y-53108152D02*
X241024761Y-53155771D01*
X241024761Y-53155771D02*
X240929523Y-53203390D01*
X240929523Y-53203390D02*
X240739047Y-53203390D01*
X240739047Y-53203390D02*
X240643809Y-53251009D01*
X240643809Y-53251009D02*
X240596190Y-53298628D01*
X240596190Y-53298628D02*
X240548571Y-53393866D01*
X240548571Y-53393866D02*
X240548571Y-53584342D01*
X240548571Y-53584342D02*
X240596190Y-53679580D01*
X240596190Y-53679580D02*
X240643809Y-53727200D01*
X240643809Y-53727200D02*
X240739047Y-53774819D01*
X240739047Y-53774819D02*
X240929523Y-53774819D01*
X240929523Y-53774819D02*
X241024761Y-53727200D01*
X241024761Y-53727200D02*
X241072380Y-53679580D01*
X241072380Y-53679580D02*
X241119999Y-53584342D01*
X241119999Y-53584342D02*
X241119999Y-53393866D01*
X241119999Y-53393866D02*
X241072380Y-53298628D01*
X241072380Y-53298628D02*
X241024761Y-53251009D01*
X241024761Y-53251009D02*
X240929523Y-53203390D01*
X213026666Y-52774819D02*
X213026666Y-53489104D01*
X213026666Y-53489104D02*
X212979047Y-53631961D01*
X212979047Y-53631961D02*
X212883809Y-53727200D01*
X212883809Y-53727200D02*
X212740952Y-53774819D01*
X212740952Y-53774819D02*
X212645714Y-53774819D01*
X213407619Y-52774819D02*
X214074285Y-52774819D01*
X214074285Y-52774819D02*
X213645714Y-53774819D01*
X185933333Y-52774819D02*
X185933333Y-53489104D01*
X185933333Y-53489104D02*
X185885714Y-53631961D01*
X185885714Y-53631961D02*
X185790476Y-53727200D01*
X185790476Y-53727200D02*
X185647619Y-53774819D01*
X185647619Y-53774819D02*
X185552381Y-53774819D01*
X186838095Y-52774819D02*
X186647619Y-52774819D01*
X186647619Y-52774819D02*
X186552381Y-52822438D01*
X186552381Y-52822438D02*
X186504762Y-52870057D01*
X186504762Y-52870057D02*
X186409524Y-53012914D01*
X186409524Y-53012914D02*
X186361905Y-53203390D01*
X186361905Y-53203390D02*
X186361905Y-53584342D01*
X186361905Y-53584342D02*
X186409524Y-53679580D01*
X186409524Y-53679580D02*
X186457143Y-53727200D01*
X186457143Y-53727200D02*
X186552381Y-53774819D01*
X186552381Y-53774819D02*
X186742857Y-53774819D01*
X186742857Y-53774819D02*
X186838095Y-53727200D01*
X186838095Y-53727200D02*
X186885714Y-53679580D01*
X186885714Y-53679580D02*
X186933333Y-53584342D01*
X186933333Y-53584342D02*
X186933333Y-53346247D01*
X186933333Y-53346247D02*
X186885714Y-53251009D01*
X186885714Y-53251009D02*
X186838095Y-53203390D01*
X186838095Y-53203390D02*
X186742857Y-53155771D01*
X186742857Y-53155771D02*
X186552381Y-53155771D01*
X186552381Y-53155771D02*
X186457143Y-53203390D01*
X186457143Y-53203390D02*
X186409524Y-53251009D01*
X186409524Y-53251009D02*
X186361905Y-53346247D01*
X158839999Y-52774819D02*
X158839999Y-53489104D01*
X158839999Y-53489104D02*
X158792380Y-53631961D01*
X158792380Y-53631961D02*
X158697142Y-53727200D01*
X158697142Y-53727200D02*
X158554285Y-53774819D01*
X158554285Y-53774819D02*
X158459047Y-53774819D01*
X159792380Y-52774819D02*
X159316190Y-52774819D01*
X159316190Y-52774819D02*
X159268571Y-53251009D01*
X159268571Y-53251009D02*
X159316190Y-53203390D01*
X159316190Y-53203390D02*
X159411428Y-53155771D01*
X159411428Y-53155771D02*
X159649523Y-53155771D01*
X159649523Y-53155771D02*
X159744761Y-53203390D01*
X159744761Y-53203390D02*
X159792380Y-53251009D01*
X159792380Y-53251009D02*
X159839999Y-53346247D01*
X159839999Y-53346247D02*
X159839999Y-53584342D01*
X159839999Y-53584342D02*
X159792380Y-53679580D01*
X159792380Y-53679580D02*
X159744761Y-53727200D01*
X159744761Y-53727200D02*
X159649523Y-53774819D01*
X159649523Y-53774819D02*
X159411428Y-53774819D01*
X159411428Y-53774819D02*
X159316190Y-53727200D01*
X159316190Y-53727200D02*
X159268571Y-53679580D01*
X131746666Y-52774819D02*
X131746666Y-53489104D01*
X131746666Y-53489104D02*
X131699047Y-53631961D01*
X131699047Y-53631961D02*
X131603809Y-53727200D01*
X131603809Y-53727200D02*
X131460952Y-53774819D01*
X131460952Y-53774819D02*
X131365714Y-53774819D01*
X132651428Y-53108152D02*
X132651428Y-53774819D01*
X132413333Y-52727200D02*
X132175238Y-53441485D01*
X132175238Y-53441485D02*
X132794285Y-53441485D01*
X104653333Y-52774819D02*
X104653333Y-53489104D01*
X104653333Y-53489104D02*
X104605714Y-53631961D01*
X104605714Y-53631961D02*
X104510476Y-53727200D01*
X104510476Y-53727200D02*
X104367619Y-53774819D01*
X104367619Y-53774819D02*
X104272381Y-53774819D01*
X105034286Y-52774819D02*
X105653333Y-52774819D01*
X105653333Y-52774819D02*
X105320000Y-53155771D01*
X105320000Y-53155771D02*
X105462857Y-53155771D01*
X105462857Y-53155771D02*
X105558095Y-53203390D01*
X105558095Y-53203390D02*
X105605714Y-53251009D01*
X105605714Y-53251009D02*
X105653333Y-53346247D01*
X105653333Y-53346247D02*
X105653333Y-53584342D01*
X105653333Y-53584342D02*
X105605714Y-53679580D01*
X105605714Y-53679580D02*
X105558095Y-53727200D01*
X105558095Y-53727200D02*
X105462857Y-53774819D01*
X105462857Y-53774819D02*
X105177143Y-53774819D01*
X105177143Y-53774819D02*
X105081905Y-53727200D01*
X105081905Y-53727200D02*
X105034286Y-53679580D01*
X77559999Y-52774819D02*
X77559999Y-53489104D01*
X77559999Y-53489104D02*
X77512380Y-53631961D01*
X77512380Y-53631961D02*
X77417142Y-53727200D01*
X77417142Y-53727200D02*
X77274285Y-53774819D01*
X77274285Y-53774819D02*
X77179047Y-53774819D01*
X77988571Y-52870057D02*
X78036190Y-52822438D01*
X78036190Y-52822438D02*
X78131428Y-52774819D01*
X78131428Y-52774819D02*
X78369523Y-52774819D01*
X78369523Y-52774819D02*
X78464761Y-52822438D01*
X78464761Y-52822438D02*
X78512380Y-52870057D01*
X78512380Y-52870057D02*
X78559999Y-52965295D01*
X78559999Y-52965295D02*
X78559999Y-53060533D01*
X78559999Y-53060533D02*
X78512380Y-53203390D01*
X78512380Y-53203390D02*
X77940952Y-53774819D01*
X77940952Y-53774819D02*
X78559999Y-53774819D01*
X50466666Y-52774819D02*
X50466666Y-53489104D01*
X50466666Y-53489104D02*
X50419047Y-53631961D01*
X50419047Y-53631961D02*
X50323809Y-53727200D01*
X50323809Y-53727200D02*
X50180952Y-53774819D01*
X50180952Y-53774819D02*
X50085714Y-53774819D01*
X51466666Y-53774819D02*
X50895238Y-53774819D01*
X51180952Y-53774819D02*
X51180952Y-52774819D01*
X51180952Y-52774819D02*
X51085714Y-52917676D01*
X51085714Y-52917676D02*
X50990476Y-53012914D01*
X50990476Y-53012914D02*
X50895238Y-53060533D01*
D11*
%TO.C,J16*%
X449700000Y-36400000D02*
X464700000Y-36400000D01*
X449700000Y-52500000D02*
X449700000Y-36400000D01*
X452850000Y-51740000D02*
X452850000Y-52500000D01*
X452850000Y-52500000D02*
X449700000Y-52500000D01*
X461550000Y-51740000D02*
X452850000Y-51740000D01*
X461550000Y-52500000D02*
X461550000Y-51740000D01*
X464700000Y-36400000D02*
X464700000Y-52500000D01*
X464700000Y-52500000D02*
X461550000Y-52500000D01*
%TO.C,J15*%
X422606667Y-36400000D02*
X437606667Y-36400000D01*
X422606667Y-52500000D02*
X422606667Y-36400000D01*
X425756667Y-51740000D02*
X425756667Y-52500000D01*
X425756667Y-52500000D02*
X422606667Y-52500000D01*
X434456667Y-51740000D02*
X425756667Y-51740000D01*
X434456667Y-52500000D02*
X434456667Y-51740000D01*
X437606667Y-36400000D02*
X437606667Y-52500000D01*
X437606667Y-52500000D02*
X434456667Y-52500000D01*
%TO.C,J14*%
X395513333Y-36400000D02*
X410513333Y-36400000D01*
X395513333Y-52500000D02*
X395513333Y-36400000D01*
X398663333Y-51740000D02*
X398663333Y-52500000D01*
X398663333Y-52500000D02*
X395513333Y-52500000D01*
X407363333Y-51740000D02*
X398663333Y-51740000D01*
X407363333Y-52500000D02*
X407363333Y-51740000D01*
X410513333Y-36400000D02*
X410513333Y-52500000D01*
X410513333Y-52500000D02*
X407363333Y-52500000D01*
%TO.C,J13*%
X368420000Y-36400000D02*
X383420000Y-36400000D01*
X368420000Y-52500000D02*
X368420000Y-36400000D01*
X371570000Y-51740000D02*
X371570000Y-52500000D01*
X371570000Y-52500000D02*
X368420000Y-52500000D01*
X380270000Y-51740000D02*
X371570000Y-51740000D01*
X380270000Y-52500000D02*
X380270000Y-51740000D01*
X383420000Y-36400000D02*
X383420000Y-52500000D01*
X383420000Y-52500000D02*
X380270000Y-52500000D01*
%TO.C,J12*%
X341326667Y-36400000D02*
X356326667Y-36400000D01*
X341326667Y-52500000D02*
X341326667Y-36400000D01*
X344476667Y-51740000D02*
X344476667Y-52500000D01*
X344476667Y-52500000D02*
X341326667Y-52500000D01*
X353176667Y-51740000D02*
X344476667Y-51740000D01*
X353176667Y-52500000D02*
X353176667Y-51740000D01*
X356326667Y-36400000D02*
X356326667Y-52500000D01*
X356326667Y-52500000D02*
X353176667Y-52500000D01*
%TO.C,J11*%
X314233333Y-36400000D02*
X329233333Y-36400000D01*
X314233333Y-52500000D02*
X314233333Y-36400000D01*
X317383333Y-51740000D02*
X317383333Y-52500000D01*
X317383333Y-52500000D02*
X314233333Y-52500000D01*
X326083333Y-51740000D02*
X317383333Y-51740000D01*
X326083333Y-52500000D02*
X326083333Y-51740000D01*
X329233333Y-36400000D02*
X329233333Y-52500000D01*
X329233333Y-52500000D02*
X326083333Y-52500000D01*
%TO.C,J10*%
X287140000Y-36400000D02*
X302140000Y-36400000D01*
X287140000Y-52500000D02*
X287140000Y-36400000D01*
X290290000Y-51740000D02*
X290290000Y-52500000D01*
X290290000Y-52500000D02*
X287140000Y-52500000D01*
X298990000Y-51740000D02*
X290290000Y-51740000D01*
X298990000Y-52500000D02*
X298990000Y-51740000D01*
X302140000Y-36400000D02*
X302140000Y-52500000D01*
X302140000Y-52500000D02*
X298990000Y-52500000D01*
%TO.C,J9*%
X260046667Y-36400000D02*
X275046667Y-36400000D01*
X260046667Y-52500000D02*
X260046667Y-36400000D01*
X263196667Y-51740000D02*
X263196667Y-52500000D01*
X263196667Y-52500000D02*
X260046667Y-52500000D01*
X271896667Y-51740000D02*
X263196667Y-51740000D01*
X271896667Y-52500000D02*
X271896667Y-51740000D01*
X275046667Y-36400000D02*
X275046667Y-52500000D01*
X275046667Y-52500000D02*
X271896667Y-52500000D01*
%TO.C,J8*%
X232953333Y-36400000D02*
X247953333Y-36400000D01*
X232953333Y-52500000D02*
X232953333Y-36400000D01*
X236103333Y-51740000D02*
X236103333Y-52500000D01*
X236103333Y-52500000D02*
X232953333Y-52500000D01*
X244803333Y-51740000D02*
X236103333Y-51740000D01*
X244803333Y-52500000D02*
X244803333Y-51740000D01*
X247953333Y-36400000D02*
X247953333Y-52500000D01*
X247953333Y-52500000D02*
X244803333Y-52500000D01*
%TO.C,J7*%
X205860000Y-36400000D02*
X220860000Y-36400000D01*
X205860000Y-52500000D02*
X205860000Y-36400000D01*
X209010000Y-51740000D02*
X209010000Y-52500000D01*
X209010000Y-52500000D02*
X205860000Y-52500000D01*
X217710000Y-51740000D02*
X209010000Y-51740000D01*
X217710000Y-52500000D02*
X217710000Y-51740000D01*
X220860000Y-36400000D02*
X220860000Y-52500000D01*
X220860000Y-52500000D02*
X217710000Y-52500000D01*
%TO.C,J6*%
X178766667Y-36400000D02*
X193766667Y-36400000D01*
X178766667Y-52500000D02*
X178766667Y-36400000D01*
X181916667Y-51740000D02*
X181916667Y-52500000D01*
X181916667Y-52500000D02*
X178766667Y-52500000D01*
X190616667Y-51740000D02*
X181916667Y-51740000D01*
X190616667Y-52500000D02*
X190616667Y-51740000D01*
X193766667Y-36400000D02*
X193766667Y-52500000D01*
X193766667Y-52500000D02*
X190616667Y-52500000D01*
%TO.C,J5*%
X166673333Y-52500000D02*
X163523333Y-52500000D01*
X166673333Y-36400000D02*
X166673333Y-52500000D01*
X163523333Y-52500000D02*
X163523333Y-51740000D01*
X163523333Y-51740000D02*
X154823333Y-51740000D01*
X154823333Y-52500000D02*
X151673333Y-52500000D01*
X154823333Y-51740000D02*
X154823333Y-52500000D01*
X151673333Y-52500000D02*
X151673333Y-36400000D01*
X151673333Y-36400000D02*
X166673333Y-36400000D01*
%TO.C,J4*%
X124580000Y-36400000D02*
X139580000Y-36400000D01*
X124580000Y-52500000D02*
X124580000Y-36400000D01*
X127730000Y-51740000D02*
X127730000Y-52500000D01*
X127730000Y-52500000D02*
X124580000Y-52500000D01*
X136430000Y-51740000D02*
X127730000Y-51740000D01*
X136430000Y-52500000D02*
X136430000Y-51740000D01*
X139580000Y-36400000D02*
X139580000Y-52500000D01*
X139580000Y-52500000D02*
X136430000Y-52500000D01*
%TO.C,J3*%
X97486667Y-36400000D02*
X112486667Y-36400000D01*
X97486667Y-52500000D02*
X97486667Y-36400000D01*
X100636667Y-51740000D02*
X100636667Y-52500000D01*
X100636667Y-52500000D02*
X97486667Y-52500000D01*
X109336667Y-51740000D02*
X100636667Y-51740000D01*
X109336667Y-52500000D02*
X109336667Y-51740000D01*
X112486667Y-36400000D02*
X112486667Y-52500000D01*
X112486667Y-52500000D02*
X109336667Y-52500000D01*
%TO.C,J2*%
X70393333Y-36400000D02*
X85393333Y-36400000D01*
X70393333Y-52500000D02*
X70393333Y-36400000D01*
X73543333Y-51740000D02*
X73543333Y-52500000D01*
X73543333Y-52500000D02*
X70393333Y-52500000D01*
X82243333Y-51740000D02*
X73543333Y-51740000D01*
X82243333Y-52500000D02*
X82243333Y-51740000D01*
X85393333Y-36400000D02*
X85393333Y-52500000D01*
X85393333Y-52500000D02*
X82243333Y-52500000D01*
%TO.C,J1*%
X43300000Y-36400000D02*
X58300000Y-36400000D01*
X43300000Y-52500000D02*
X43300000Y-36400000D01*
X46450000Y-51740000D02*
X46450000Y-52500000D01*
X46450000Y-52500000D02*
X43300000Y-52500000D01*
X55150000Y-51740000D02*
X46450000Y-51740000D01*
X55150000Y-52500000D02*
X55150000Y-51740000D01*
X58300000Y-36400000D02*
X58300000Y-52500000D01*
X58300000Y-52500000D02*
X55150000Y-52500000D01*
%TD*%
M02*
