%TF.GenerationSoftware,KiCad,Pcbnew,9.0.2*%
%TF.CreationDate,2025-06-12T01:43:54-07:00*%
%TF.ProjectId,BNC-breakout,424e432d-6272-4656-916b-6f75742e6b69,rev?*%
%TF.SameCoordinates,Original*%
%TF.FileFunction,Copper,L1,Top*%
%TF.FilePolarity,Positive*%
%FSLAX46Y46*%
G04 Gerber Fmt 4.6, Leading zero omitted, Abs format (unit mm)*
G04 Created by KiCad (PCBNEW 9.0.2) date 2025-06-12 01:43:54*
%MOMM*%
%LPD*%
G01*
G04 APERTURE LIST*
G04 Aperture macros list*
%AMRoundRect*
0 Rectangle with rounded corners*
0 $1 Rounding radius*
0 $2 $3 $4 $5 $6 $7 $8 $9 X,Y pos of 4 corners*
0 Add a 4 corners polygon primitive as box body*
4,1,4,$2,$3,$4,$5,$6,$7,$8,$9,$2,$3,0*
0 Add four circle primitives for the rounded corners*
1,1,$1+$1,$2,$3*
1,1,$1+$1,$4,$5*
1,1,$1+$1,$6,$7*
1,1,$1+$1,$8,$9*
0 Add four rect primitives between the rounded corners*
20,1,$1+$1,$2,$3,$4,$5,0*
20,1,$1+$1,$4,$5,$6,$7,0*
20,1,$1+$1,$6,$7,$8,$9,0*
20,1,$1+$1,$8,$9,$2,$3,0*%
G04 Aperture macros list end*
%TA.AperFunction,ComponentPad*%
%ADD10RoundRect,0.250002X-2.749998X-2.749998X2.749998X-2.749998X2.749998X2.749998X-2.749998X2.749998X0*%
%TD*%
%TA.AperFunction,ComponentPad*%
%ADD11C,4.000000*%
%TD*%
%TA.AperFunction,ComponentPad*%
%ADD12RoundRect,0.400000X0.400000X0.400000X-0.400000X0.400000X-0.400000X-0.400000X0.400000X-0.400000X0*%
%TD*%
%TA.AperFunction,ComponentPad*%
%ADD13C,1.600000*%
%TD*%
G04 APERTURE END LIST*
D10*
%TO.P,TP2,1,1*%
%TO.N,GND*%
X34000000Y-52550000D03*
%TD*%
%TO.P,TP1,1,1*%
%TO.N,+VSW*%
X34000000Y-44500000D03*
%TD*%
D11*
%TO.P,J16,*%
%TO.N,*%
X452120000Y-49150000D03*
X462280000Y-38990000D03*
D12*
%TO.P,J16,1,In*%
%TO.N,+VSW*%
X457200000Y-44070000D03*
D13*
%TO.P,J16,2,Ext*%
%TO.N,GND*%
X459740000Y-44070000D03*
%TD*%
D11*
%TO.P,J15,*%
%TO.N,*%
X425026667Y-49150000D03*
X435186667Y-38990000D03*
D12*
%TO.P,J15,1,In*%
%TO.N,+VSW*%
X430106667Y-44070000D03*
D13*
%TO.P,J15,2,Ext*%
%TO.N,GND*%
X432646667Y-44070000D03*
%TD*%
D11*
%TO.P,J14,*%
%TO.N,*%
X397933333Y-49150000D03*
X408093333Y-38990000D03*
D12*
%TO.P,J14,1,In*%
%TO.N,+VSW*%
X403013333Y-44070000D03*
D13*
%TO.P,J14,2,Ext*%
%TO.N,GND*%
X405553333Y-44070000D03*
%TD*%
D11*
%TO.P,J13,*%
%TO.N,*%
X370840000Y-49150000D03*
X381000000Y-38990000D03*
D12*
%TO.P,J13,1,In*%
%TO.N,+VSW*%
X375920000Y-44070000D03*
D13*
%TO.P,J13,2,Ext*%
%TO.N,GND*%
X378460000Y-44070000D03*
%TD*%
D11*
%TO.P,J12,*%
%TO.N,*%
X343746667Y-49150000D03*
X353906667Y-38990000D03*
D12*
%TO.P,J12,1,In*%
%TO.N,+VSW*%
X348826667Y-44070000D03*
D13*
%TO.P,J12,2,Ext*%
%TO.N,GND*%
X351366667Y-44070000D03*
%TD*%
D11*
%TO.P,J11,*%
%TO.N,*%
X316653333Y-49150000D03*
X326813333Y-38990000D03*
D12*
%TO.P,J11,1,In*%
%TO.N,+VSW*%
X321733333Y-44070000D03*
D13*
%TO.P,J11,2,Ext*%
%TO.N,GND*%
X324273333Y-44070000D03*
%TD*%
D11*
%TO.P,J10,*%
%TO.N,*%
X289560000Y-49150000D03*
X299720000Y-38990000D03*
D12*
%TO.P,J10,1,In*%
%TO.N,+VSW*%
X294640000Y-44070000D03*
D13*
%TO.P,J10,2,Ext*%
%TO.N,GND*%
X297180000Y-44070000D03*
%TD*%
D11*
%TO.P,J9,*%
%TO.N,*%
X262466667Y-49150000D03*
X272626667Y-38990000D03*
D12*
%TO.P,J9,1,In*%
%TO.N,+VSW*%
X267546667Y-44070000D03*
D13*
%TO.P,J9,2,Ext*%
%TO.N,GND*%
X270086667Y-44070000D03*
%TD*%
D11*
%TO.P,J8,*%
%TO.N,*%
X235373333Y-49150000D03*
X245533333Y-38990000D03*
D12*
%TO.P,J8,1,In*%
%TO.N,+VSW*%
X240453333Y-44070000D03*
D13*
%TO.P,J8,2,Ext*%
%TO.N,GND*%
X242993333Y-44070000D03*
%TD*%
D11*
%TO.P,J7,*%
%TO.N,*%
X208280000Y-49150000D03*
X218440000Y-38990000D03*
D12*
%TO.P,J7,1,In*%
%TO.N,+VSW*%
X213360000Y-44070000D03*
D13*
%TO.P,J7,2,Ext*%
%TO.N,GND*%
X215900000Y-44070000D03*
%TD*%
D11*
%TO.P,J6,*%
%TO.N,*%
X181186667Y-49150000D03*
X191346667Y-38990000D03*
D12*
%TO.P,J6,1,In*%
%TO.N,+VSW*%
X186266667Y-44070000D03*
D13*
%TO.P,J6,2,Ext*%
%TO.N,GND*%
X188806667Y-44070000D03*
%TD*%
%TO.P,J5,2,Ext*%
%TO.N,GND*%
X161713333Y-44070000D03*
D12*
%TO.P,J5,1,In*%
%TO.N,+VSW*%
X159173333Y-44070000D03*
D11*
%TO.P,J5,*%
%TO.N,*%
X164253333Y-38990000D03*
X154093333Y-49150000D03*
%TD*%
%TO.P,J4,*%
%TO.N,*%
X127000000Y-49150000D03*
X137160000Y-38990000D03*
D12*
%TO.P,J4,1,In*%
%TO.N,+VSW*%
X132080000Y-44070000D03*
D13*
%TO.P,J4,2,Ext*%
%TO.N,GND*%
X134620000Y-44070000D03*
%TD*%
D11*
%TO.P,J3,*%
%TO.N,*%
X99906667Y-49150000D03*
X110066667Y-38990000D03*
D12*
%TO.P,J3,1,In*%
%TO.N,+VSW*%
X104986667Y-44070000D03*
D13*
%TO.P,J3,2,Ext*%
%TO.N,GND*%
X107526667Y-44070000D03*
%TD*%
D11*
%TO.P,J2,*%
%TO.N,*%
X72813333Y-49150000D03*
X82973333Y-38990000D03*
D12*
%TO.P,J2,1,In*%
%TO.N,+VSW*%
X77893333Y-44070000D03*
D13*
%TO.P,J2,2,Ext*%
%TO.N,GND*%
X80433333Y-44070000D03*
%TD*%
D11*
%TO.P,J1,*%
%TO.N,*%
X45720000Y-49150000D03*
X55880000Y-38990000D03*
D12*
%TO.P,J1,1,In*%
%TO.N,+VSW*%
X50800000Y-44070000D03*
D13*
%TO.P,J1,2,Ext*%
%TO.N,GND*%
X53340000Y-44070000D03*
%TD*%
%TA.AperFunction,Conductor*%
%TO.N,+VSW*%
G36*
X467944849Y-27519685D02*
G01*
X467990604Y-27572489D01*
X468001796Y-27622175D01*
X468419860Y-56050499D01*
X468498150Y-61374177D01*
X468479453Y-61441498D01*
X468427327Y-61488025D01*
X468374163Y-61500000D01*
X16622190Y-61500000D01*
X16555151Y-61480315D01*
X16509396Y-61427511D01*
X16498203Y-61377823D01*
X16498149Y-61374177D01*
X16327206Y-49749985D01*
X30499500Y-49749985D01*
X30499500Y-55349999D01*
X30499501Y-55350016D01*
X30510000Y-55452795D01*
X30510001Y-55452798D01*
X30565185Y-55619330D01*
X30565186Y-55619333D01*
X30657289Y-55768655D01*
X30781345Y-55892711D01*
X30930667Y-55984814D01*
X31097204Y-56039999D01*
X31199993Y-56050500D01*
X36800006Y-56050499D01*
X36902796Y-56039999D01*
X37069333Y-55984814D01*
X37218655Y-55892711D01*
X37342711Y-55768655D01*
X37434814Y-55619333D01*
X37489999Y-55452796D01*
X37500500Y-55350007D01*
X37500499Y-49749994D01*
X37489999Y-49647204D01*
X37434814Y-49480667D01*
X37342711Y-49331345D01*
X37218655Y-49207289D01*
X37069333Y-49115186D01*
X36902796Y-49060001D01*
X36902794Y-49060000D01*
X36800008Y-49049500D01*
X31200000Y-49049500D01*
X31199983Y-49049501D01*
X31097204Y-49060000D01*
X31097201Y-49060001D01*
X30930669Y-49115185D01*
X30930664Y-49115187D01*
X30781343Y-49207290D01*
X30657290Y-49331343D01*
X30565187Y-49480664D01*
X30565186Y-49480667D01*
X30510001Y-49647204D01*
X30510001Y-49647205D01*
X30510000Y-49647205D01*
X30499500Y-49749985D01*
X16327206Y-49749985D01*
X16316318Y-49009568D01*
X43219500Y-49009568D01*
X43219500Y-49290431D01*
X43250942Y-49569494D01*
X43250945Y-49569512D01*
X43313439Y-49843317D01*
X43313443Y-49843329D01*
X43406200Y-50108411D01*
X43528053Y-50361442D01*
X43528055Y-50361445D01*
X43677477Y-50599248D01*
X43852584Y-50818825D01*
X44051175Y-51017416D01*
X44270752Y-51192523D01*
X44508555Y-51341945D01*
X44761592Y-51463801D01*
X44960680Y-51533465D01*
X45026670Y-51556556D01*
X45026682Y-51556560D01*
X45300491Y-51619055D01*
X45300497Y-51619055D01*
X45300505Y-51619057D01*
X45486547Y-51640018D01*
X45579569Y-51650499D01*
X45579572Y-51650500D01*
X45579575Y-51650500D01*
X45860428Y-51650500D01*
X45860429Y-51650499D01*
X46003055Y-51634429D01*
X46139494Y-51619057D01*
X46139499Y-51619056D01*
X46139509Y-51619055D01*
X46413318Y-51556560D01*
X46678408Y-51463801D01*
X46931445Y-51341945D01*
X47169248Y-51192523D01*
X47388825Y-51017416D01*
X47587416Y-50818825D01*
X47762523Y-50599248D01*
X47911945Y-50361445D01*
X48033801Y-50108408D01*
X48126560Y-49843318D01*
X48189055Y-49569509D01*
X48220500Y-49290425D01*
X48220500Y-49009575D01*
X48220499Y-49009568D01*
X70312833Y-49009568D01*
X70312833Y-49290431D01*
X70344275Y-49569494D01*
X70344278Y-49569512D01*
X70406772Y-49843317D01*
X70406776Y-49843329D01*
X70499533Y-50108411D01*
X70621386Y-50361442D01*
X70621388Y-50361445D01*
X70770810Y-50599248D01*
X70945917Y-50818825D01*
X71144508Y-51017416D01*
X71364085Y-51192523D01*
X71601888Y-51341945D01*
X71854925Y-51463801D01*
X72054013Y-51533465D01*
X72120003Y-51556556D01*
X72120015Y-51556560D01*
X72393824Y-51619055D01*
X72393830Y-51619055D01*
X72393838Y-51619057D01*
X72579880Y-51640018D01*
X72672902Y-51650499D01*
X72672905Y-51650500D01*
X72672908Y-51650500D01*
X72953761Y-51650500D01*
X72953762Y-51650499D01*
X73096388Y-51634429D01*
X73232827Y-51619057D01*
X73232832Y-51619056D01*
X73232842Y-51619055D01*
X73506651Y-51556560D01*
X73771741Y-51463801D01*
X74024778Y-51341945D01*
X74262581Y-51192523D01*
X74482158Y-51017416D01*
X74680749Y-50818825D01*
X74855856Y-50599248D01*
X75005278Y-50361445D01*
X75127134Y-50108408D01*
X75219893Y-49843318D01*
X75282388Y-49569509D01*
X75313833Y-49290425D01*
X75313833Y-49009575D01*
X75313832Y-49009568D01*
X97406167Y-49009568D01*
X97406167Y-49290431D01*
X97437609Y-49569494D01*
X97437612Y-49569512D01*
X97500106Y-49843317D01*
X97500110Y-49843329D01*
X97592867Y-50108411D01*
X97714720Y-50361442D01*
X97714722Y-50361445D01*
X97864144Y-50599248D01*
X98039251Y-50818825D01*
X98237842Y-51017416D01*
X98457419Y-51192523D01*
X98695222Y-51341945D01*
X98948259Y-51463801D01*
X99147347Y-51533465D01*
X99213337Y-51556556D01*
X99213349Y-51556560D01*
X99487158Y-51619055D01*
X99487164Y-51619055D01*
X99487172Y-51619057D01*
X99673214Y-51640018D01*
X99766236Y-51650499D01*
X99766239Y-51650500D01*
X99766242Y-51650500D01*
X100047095Y-51650500D01*
X100047096Y-51650499D01*
X100189722Y-51634429D01*
X100326161Y-51619057D01*
X100326166Y-51619056D01*
X100326176Y-51619055D01*
X100599985Y-51556560D01*
X100865075Y-51463801D01*
X101118112Y-51341945D01*
X101355915Y-51192523D01*
X101575492Y-51017416D01*
X101774083Y-50818825D01*
X101949190Y-50599248D01*
X102098612Y-50361445D01*
X102220468Y-50108408D01*
X102313227Y-49843318D01*
X102375722Y-49569509D01*
X102407167Y-49290425D01*
X102407167Y-49009575D01*
X102407166Y-49009568D01*
X124499500Y-49009568D01*
X124499500Y-49290431D01*
X124530942Y-49569494D01*
X124530945Y-49569512D01*
X124593439Y-49843317D01*
X124593443Y-49843329D01*
X124686200Y-50108411D01*
X124808053Y-50361442D01*
X124808055Y-50361445D01*
X124957477Y-50599248D01*
X125132584Y-50818825D01*
X125331175Y-51017416D01*
X125550752Y-51192523D01*
X125788555Y-51341945D01*
X126041592Y-51463801D01*
X126240680Y-51533465D01*
X126306670Y-51556556D01*
X126306682Y-51556560D01*
X126580491Y-51619055D01*
X126580497Y-51619055D01*
X126580505Y-51619057D01*
X126766547Y-51640018D01*
X126859569Y-51650499D01*
X126859572Y-51650500D01*
X126859575Y-51650500D01*
X127140428Y-51650500D01*
X127140429Y-51650499D01*
X127283055Y-51634429D01*
X127419494Y-51619057D01*
X127419499Y-51619056D01*
X127419509Y-51619055D01*
X127693318Y-51556560D01*
X127958408Y-51463801D01*
X128211445Y-51341945D01*
X128449248Y-51192523D01*
X128668825Y-51017416D01*
X128867416Y-50818825D01*
X129042523Y-50599248D01*
X129191945Y-50361445D01*
X129313801Y-50108408D01*
X129406560Y-49843318D01*
X129469055Y-49569509D01*
X129500500Y-49290425D01*
X129500500Y-49009575D01*
X129500499Y-49009568D01*
X151592833Y-49009568D01*
X151592833Y-49290431D01*
X151624275Y-49569494D01*
X151624278Y-49569512D01*
X151686772Y-49843317D01*
X151686776Y-49843329D01*
X151779533Y-50108411D01*
X151901386Y-50361442D01*
X151901388Y-50361445D01*
X152050810Y-50599248D01*
X152225917Y-50818825D01*
X152424508Y-51017416D01*
X152644085Y-51192523D01*
X152881888Y-51341945D01*
X153134925Y-51463801D01*
X153334013Y-51533465D01*
X153400003Y-51556556D01*
X153400015Y-51556560D01*
X153673824Y-51619055D01*
X153673830Y-51619055D01*
X153673838Y-51619057D01*
X153859880Y-51640018D01*
X153952902Y-51650499D01*
X153952905Y-51650500D01*
X153952908Y-51650500D01*
X154233761Y-51650500D01*
X154233762Y-51650499D01*
X154376388Y-51634429D01*
X154512827Y-51619057D01*
X154512832Y-51619056D01*
X154512842Y-51619055D01*
X154786651Y-51556560D01*
X155051741Y-51463801D01*
X155304778Y-51341945D01*
X155542581Y-51192523D01*
X155762158Y-51017416D01*
X155960749Y-50818825D01*
X156135856Y-50599248D01*
X156285278Y-50361445D01*
X156407134Y-50108408D01*
X156499893Y-49843318D01*
X156562388Y-49569509D01*
X156593833Y-49290425D01*
X156593833Y-49009575D01*
X156593832Y-49009568D01*
X178686167Y-49009568D01*
X178686167Y-49290431D01*
X178717609Y-49569494D01*
X178717612Y-49569512D01*
X178780106Y-49843317D01*
X178780110Y-49843329D01*
X178872867Y-50108411D01*
X178994720Y-50361442D01*
X178994722Y-50361445D01*
X179144144Y-50599248D01*
X179319251Y-50818825D01*
X179517842Y-51017416D01*
X179737419Y-51192523D01*
X179975222Y-51341945D01*
X180228259Y-51463801D01*
X180427347Y-51533465D01*
X180493337Y-51556556D01*
X180493349Y-51556560D01*
X180767158Y-51619055D01*
X180767164Y-51619055D01*
X180767172Y-51619057D01*
X180953214Y-51640018D01*
X181046236Y-51650499D01*
X181046239Y-51650500D01*
X181046242Y-51650500D01*
X181327095Y-51650500D01*
X181327096Y-51650499D01*
X181469722Y-51634429D01*
X181606161Y-51619057D01*
X181606166Y-51619056D01*
X181606176Y-51619055D01*
X181879985Y-51556560D01*
X182145075Y-51463801D01*
X182398112Y-51341945D01*
X182635915Y-51192523D01*
X182855492Y-51017416D01*
X183054083Y-50818825D01*
X183229190Y-50599248D01*
X183378612Y-50361445D01*
X183500468Y-50108408D01*
X183593227Y-49843318D01*
X183655722Y-49569509D01*
X183687167Y-49290425D01*
X183687167Y-49009575D01*
X183687166Y-49009568D01*
X205779500Y-49009568D01*
X205779500Y-49290431D01*
X205810942Y-49569494D01*
X205810945Y-49569512D01*
X205873439Y-49843317D01*
X205873443Y-49843329D01*
X205966200Y-50108411D01*
X206088053Y-50361442D01*
X206088055Y-50361445D01*
X206237477Y-50599248D01*
X206412584Y-50818825D01*
X206611175Y-51017416D01*
X206830752Y-51192523D01*
X207068555Y-51341945D01*
X207321592Y-51463801D01*
X207520680Y-51533465D01*
X207586670Y-51556556D01*
X207586682Y-51556560D01*
X207860491Y-51619055D01*
X207860497Y-51619055D01*
X207860505Y-51619057D01*
X208046547Y-51640018D01*
X208139569Y-51650499D01*
X208139572Y-51650500D01*
X208139575Y-51650500D01*
X208420428Y-51650500D01*
X208420429Y-51650499D01*
X208563055Y-51634429D01*
X208699494Y-51619057D01*
X208699499Y-51619056D01*
X208699509Y-51619055D01*
X208973318Y-51556560D01*
X209238408Y-51463801D01*
X209491445Y-51341945D01*
X209729248Y-51192523D01*
X209948825Y-51017416D01*
X210147416Y-50818825D01*
X210322523Y-50599248D01*
X210471945Y-50361445D01*
X210593801Y-50108408D01*
X210686560Y-49843318D01*
X210749055Y-49569509D01*
X210780500Y-49290425D01*
X210780500Y-49009575D01*
X210780499Y-49009568D01*
X232872833Y-49009568D01*
X232872833Y-49290431D01*
X232904275Y-49569494D01*
X232904278Y-49569512D01*
X232966772Y-49843317D01*
X232966776Y-49843329D01*
X233059533Y-50108411D01*
X233181386Y-50361442D01*
X233181388Y-50361445D01*
X233330810Y-50599248D01*
X233505917Y-50818825D01*
X233704508Y-51017416D01*
X233924085Y-51192523D01*
X234161888Y-51341945D01*
X234414925Y-51463801D01*
X234614013Y-51533465D01*
X234680003Y-51556556D01*
X234680015Y-51556560D01*
X234953824Y-51619055D01*
X234953830Y-51619055D01*
X234953838Y-51619057D01*
X235139880Y-51640018D01*
X235232902Y-51650499D01*
X235232905Y-51650500D01*
X235232908Y-51650500D01*
X235513761Y-51650500D01*
X235513762Y-51650499D01*
X235656388Y-51634429D01*
X235792827Y-51619057D01*
X235792832Y-51619056D01*
X235792842Y-51619055D01*
X236066651Y-51556560D01*
X236331741Y-51463801D01*
X236584778Y-51341945D01*
X236822581Y-51192523D01*
X237042158Y-51017416D01*
X237240749Y-50818825D01*
X237415856Y-50599248D01*
X237565278Y-50361445D01*
X237687134Y-50108408D01*
X237779893Y-49843318D01*
X237842388Y-49569509D01*
X237873833Y-49290425D01*
X237873833Y-49009575D01*
X237873832Y-49009568D01*
X259966167Y-49009568D01*
X259966167Y-49290431D01*
X259997609Y-49569494D01*
X259997612Y-49569512D01*
X260060106Y-49843317D01*
X260060110Y-49843329D01*
X260152867Y-50108411D01*
X260274720Y-50361442D01*
X260274722Y-50361445D01*
X260424144Y-50599248D01*
X260599251Y-50818825D01*
X260797842Y-51017416D01*
X261017419Y-51192523D01*
X261255222Y-51341945D01*
X261508259Y-51463801D01*
X261707347Y-51533465D01*
X261773337Y-51556556D01*
X261773349Y-51556560D01*
X262047158Y-51619055D01*
X262047164Y-51619055D01*
X262047172Y-51619057D01*
X262233214Y-51640018D01*
X262326236Y-51650499D01*
X262326239Y-51650500D01*
X262326242Y-51650500D01*
X262607095Y-51650500D01*
X262607096Y-51650499D01*
X262749722Y-51634429D01*
X262886161Y-51619057D01*
X262886166Y-51619056D01*
X262886176Y-51619055D01*
X263159985Y-51556560D01*
X263425075Y-51463801D01*
X263678112Y-51341945D01*
X263915915Y-51192523D01*
X264135492Y-51017416D01*
X264334083Y-50818825D01*
X264509190Y-50599248D01*
X264658612Y-50361445D01*
X264780468Y-50108408D01*
X264873227Y-49843318D01*
X264935722Y-49569509D01*
X264967167Y-49290425D01*
X264967167Y-49009575D01*
X264967166Y-49009568D01*
X287059500Y-49009568D01*
X287059500Y-49290431D01*
X287090942Y-49569494D01*
X287090945Y-49569512D01*
X287153439Y-49843317D01*
X287153443Y-49843329D01*
X287246200Y-50108411D01*
X287368053Y-50361442D01*
X287368055Y-50361445D01*
X287517477Y-50599248D01*
X287692584Y-50818825D01*
X287891175Y-51017416D01*
X288110752Y-51192523D01*
X288348555Y-51341945D01*
X288601592Y-51463801D01*
X288800680Y-51533465D01*
X288866670Y-51556556D01*
X288866682Y-51556560D01*
X289140491Y-51619055D01*
X289140497Y-51619055D01*
X289140505Y-51619057D01*
X289326547Y-51640018D01*
X289419569Y-51650499D01*
X289419572Y-51650500D01*
X289419575Y-51650500D01*
X289700428Y-51650500D01*
X289700429Y-51650499D01*
X289843055Y-51634429D01*
X289979494Y-51619057D01*
X289979499Y-51619056D01*
X289979509Y-51619055D01*
X290253318Y-51556560D01*
X290518408Y-51463801D01*
X290771445Y-51341945D01*
X291009248Y-51192523D01*
X291228825Y-51017416D01*
X291427416Y-50818825D01*
X291602523Y-50599248D01*
X291751945Y-50361445D01*
X291873801Y-50108408D01*
X291966560Y-49843318D01*
X292029055Y-49569509D01*
X292060500Y-49290425D01*
X292060500Y-49009575D01*
X292060499Y-49009568D01*
X314152833Y-49009568D01*
X314152833Y-49290431D01*
X314184275Y-49569494D01*
X314184278Y-49569512D01*
X314246772Y-49843317D01*
X314246776Y-49843329D01*
X314339533Y-50108411D01*
X314461386Y-50361442D01*
X314461388Y-50361445D01*
X314610810Y-50599248D01*
X314785917Y-50818825D01*
X314984508Y-51017416D01*
X315204085Y-51192523D01*
X315441888Y-51341945D01*
X315694925Y-51463801D01*
X315894013Y-51533465D01*
X315960003Y-51556556D01*
X315960015Y-51556560D01*
X316233824Y-51619055D01*
X316233830Y-51619055D01*
X316233838Y-51619057D01*
X316419880Y-51640018D01*
X316512902Y-51650499D01*
X316512905Y-51650500D01*
X316512908Y-51650500D01*
X316793761Y-51650500D01*
X316793762Y-51650499D01*
X316936388Y-51634429D01*
X317072827Y-51619057D01*
X317072832Y-51619056D01*
X317072842Y-51619055D01*
X317346651Y-51556560D01*
X317611741Y-51463801D01*
X317864778Y-51341945D01*
X318102581Y-51192523D01*
X318322158Y-51017416D01*
X318520749Y-50818825D01*
X318695856Y-50599248D01*
X318845278Y-50361445D01*
X318967134Y-50108408D01*
X319059893Y-49843318D01*
X319122388Y-49569509D01*
X319153833Y-49290425D01*
X319153833Y-49009575D01*
X319153832Y-49009568D01*
X341246167Y-49009568D01*
X341246167Y-49290431D01*
X341277609Y-49569494D01*
X341277612Y-49569512D01*
X341340106Y-49843317D01*
X341340110Y-49843329D01*
X341432867Y-50108411D01*
X341554720Y-50361442D01*
X341554722Y-50361445D01*
X341704144Y-50599248D01*
X341879251Y-50818825D01*
X342077842Y-51017416D01*
X342297419Y-51192523D01*
X342535222Y-51341945D01*
X342788259Y-51463801D01*
X342987347Y-51533465D01*
X343053337Y-51556556D01*
X343053349Y-51556560D01*
X343327158Y-51619055D01*
X343327164Y-51619055D01*
X343327172Y-51619057D01*
X343513214Y-51640018D01*
X343606236Y-51650499D01*
X343606239Y-51650500D01*
X343606242Y-51650500D01*
X343887095Y-51650500D01*
X343887096Y-51650499D01*
X344029722Y-51634429D01*
X344166161Y-51619057D01*
X344166166Y-51619056D01*
X344166176Y-51619055D01*
X344439985Y-51556560D01*
X344705075Y-51463801D01*
X344958112Y-51341945D01*
X345195915Y-51192523D01*
X345415492Y-51017416D01*
X345614083Y-50818825D01*
X345789190Y-50599248D01*
X345938612Y-50361445D01*
X346060468Y-50108408D01*
X346153227Y-49843318D01*
X346215722Y-49569509D01*
X346247167Y-49290425D01*
X346247167Y-49009575D01*
X346247166Y-49009568D01*
X368339500Y-49009568D01*
X368339500Y-49290431D01*
X368370942Y-49569494D01*
X368370945Y-49569512D01*
X368433439Y-49843317D01*
X368433443Y-49843329D01*
X368526200Y-50108411D01*
X368648053Y-50361442D01*
X368648055Y-50361445D01*
X368797477Y-50599248D01*
X368972584Y-50818825D01*
X369171175Y-51017416D01*
X369390752Y-51192523D01*
X369628555Y-51341945D01*
X369881592Y-51463801D01*
X370080680Y-51533465D01*
X370146670Y-51556556D01*
X370146682Y-51556560D01*
X370420491Y-51619055D01*
X370420497Y-51619055D01*
X370420505Y-51619057D01*
X370606547Y-51640018D01*
X370699569Y-51650499D01*
X370699572Y-51650500D01*
X370699575Y-51650500D01*
X370980428Y-51650500D01*
X370980429Y-51650499D01*
X371123055Y-51634429D01*
X371259494Y-51619057D01*
X371259499Y-51619056D01*
X371259509Y-51619055D01*
X371533318Y-51556560D01*
X371798408Y-51463801D01*
X372051445Y-51341945D01*
X372289248Y-51192523D01*
X372508825Y-51017416D01*
X372707416Y-50818825D01*
X372882523Y-50599248D01*
X373031945Y-50361445D01*
X373153801Y-50108408D01*
X373246560Y-49843318D01*
X373309055Y-49569509D01*
X373340500Y-49290425D01*
X373340500Y-49009575D01*
X373340499Y-49009568D01*
X395432833Y-49009568D01*
X395432833Y-49290431D01*
X395464275Y-49569494D01*
X395464278Y-49569512D01*
X395526772Y-49843317D01*
X395526776Y-49843329D01*
X395619533Y-50108411D01*
X395741386Y-50361442D01*
X395741388Y-50361445D01*
X395890810Y-50599248D01*
X396065917Y-50818825D01*
X396264508Y-51017416D01*
X396484085Y-51192523D01*
X396721888Y-51341945D01*
X396974925Y-51463801D01*
X397174013Y-51533465D01*
X397240003Y-51556556D01*
X397240015Y-51556560D01*
X397513824Y-51619055D01*
X397513830Y-51619055D01*
X397513838Y-51619057D01*
X397699880Y-51640018D01*
X397792902Y-51650499D01*
X397792905Y-51650500D01*
X397792908Y-51650500D01*
X398073761Y-51650500D01*
X398073762Y-51650499D01*
X398216388Y-51634429D01*
X398352827Y-51619057D01*
X398352832Y-51619056D01*
X398352842Y-51619055D01*
X398626651Y-51556560D01*
X398891741Y-51463801D01*
X399144778Y-51341945D01*
X399382581Y-51192523D01*
X399602158Y-51017416D01*
X399800749Y-50818825D01*
X399975856Y-50599248D01*
X400125278Y-50361445D01*
X400247134Y-50108408D01*
X400339893Y-49843318D01*
X400402388Y-49569509D01*
X400433833Y-49290425D01*
X400433833Y-49009575D01*
X400433832Y-49009568D01*
X422526167Y-49009568D01*
X422526167Y-49290431D01*
X422557609Y-49569494D01*
X422557612Y-49569512D01*
X422620106Y-49843317D01*
X422620110Y-49843329D01*
X422712867Y-50108411D01*
X422834720Y-50361442D01*
X422834722Y-50361445D01*
X422984144Y-50599248D01*
X423159251Y-50818825D01*
X423357842Y-51017416D01*
X423577419Y-51192523D01*
X423815222Y-51341945D01*
X424068259Y-51463801D01*
X424267347Y-51533465D01*
X424333337Y-51556556D01*
X424333349Y-51556560D01*
X424607158Y-51619055D01*
X424607164Y-51619055D01*
X424607172Y-51619057D01*
X424793214Y-51640018D01*
X424886236Y-51650499D01*
X424886239Y-51650500D01*
X424886242Y-51650500D01*
X425167095Y-51650500D01*
X425167096Y-51650499D01*
X425309722Y-51634429D01*
X425446161Y-51619057D01*
X425446166Y-51619056D01*
X425446176Y-51619055D01*
X425719985Y-51556560D01*
X425985075Y-51463801D01*
X426238112Y-51341945D01*
X426475915Y-51192523D01*
X426695492Y-51017416D01*
X426894083Y-50818825D01*
X427069190Y-50599248D01*
X427218612Y-50361445D01*
X427340468Y-50108408D01*
X427433227Y-49843318D01*
X427495722Y-49569509D01*
X427527167Y-49290425D01*
X427527167Y-49009575D01*
X427527166Y-49009568D01*
X449619500Y-49009568D01*
X449619500Y-49290431D01*
X449650942Y-49569494D01*
X449650945Y-49569512D01*
X449713439Y-49843317D01*
X449713443Y-49843329D01*
X449806200Y-50108411D01*
X449928053Y-50361442D01*
X449928055Y-50361445D01*
X450077477Y-50599248D01*
X450252584Y-50818825D01*
X450451175Y-51017416D01*
X450670752Y-51192523D01*
X450908555Y-51341945D01*
X451161592Y-51463801D01*
X451360680Y-51533465D01*
X451426670Y-51556556D01*
X451426682Y-51556560D01*
X451700491Y-51619055D01*
X451700497Y-51619055D01*
X451700505Y-51619057D01*
X451886547Y-51640018D01*
X451979569Y-51650499D01*
X451979572Y-51650500D01*
X451979575Y-51650500D01*
X452260428Y-51650500D01*
X452260429Y-51650499D01*
X452403055Y-51634429D01*
X452539494Y-51619057D01*
X452539499Y-51619056D01*
X452539509Y-51619055D01*
X452813318Y-51556560D01*
X453078408Y-51463801D01*
X453331445Y-51341945D01*
X453569248Y-51192523D01*
X453788825Y-51017416D01*
X453987416Y-50818825D01*
X454162523Y-50599248D01*
X454311945Y-50361445D01*
X454433801Y-50108408D01*
X454526560Y-49843318D01*
X454589055Y-49569509D01*
X454620500Y-49290425D01*
X454620500Y-49009575D01*
X454589055Y-48730491D01*
X454526560Y-48456682D01*
X454433801Y-48191592D01*
X454311945Y-47938555D01*
X454162523Y-47700752D01*
X453987416Y-47481175D01*
X453788825Y-47282584D01*
X453569248Y-47107477D01*
X453331445Y-46958055D01*
X453331442Y-46958053D01*
X453078411Y-46836200D01*
X452813329Y-46743443D01*
X452813317Y-46743439D01*
X452539512Y-46680945D01*
X452539494Y-46680942D01*
X452260431Y-46649500D01*
X452260425Y-46649500D01*
X451979575Y-46649500D01*
X451979568Y-46649500D01*
X451700505Y-46680942D01*
X451700487Y-46680945D01*
X451426682Y-46743439D01*
X451426670Y-46743443D01*
X451161588Y-46836200D01*
X450908557Y-46958053D01*
X450670753Y-47107476D01*
X450451175Y-47282583D01*
X450252583Y-47481175D01*
X450077476Y-47700753D01*
X449928053Y-47938557D01*
X449806200Y-48191588D01*
X449713443Y-48456670D01*
X449713439Y-48456682D01*
X449650945Y-48730487D01*
X449650942Y-48730505D01*
X449619500Y-49009568D01*
X427527166Y-49009568D01*
X427495722Y-48730491D01*
X427433227Y-48456682D01*
X427340468Y-48191592D01*
X427218612Y-47938555D01*
X427069190Y-47700752D01*
X426894083Y-47481175D01*
X426695492Y-47282584D01*
X426475915Y-47107477D01*
X426238112Y-46958055D01*
X426238109Y-46958053D01*
X425985078Y-46836200D01*
X425719996Y-46743443D01*
X425719984Y-46743439D01*
X425446179Y-46680945D01*
X425446161Y-46680942D01*
X425167098Y-46649500D01*
X425167092Y-46649500D01*
X424886242Y-46649500D01*
X424886235Y-46649500D01*
X424607172Y-46680942D01*
X424607154Y-46680945D01*
X424333349Y-46743439D01*
X424333337Y-46743443D01*
X424068255Y-46836200D01*
X423815224Y-46958053D01*
X423577420Y-47107476D01*
X423357842Y-47282583D01*
X423159250Y-47481175D01*
X422984143Y-47700753D01*
X422834720Y-47938557D01*
X422712867Y-48191588D01*
X422620110Y-48456670D01*
X422620106Y-48456682D01*
X422557612Y-48730487D01*
X422557609Y-48730505D01*
X422526167Y-49009568D01*
X400433832Y-49009568D01*
X400402388Y-48730491D01*
X400339893Y-48456682D01*
X400247134Y-48191592D01*
X400125278Y-47938555D01*
X399975856Y-47700752D01*
X399800749Y-47481175D01*
X399602158Y-47282584D01*
X399382581Y-47107477D01*
X399144778Y-46958055D01*
X399144775Y-46958053D01*
X398891744Y-46836200D01*
X398626662Y-46743443D01*
X398626650Y-46743439D01*
X398352845Y-46680945D01*
X398352827Y-46680942D01*
X398073764Y-46649500D01*
X398073758Y-46649500D01*
X397792908Y-46649500D01*
X397792901Y-46649500D01*
X397513838Y-46680942D01*
X397513820Y-46680945D01*
X397240015Y-46743439D01*
X397240003Y-46743443D01*
X396974921Y-46836200D01*
X396721890Y-46958053D01*
X396484086Y-47107476D01*
X396264508Y-47282583D01*
X396065916Y-47481175D01*
X395890809Y-47700753D01*
X395741386Y-47938557D01*
X395619533Y-48191588D01*
X395526776Y-48456670D01*
X395526772Y-48456682D01*
X395464278Y-48730487D01*
X395464275Y-48730505D01*
X395432833Y-49009568D01*
X373340499Y-49009568D01*
X373309055Y-48730491D01*
X373246560Y-48456682D01*
X373153801Y-48191592D01*
X373031945Y-47938555D01*
X372882523Y-47700752D01*
X372707416Y-47481175D01*
X372508825Y-47282584D01*
X372289248Y-47107477D01*
X372051445Y-46958055D01*
X372051442Y-46958053D01*
X371798411Y-46836200D01*
X371533329Y-46743443D01*
X371533317Y-46743439D01*
X371259512Y-46680945D01*
X371259494Y-46680942D01*
X370980431Y-46649500D01*
X370980425Y-46649500D01*
X370699575Y-46649500D01*
X370699568Y-46649500D01*
X370420505Y-46680942D01*
X370420487Y-46680945D01*
X370146682Y-46743439D01*
X370146670Y-46743443D01*
X369881588Y-46836200D01*
X369628557Y-46958053D01*
X369390753Y-47107476D01*
X369171175Y-47282583D01*
X368972583Y-47481175D01*
X368797476Y-47700753D01*
X368648053Y-47938557D01*
X368526200Y-48191588D01*
X368433443Y-48456670D01*
X368433439Y-48456682D01*
X368370945Y-48730487D01*
X368370942Y-48730505D01*
X368339500Y-49009568D01*
X346247166Y-49009568D01*
X346215722Y-48730491D01*
X346153227Y-48456682D01*
X346060468Y-48191592D01*
X345938612Y-47938555D01*
X345789190Y-47700752D01*
X345614083Y-47481175D01*
X345415492Y-47282584D01*
X345195915Y-47107477D01*
X344958112Y-46958055D01*
X344958109Y-46958053D01*
X344705078Y-46836200D01*
X344439996Y-46743443D01*
X344439984Y-46743439D01*
X344166179Y-46680945D01*
X344166161Y-46680942D01*
X343887098Y-46649500D01*
X343887092Y-46649500D01*
X343606242Y-46649500D01*
X343606235Y-46649500D01*
X343327172Y-46680942D01*
X343327154Y-46680945D01*
X343053349Y-46743439D01*
X343053337Y-46743443D01*
X342788255Y-46836200D01*
X342535224Y-46958053D01*
X342297420Y-47107476D01*
X342077842Y-47282583D01*
X341879250Y-47481175D01*
X341704143Y-47700753D01*
X341554720Y-47938557D01*
X341432867Y-48191588D01*
X341340110Y-48456670D01*
X341340106Y-48456682D01*
X341277612Y-48730487D01*
X341277609Y-48730505D01*
X341246167Y-49009568D01*
X319153832Y-49009568D01*
X319122388Y-48730491D01*
X319059893Y-48456682D01*
X318967134Y-48191592D01*
X318845278Y-47938555D01*
X318695856Y-47700752D01*
X318520749Y-47481175D01*
X318322158Y-47282584D01*
X318102581Y-47107477D01*
X317864778Y-46958055D01*
X317864775Y-46958053D01*
X317611744Y-46836200D01*
X317346662Y-46743443D01*
X317346650Y-46743439D01*
X317072845Y-46680945D01*
X317072827Y-46680942D01*
X316793764Y-46649500D01*
X316793758Y-46649500D01*
X316512908Y-46649500D01*
X316512901Y-46649500D01*
X316233838Y-46680942D01*
X316233820Y-46680945D01*
X315960015Y-46743439D01*
X315960003Y-46743443D01*
X315694921Y-46836200D01*
X315441890Y-46958053D01*
X315204086Y-47107476D01*
X314984508Y-47282583D01*
X314785916Y-47481175D01*
X314610809Y-47700753D01*
X314461386Y-47938557D01*
X314339533Y-48191588D01*
X314246776Y-48456670D01*
X314246772Y-48456682D01*
X314184278Y-48730487D01*
X314184275Y-48730505D01*
X314152833Y-49009568D01*
X292060499Y-49009568D01*
X292029055Y-48730491D01*
X291966560Y-48456682D01*
X291873801Y-48191592D01*
X291751945Y-47938555D01*
X291602523Y-47700752D01*
X291427416Y-47481175D01*
X291228825Y-47282584D01*
X291009248Y-47107477D01*
X290771445Y-46958055D01*
X290771442Y-46958053D01*
X290518411Y-46836200D01*
X290253329Y-46743443D01*
X290253317Y-46743439D01*
X289979512Y-46680945D01*
X289979494Y-46680942D01*
X289700431Y-46649500D01*
X289700425Y-46649500D01*
X289419575Y-46649500D01*
X289419568Y-46649500D01*
X289140505Y-46680942D01*
X289140487Y-46680945D01*
X288866682Y-46743439D01*
X288866670Y-46743443D01*
X288601588Y-46836200D01*
X288348557Y-46958053D01*
X288110753Y-47107476D01*
X287891175Y-47282583D01*
X287692583Y-47481175D01*
X287517476Y-47700753D01*
X287368053Y-47938557D01*
X287246200Y-48191588D01*
X287153443Y-48456670D01*
X287153439Y-48456682D01*
X287090945Y-48730487D01*
X287090942Y-48730505D01*
X287059500Y-49009568D01*
X264967166Y-49009568D01*
X264935722Y-48730491D01*
X264873227Y-48456682D01*
X264780468Y-48191592D01*
X264658612Y-47938555D01*
X264509190Y-47700752D01*
X264334083Y-47481175D01*
X264135492Y-47282584D01*
X263915915Y-47107477D01*
X263678112Y-46958055D01*
X263678109Y-46958053D01*
X263425078Y-46836200D01*
X263159996Y-46743443D01*
X263159984Y-46743439D01*
X262886179Y-46680945D01*
X262886161Y-46680942D01*
X262607098Y-46649500D01*
X262607092Y-46649500D01*
X262326242Y-46649500D01*
X262326235Y-46649500D01*
X262047172Y-46680942D01*
X262047154Y-46680945D01*
X261773349Y-46743439D01*
X261773337Y-46743443D01*
X261508255Y-46836200D01*
X261255224Y-46958053D01*
X261017420Y-47107476D01*
X260797842Y-47282583D01*
X260599250Y-47481175D01*
X260424143Y-47700753D01*
X260274720Y-47938557D01*
X260152867Y-48191588D01*
X260060110Y-48456670D01*
X260060106Y-48456682D01*
X259997612Y-48730487D01*
X259997609Y-48730505D01*
X259966167Y-49009568D01*
X237873832Y-49009568D01*
X237842388Y-48730491D01*
X237779893Y-48456682D01*
X237687134Y-48191592D01*
X237565278Y-47938555D01*
X237415856Y-47700752D01*
X237240749Y-47481175D01*
X237042158Y-47282584D01*
X236822581Y-47107477D01*
X236584778Y-46958055D01*
X236584775Y-46958053D01*
X236331744Y-46836200D01*
X236066662Y-46743443D01*
X236066650Y-46743439D01*
X235792845Y-46680945D01*
X235792827Y-46680942D01*
X235513764Y-46649500D01*
X235513758Y-46649500D01*
X235232908Y-46649500D01*
X235232901Y-46649500D01*
X234953838Y-46680942D01*
X234953820Y-46680945D01*
X234680015Y-46743439D01*
X234680003Y-46743443D01*
X234414921Y-46836200D01*
X234161890Y-46958053D01*
X233924086Y-47107476D01*
X233704508Y-47282583D01*
X233505916Y-47481175D01*
X233330809Y-47700753D01*
X233181386Y-47938557D01*
X233059533Y-48191588D01*
X232966776Y-48456670D01*
X232966772Y-48456682D01*
X232904278Y-48730487D01*
X232904275Y-48730505D01*
X232872833Y-49009568D01*
X210780499Y-49009568D01*
X210749055Y-48730491D01*
X210686560Y-48456682D01*
X210593801Y-48191592D01*
X210471945Y-47938555D01*
X210322523Y-47700752D01*
X210147416Y-47481175D01*
X209948825Y-47282584D01*
X209729248Y-47107477D01*
X209491445Y-46958055D01*
X209491442Y-46958053D01*
X209238411Y-46836200D01*
X208973329Y-46743443D01*
X208973317Y-46743439D01*
X208699512Y-46680945D01*
X208699494Y-46680942D01*
X208420431Y-46649500D01*
X208420425Y-46649500D01*
X208139575Y-46649500D01*
X208139568Y-46649500D01*
X207860505Y-46680942D01*
X207860487Y-46680945D01*
X207586682Y-46743439D01*
X207586670Y-46743443D01*
X207321588Y-46836200D01*
X207068557Y-46958053D01*
X206830753Y-47107476D01*
X206611175Y-47282583D01*
X206412583Y-47481175D01*
X206237476Y-47700753D01*
X206088053Y-47938557D01*
X205966200Y-48191588D01*
X205873443Y-48456670D01*
X205873439Y-48456682D01*
X205810945Y-48730487D01*
X205810942Y-48730505D01*
X205779500Y-49009568D01*
X183687166Y-49009568D01*
X183655722Y-48730491D01*
X183593227Y-48456682D01*
X183500468Y-48191592D01*
X183378612Y-47938555D01*
X183229190Y-47700752D01*
X183054083Y-47481175D01*
X182855492Y-47282584D01*
X182635915Y-47107477D01*
X182398112Y-46958055D01*
X182398109Y-46958053D01*
X182145078Y-46836200D01*
X181879996Y-46743443D01*
X181879984Y-46743439D01*
X181606179Y-46680945D01*
X181606161Y-46680942D01*
X181327098Y-46649500D01*
X181327092Y-46649500D01*
X181046242Y-46649500D01*
X181046235Y-46649500D01*
X180767172Y-46680942D01*
X180767154Y-46680945D01*
X180493349Y-46743439D01*
X180493337Y-46743443D01*
X180228255Y-46836200D01*
X179975224Y-46958053D01*
X179737420Y-47107476D01*
X179517842Y-47282583D01*
X179319250Y-47481175D01*
X179144143Y-47700753D01*
X178994720Y-47938557D01*
X178872867Y-48191588D01*
X178780110Y-48456670D01*
X178780106Y-48456682D01*
X178717612Y-48730487D01*
X178717609Y-48730505D01*
X178686167Y-49009568D01*
X156593832Y-49009568D01*
X156562388Y-48730491D01*
X156499893Y-48456682D01*
X156407134Y-48191592D01*
X156285278Y-47938555D01*
X156135856Y-47700752D01*
X155960749Y-47481175D01*
X155762158Y-47282584D01*
X155542581Y-47107477D01*
X155304778Y-46958055D01*
X155304775Y-46958053D01*
X155051744Y-46836200D01*
X154786662Y-46743443D01*
X154786650Y-46743439D01*
X154512845Y-46680945D01*
X154512827Y-46680942D01*
X154233764Y-46649500D01*
X154233758Y-46649500D01*
X153952908Y-46649500D01*
X153952901Y-46649500D01*
X153673838Y-46680942D01*
X153673820Y-46680945D01*
X153400015Y-46743439D01*
X153400003Y-46743443D01*
X153134921Y-46836200D01*
X152881890Y-46958053D01*
X152644086Y-47107476D01*
X152424508Y-47282583D01*
X152225916Y-47481175D01*
X152050809Y-47700753D01*
X151901386Y-47938557D01*
X151779533Y-48191588D01*
X151686776Y-48456670D01*
X151686772Y-48456682D01*
X151624278Y-48730487D01*
X151624275Y-48730505D01*
X151592833Y-49009568D01*
X129500499Y-49009568D01*
X129469055Y-48730491D01*
X129406560Y-48456682D01*
X129313801Y-48191592D01*
X129191945Y-47938555D01*
X129042523Y-47700752D01*
X128867416Y-47481175D01*
X128668825Y-47282584D01*
X128449248Y-47107477D01*
X128211445Y-46958055D01*
X128211442Y-46958053D01*
X127958411Y-46836200D01*
X127693329Y-46743443D01*
X127693317Y-46743439D01*
X127419512Y-46680945D01*
X127419494Y-46680942D01*
X127140431Y-46649500D01*
X127140425Y-46649500D01*
X126859575Y-46649500D01*
X126859568Y-46649500D01*
X126580505Y-46680942D01*
X126580487Y-46680945D01*
X126306682Y-46743439D01*
X126306670Y-46743443D01*
X126041588Y-46836200D01*
X125788557Y-46958053D01*
X125550753Y-47107476D01*
X125331175Y-47282583D01*
X125132583Y-47481175D01*
X124957476Y-47700753D01*
X124808053Y-47938557D01*
X124686200Y-48191588D01*
X124593443Y-48456670D01*
X124593439Y-48456682D01*
X124530945Y-48730487D01*
X124530942Y-48730505D01*
X124499500Y-49009568D01*
X102407166Y-49009568D01*
X102375722Y-48730491D01*
X102313227Y-48456682D01*
X102220468Y-48191592D01*
X102098612Y-47938555D01*
X101949190Y-47700752D01*
X101774083Y-47481175D01*
X101575492Y-47282584D01*
X101355915Y-47107477D01*
X101118112Y-46958055D01*
X101118109Y-46958053D01*
X100865078Y-46836200D01*
X100599996Y-46743443D01*
X100599984Y-46743439D01*
X100326179Y-46680945D01*
X100326161Y-46680942D01*
X100047098Y-46649500D01*
X100047092Y-46649500D01*
X99766242Y-46649500D01*
X99766235Y-46649500D01*
X99487172Y-46680942D01*
X99487154Y-46680945D01*
X99213349Y-46743439D01*
X99213337Y-46743443D01*
X98948255Y-46836200D01*
X98695224Y-46958053D01*
X98457420Y-47107476D01*
X98237842Y-47282583D01*
X98039250Y-47481175D01*
X97864143Y-47700753D01*
X97714720Y-47938557D01*
X97592867Y-48191588D01*
X97500110Y-48456670D01*
X97500106Y-48456682D01*
X97437612Y-48730487D01*
X97437609Y-48730505D01*
X97406167Y-49009568D01*
X75313832Y-49009568D01*
X75282388Y-48730491D01*
X75219893Y-48456682D01*
X75127134Y-48191592D01*
X75005278Y-47938555D01*
X74855856Y-47700752D01*
X74680749Y-47481175D01*
X74482158Y-47282584D01*
X74262581Y-47107477D01*
X74024778Y-46958055D01*
X74024775Y-46958053D01*
X73771744Y-46836200D01*
X73506662Y-46743443D01*
X73506650Y-46743439D01*
X73232845Y-46680945D01*
X73232827Y-46680942D01*
X72953764Y-46649500D01*
X72953758Y-46649500D01*
X72672908Y-46649500D01*
X72672901Y-46649500D01*
X72393838Y-46680942D01*
X72393820Y-46680945D01*
X72120015Y-46743439D01*
X72120003Y-46743443D01*
X71854921Y-46836200D01*
X71601890Y-46958053D01*
X71364086Y-47107476D01*
X71144508Y-47282583D01*
X70945916Y-47481175D01*
X70770809Y-47700753D01*
X70621386Y-47938557D01*
X70499533Y-48191588D01*
X70406776Y-48456670D01*
X70406772Y-48456682D01*
X70344278Y-48730487D01*
X70344275Y-48730505D01*
X70312833Y-49009568D01*
X48220499Y-49009568D01*
X48189055Y-48730491D01*
X48126560Y-48456682D01*
X48033801Y-48191592D01*
X47911945Y-47938555D01*
X47762523Y-47700752D01*
X47587416Y-47481175D01*
X47388825Y-47282584D01*
X47169248Y-47107477D01*
X46931445Y-46958055D01*
X46931442Y-46958053D01*
X46678411Y-46836200D01*
X46413329Y-46743443D01*
X46413317Y-46743439D01*
X46139512Y-46680945D01*
X46139494Y-46680942D01*
X45860431Y-46649500D01*
X45860425Y-46649500D01*
X45579575Y-46649500D01*
X45579568Y-46649500D01*
X45300505Y-46680942D01*
X45300487Y-46680945D01*
X45026682Y-46743439D01*
X45026670Y-46743443D01*
X44761588Y-46836200D01*
X44508557Y-46958053D01*
X44270753Y-47107476D01*
X44051175Y-47282583D01*
X43852583Y-47481175D01*
X43677476Y-47700753D01*
X43528053Y-47938557D01*
X43406200Y-48191588D01*
X43313443Y-48456670D01*
X43313439Y-48456682D01*
X43250945Y-48730487D01*
X43250942Y-48730505D01*
X43219500Y-49009568D01*
X16316318Y-49009568D01*
X16256136Y-44917219D01*
X16252948Y-44700461D01*
X16233877Y-43403668D01*
X16208823Y-41700015D01*
X30500000Y-41700015D01*
X30500000Y-44250000D01*
X32141734Y-44250000D01*
X32125000Y-44377106D01*
X32125000Y-44622894D01*
X32141734Y-44750000D01*
X30500001Y-44750000D01*
X30500001Y-47299984D01*
X30510494Y-47402695D01*
X30565641Y-47569117D01*
X30565643Y-47569122D01*
X30657684Y-47718344D01*
X30781655Y-47842315D01*
X30930877Y-47934356D01*
X30930882Y-47934358D01*
X31097304Y-47989505D01*
X31097311Y-47989506D01*
X31200021Y-47999999D01*
X33749999Y-47999999D01*
X33750000Y-47999998D01*
X33750000Y-46358266D01*
X33877106Y-46375000D01*
X34122894Y-46375000D01*
X34250000Y-46358266D01*
X34250000Y-47999999D01*
X36799970Y-47999999D01*
X36799984Y-47999998D01*
X36902695Y-47989505D01*
X37069117Y-47934358D01*
X37069122Y-47934356D01*
X37218344Y-47842315D01*
X37342315Y-47718344D01*
X37434356Y-47569122D01*
X37434358Y-47569117D01*
X37489505Y-47402695D01*
X37489506Y-47402688D01*
X37499999Y-47299984D01*
X37500000Y-47299971D01*
X37500000Y-44750000D01*
X35858266Y-44750000D01*
X35875000Y-44622894D01*
X35875000Y-44377106D01*
X35858266Y-44250000D01*
X37499999Y-44250000D01*
X37499999Y-43607012D01*
X49500000Y-43607012D01*
X49500000Y-43820000D01*
X50424722Y-43820000D01*
X50380667Y-43896306D01*
X50350000Y-44010756D01*
X50350000Y-44129244D01*
X50380667Y-44243694D01*
X50424722Y-44320000D01*
X49500000Y-44320000D01*
X49500000Y-44532987D01*
X49506184Y-44611563D01*
X49506184Y-44611564D01*
X49555150Y-44794307D01*
X49641037Y-44962873D01*
X49641038Y-44962875D01*
X49760099Y-45109900D01*
X49907124Y-45228961D01*
X49907126Y-45228962D01*
X50075692Y-45314849D01*
X50258436Y-45363815D01*
X50337012Y-45369999D01*
X50337024Y-45370000D01*
X50550000Y-45370000D01*
X50550000Y-44445277D01*
X50626306Y-44489333D01*
X50740756Y-44520000D01*
X50859244Y-44520000D01*
X50973694Y-44489333D01*
X51050000Y-44445277D01*
X51050000Y-45370000D01*
X51262976Y-45370000D01*
X51262987Y-45369999D01*
X51341563Y-45363815D01*
X51341564Y-45363815D01*
X51524307Y-45314849D01*
X51692873Y-45228962D01*
X51692875Y-45228961D01*
X51839900Y-45109900D01*
X51958961Y-44962875D01*
X51958962Y-44962873D01*
X52041151Y-44801567D01*
X52089125Y-44750771D01*
X52156946Y-44733975D01*
X52223081Y-44756512D01*
X52251955Y-44784976D01*
X52348034Y-44917219D01*
X52492786Y-45061971D01*
X52647749Y-45174556D01*
X52658390Y-45182287D01*
X52749993Y-45228961D01*
X52840776Y-45275218D01*
X52840778Y-45275218D01*
X52840781Y-45275220D01*
X52945137Y-45309127D01*
X53035465Y-45338477D01*
X53136557Y-45354488D01*
X53237648Y-45370500D01*
X53237649Y-45370500D01*
X53442351Y-45370500D01*
X53442352Y-45370500D01*
X53644534Y-45338477D01*
X53839219Y-45275220D01*
X54021610Y-45182287D01*
X54129375Y-45103992D01*
X54187213Y-45061971D01*
X54187215Y-45061968D01*
X54187219Y-45061966D01*
X54331966Y-44917219D01*
X54331968Y-44917215D01*
X54331971Y-44917213D01*
X54428045Y-44784976D01*
X54452287Y-44751610D01*
X54545220Y-44569219D01*
X54608477Y-44374534D01*
X54612948Y-44346306D01*
X54628322Y-44249240D01*
X54640500Y-44172351D01*
X54640500Y-43967648D01*
X54608477Y-43765465D01*
X54577110Y-43668929D01*
X54556992Y-43607012D01*
X76593333Y-43607012D01*
X76593333Y-43820000D01*
X77518055Y-43820000D01*
X77474000Y-43896306D01*
X77443333Y-44010756D01*
X77443333Y-44129244D01*
X77474000Y-44243694D01*
X77518055Y-44320000D01*
X76593333Y-44320000D01*
X76593333Y-44532987D01*
X76599517Y-44611563D01*
X76599517Y-44611564D01*
X76648483Y-44794307D01*
X76734370Y-44962873D01*
X76734371Y-44962875D01*
X76853432Y-45109900D01*
X77000457Y-45228961D01*
X77000459Y-45228962D01*
X77169025Y-45314849D01*
X77351769Y-45363815D01*
X77430345Y-45369999D01*
X77430357Y-45370000D01*
X77643333Y-45370000D01*
X77643333Y-44445277D01*
X77719639Y-44489333D01*
X77834089Y-44520000D01*
X77952577Y-44520000D01*
X78067027Y-44489333D01*
X78143333Y-44445277D01*
X78143333Y-45370000D01*
X78356309Y-45370000D01*
X78356320Y-45369999D01*
X78434896Y-45363815D01*
X78434897Y-45363815D01*
X78617640Y-45314849D01*
X78786206Y-45228962D01*
X78786208Y-45228961D01*
X78933233Y-45109900D01*
X79052294Y-44962875D01*
X79052295Y-44962873D01*
X79134484Y-44801567D01*
X79182458Y-44750771D01*
X79250279Y-44733975D01*
X79316414Y-44756512D01*
X79345288Y-44784976D01*
X79441367Y-44917219D01*
X79586119Y-45061971D01*
X79741082Y-45174556D01*
X79751723Y-45182287D01*
X79843326Y-45228961D01*
X79934109Y-45275218D01*
X79934111Y-45275218D01*
X79934114Y-45275220D01*
X80038470Y-45309127D01*
X80128798Y-45338477D01*
X80229890Y-45354488D01*
X80330981Y-45370500D01*
X80330982Y-45370500D01*
X80535684Y-45370500D01*
X80535685Y-45370500D01*
X80737867Y-45338477D01*
X80932552Y-45275220D01*
X81114943Y-45182287D01*
X81222708Y-45103992D01*
X81280546Y-45061971D01*
X81280548Y-45061968D01*
X81280552Y-45061966D01*
X81425299Y-44917219D01*
X81425301Y-44917215D01*
X81425304Y-44917213D01*
X81521378Y-44784976D01*
X81545620Y-44751610D01*
X81638553Y-44569219D01*
X81701810Y-44374534D01*
X81706281Y-44346306D01*
X81721655Y-44249240D01*
X81733833Y-44172351D01*
X81733833Y-43967648D01*
X81701810Y-43765465D01*
X81670443Y-43668929D01*
X81650325Y-43607012D01*
X103686667Y-43607012D01*
X103686667Y-43820000D01*
X104611389Y-43820000D01*
X104567334Y-43896306D01*
X104536667Y-44010756D01*
X104536667Y-44129244D01*
X104567334Y-44243694D01*
X104611389Y-44320000D01*
X103686667Y-44320000D01*
X103686667Y-44532987D01*
X103692851Y-44611563D01*
X103692851Y-44611564D01*
X103741817Y-44794307D01*
X103827704Y-44962873D01*
X103827705Y-44962875D01*
X103946766Y-45109900D01*
X104093791Y-45228961D01*
X104093793Y-45228962D01*
X104262359Y-45314849D01*
X104445103Y-45363815D01*
X104523679Y-45369999D01*
X104523691Y-45370000D01*
X104736667Y-45370000D01*
X104736667Y-44445277D01*
X104812973Y-44489333D01*
X104927423Y-44520000D01*
X105045911Y-44520000D01*
X105160361Y-44489333D01*
X105236667Y-44445277D01*
X105236667Y-45370000D01*
X105449643Y-45370000D01*
X105449654Y-45369999D01*
X105528230Y-45363815D01*
X105528231Y-45363815D01*
X105710974Y-45314849D01*
X105879540Y-45228962D01*
X105879542Y-45228961D01*
X106026567Y-45109900D01*
X106145628Y-44962875D01*
X106145629Y-44962873D01*
X106227818Y-44801567D01*
X106275792Y-44750771D01*
X106343613Y-44733975D01*
X106409748Y-44756512D01*
X106438622Y-44784976D01*
X106534701Y-44917219D01*
X106679453Y-45061971D01*
X106834416Y-45174556D01*
X106845057Y-45182287D01*
X106936660Y-45228961D01*
X107027443Y-45275218D01*
X107027445Y-45275218D01*
X107027448Y-45275220D01*
X107131804Y-45309127D01*
X107222132Y-45338477D01*
X107323224Y-45354488D01*
X107424315Y-45370500D01*
X107424316Y-45370500D01*
X107629018Y-45370500D01*
X107629019Y-45370500D01*
X107831201Y-45338477D01*
X108025886Y-45275220D01*
X108208277Y-45182287D01*
X108316042Y-45103992D01*
X108373880Y-45061971D01*
X108373882Y-45061968D01*
X108373886Y-45061966D01*
X108518633Y-44917219D01*
X108518635Y-44917215D01*
X108518638Y-44917213D01*
X108614712Y-44784976D01*
X108638954Y-44751610D01*
X108731887Y-44569219D01*
X108795144Y-44374534D01*
X108799615Y-44346306D01*
X108814989Y-44249240D01*
X108827167Y-44172351D01*
X108827167Y-43967648D01*
X108795144Y-43765465D01*
X108763777Y-43668929D01*
X108743659Y-43607012D01*
X130780000Y-43607012D01*
X130780000Y-43820000D01*
X131704722Y-43820000D01*
X131660667Y-43896306D01*
X131630000Y-44010756D01*
X131630000Y-44129244D01*
X131660667Y-44243694D01*
X131704722Y-44320000D01*
X130780000Y-44320000D01*
X130780000Y-44532987D01*
X130786184Y-44611563D01*
X130786184Y-44611564D01*
X130835150Y-44794307D01*
X130921037Y-44962873D01*
X130921038Y-44962875D01*
X131040099Y-45109900D01*
X131187124Y-45228961D01*
X131187126Y-45228962D01*
X131355692Y-45314849D01*
X131538436Y-45363815D01*
X131617012Y-45369999D01*
X131617024Y-45370000D01*
X131830000Y-45370000D01*
X131830000Y-44445277D01*
X131906306Y-44489333D01*
X132020756Y-44520000D01*
X132139244Y-44520000D01*
X132253694Y-44489333D01*
X132330000Y-44445277D01*
X132330000Y-45370000D01*
X132542976Y-45370000D01*
X132542987Y-45369999D01*
X132621563Y-45363815D01*
X132621564Y-45363815D01*
X132804307Y-45314849D01*
X132972873Y-45228962D01*
X132972875Y-45228961D01*
X133119900Y-45109900D01*
X133238961Y-44962875D01*
X133238962Y-44962873D01*
X133321151Y-44801567D01*
X133369125Y-44750771D01*
X133436946Y-44733975D01*
X133503081Y-44756512D01*
X133531955Y-44784976D01*
X133628034Y-44917219D01*
X133772786Y-45061971D01*
X133927749Y-45174556D01*
X133938390Y-45182287D01*
X134029993Y-45228961D01*
X134120776Y-45275218D01*
X134120778Y-45275218D01*
X134120781Y-45275220D01*
X134225137Y-45309127D01*
X134315465Y-45338477D01*
X134416557Y-45354488D01*
X134517648Y-45370500D01*
X134517649Y-45370500D01*
X134722351Y-45370500D01*
X134722352Y-45370500D01*
X134924534Y-45338477D01*
X135119219Y-45275220D01*
X135301610Y-45182287D01*
X135409375Y-45103992D01*
X135467213Y-45061971D01*
X135467215Y-45061968D01*
X135467219Y-45061966D01*
X135611966Y-44917219D01*
X135611968Y-44917215D01*
X135611971Y-44917213D01*
X135708045Y-44784976D01*
X135732287Y-44751610D01*
X135825220Y-44569219D01*
X135888477Y-44374534D01*
X135892948Y-44346306D01*
X135908322Y-44249240D01*
X135920500Y-44172351D01*
X135920500Y-43967648D01*
X135888477Y-43765465D01*
X135857110Y-43668929D01*
X135836992Y-43607012D01*
X157873333Y-43607012D01*
X157873333Y-43820000D01*
X158798055Y-43820000D01*
X158754000Y-43896306D01*
X158723333Y-44010756D01*
X158723333Y-44129244D01*
X158754000Y-44243694D01*
X158798055Y-44320000D01*
X157873333Y-44320000D01*
X157873333Y-44532987D01*
X157879517Y-44611563D01*
X157879517Y-44611564D01*
X157928483Y-44794307D01*
X158014370Y-44962873D01*
X158014371Y-44962875D01*
X158133432Y-45109900D01*
X158280457Y-45228961D01*
X158280459Y-45228962D01*
X158449025Y-45314849D01*
X158631769Y-45363815D01*
X158710345Y-45369999D01*
X158710357Y-45370000D01*
X158923333Y-45370000D01*
X158923333Y-44445277D01*
X158999639Y-44489333D01*
X159114089Y-44520000D01*
X159232577Y-44520000D01*
X159347027Y-44489333D01*
X159423333Y-44445277D01*
X159423333Y-45370000D01*
X159636309Y-45370000D01*
X159636320Y-45369999D01*
X159714896Y-45363815D01*
X159714897Y-45363815D01*
X159897640Y-45314849D01*
X160066206Y-45228962D01*
X160066208Y-45228961D01*
X160213233Y-45109900D01*
X160332294Y-44962875D01*
X160332295Y-44962873D01*
X160414484Y-44801567D01*
X160462458Y-44750771D01*
X160530279Y-44733975D01*
X160596414Y-44756512D01*
X160625288Y-44784976D01*
X160721367Y-44917219D01*
X160866119Y-45061971D01*
X161021082Y-45174556D01*
X161031723Y-45182287D01*
X161123326Y-45228961D01*
X161214109Y-45275218D01*
X161214111Y-45275218D01*
X161214114Y-45275220D01*
X161318470Y-45309127D01*
X161408798Y-45338477D01*
X161509890Y-45354488D01*
X161610981Y-45370500D01*
X161610982Y-45370500D01*
X161815684Y-45370500D01*
X161815685Y-45370500D01*
X162017867Y-45338477D01*
X162212552Y-45275220D01*
X162394943Y-45182287D01*
X162502708Y-45103992D01*
X162560546Y-45061971D01*
X162560548Y-45061968D01*
X162560552Y-45061966D01*
X162705299Y-44917219D01*
X162705301Y-44917215D01*
X162705304Y-44917213D01*
X162801378Y-44784976D01*
X162825620Y-44751610D01*
X162918553Y-44569219D01*
X162981810Y-44374534D01*
X162986281Y-44346306D01*
X163001655Y-44249240D01*
X163013833Y-44172351D01*
X163013833Y-43967648D01*
X162981810Y-43765465D01*
X162950443Y-43668929D01*
X162930325Y-43607012D01*
X184966667Y-43607012D01*
X184966667Y-43820000D01*
X185891389Y-43820000D01*
X185847334Y-43896306D01*
X185816667Y-44010756D01*
X185816667Y-44129244D01*
X185847334Y-44243694D01*
X185891389Y-44320000D01*
X184966667Y-44320000D01*
X184966667Y-44532987D01*
X184972851Y-44611563D01*
X184972851Y-44611564D01*
X185021817Y-44794307D01*
X185107704Y-44962873D01*
X185107705Y-44962875D01*
X185226766Y-45109900D01*
X185373791Y-45228961D01*
X185373793Y-45228962D01*
X185542359Y-45314849D01*
X185725103Y-45363815D01*
X185803679Y-45369999D01*
X185803691Y-45370000D01*
X186016667Y-45370000D01*
X186016667Y-44445277D01*
X186092973Y-44489333D01*
X186207423Y-44520000D01*
X186325911Y-44520000D01*
X186440361Y-44489333D01*
X186516667Y-44445277D01*
X186516667Y-45370000D01*
X186729643Y-45370000D01*
X186729654Y-45369999D01*
X186808230Y-45363815D01*
X186808231Y-45363815D01*
X186990974Y-45314849D01*
X187159540Y-45228962D01*
X187159542Y-45228961D01*
X187306567Y-45109900D01*
X187425628Y-44962875D01*
X187425629Y-44962873D01*
X187507818Y-44801567D01*
X187555792Y-44750771D01*
X187623613Y-44733975D01*
X187689748Y-44756512D01*
X187718622Y-44784976D01*
X187814701Y-44917219D01*
X187959453Y-45061971D01*
X188114416Y-45174556D01*
X188125057Y-45182287D01*
X188216660Y-45228961D01*
X188307443Y-45275218D01*
X188307445Y-45275218D01*
X188307448Y-45275220D01*
X188411804Y-45309127D01*
X188502132Y-45338477D01*
X188603224Y-45354488D01*
X188704315Y-45370500D01*
X188704316Y-45370500D01*
X188909018Y-45370500D01*
X188909019Y-45370500D01*
X189111201Y-45338477D01*
X189305886Y-45275220D01*
X189488277Y-45182287D01*
X189596042Y-45103992D01*
X189653880Y-45061971D01*
X189653882Y-45061968D01*
X189653886Y-45061966D01*
X189798633Y-44917219D01*
X189798635Y-44917215D01*
X189798638Y-44917213D01*
X189894712Y-44784976D01*
X189918954Y-44751610D01*
X190011887Y-44569219D01*
X190075144Y-44374534D01*
X190079615Y-44346306D01*
X190094989Y-44249240D01*
X190107167Y-44172351D01*
X190107167Y-43967648D01*
X190075144Y-43765465D01*
X190043777Y-43668929D01*
X190023659Y-43607012D01*
X212060000Y-43607012D01*
X212060000Y-43820000D01*
X212984722Y-43820000D01*
X212940667Y-43896306D01*
X212910000Y-44010756D01*
X212910000Y-44129244D01*
X212940667Y-44243694D01*
X212984722Y-44320000D01*
X212060000Y-44320000D01*
X212060000Y-44532987D01*
X212066184Y-44611563D01*
X212066184Y-44611564D01*
X212115150Y-44794307D01*
X212201037Y-44962873D01*
X212201038Y-44962875D01*
X212320099Y-45109900D01*
X212467124Y-45228961D01*
X212467126Y-45228962D01*
X212635692Y-45314849D01*
X212818436Y-45363815D01*
X212897012Y-45369999D01*
X212897024Y-45370000D01*
X213110000Y-45370000D01*
X213110000Y-44445277D01*
X213186306Y-44489333D01*
X213300756Y-44520000D01*
X213419244Y-44520000D01*
X213533694Y-44489333D01*
X213610000Y-44445277D01*
X213610000Y-45370000D01*
X213822976Y-45370000D01*
X213822987Y-45369999D01*
X213901563Y-45363815D01*
X213901564Y-45363815D01*
X214084307Y-45314849D01*
X214252873Y-45228962D01*
X214252875Y-45228961D01*
X214399900Y-45109900D01*
X214518961Y-44962875D01*
X214518962Y-44962873D01*
X214601151Y-44801567D01*
X214649125Y-44750771D01*
X214716946Y-44733975D01*
X214783081Y-44756512D01*
X214811955Y-44784976D01*
X214908034Y-44917219D01*
X215052786Y-45061971D01*
X215207749Y-45174556D01*
X215218390Y-45182287D01*
X215309993Y-45228961D01*
X215400776Y-45275218D01*
X215400778Y-45275218D01*
X215400781Y-45275220D01*
X215505137Y-45309127D01*
X215595465Y-45338477D01*
X215696557Y-45354488D01*
X215797648Y-45370500D01*
X215797649Y-45370500D01*
X216002351Y-45370500D01*
X216002352Y-45370500D01*
X216204534Y-45338477D01*
X216399219Y-45275220D01*
X216581610Y-45182287D01*
X216689375Y-45103992D01*
X216747213Y-45061971D01*
X216747215Y-45061968D01*
X216747219Y-45061966D01*
X216891966Y-44917219D01*
X216891968Y-44917215D01*
X216891971Y-44917213D01*
X216988045Y-44784976D01*
X217012287Y-44751610D01*
X217105220Y-44569219D01*
X217168477Y-44374534D01*
X217172948Y-44346306D01*
X217188322Y-44249240D01*
X217200500Y-44172351D01*
X217200500Y-43967648D01*
X217168477Y-43765465D01*
X217137110Y-43668929D01*
X217116992Y-43607012D01*
X239153333Y-43607012D01*
X239153333Y-43820000D01*
X240078055Y-43820000D01*
X240034000Y-43896306D01*
X240003333Y-44010756D01*
X240003333Y-44129244D01*
X240034000Y-44243694D01*
X240078055Y-44320000D01*
X239153333Y-44320000D01*
X239153333Y-44532987D01*
X239159517Y-44611563D01*
X239159517Y-44611564D01*
X239208483Y-44794307D01*
X239294370Y-44962873D01*
X239294371Y-44962875D01*
X239413432Y-45109900D01*
X239560457Y-45228961D01*
X239560459Y-45228962D01*
X239729025Y-45314849D01*
X239911769Y-45363815D01*
X239990345Y-45369999D01*
X239990357Y-45370000D01*
X240203333Y-45370000D01*
X240203333Y-44445277D01*
X240279639Y-44489333D01*
X240394089Y-44520000D01*
X240512577Y-44520000D01*
X240627027Y-44489333D01*
X240703333Y-44445277D01*
X240703333Y-45370000D01*
X240916309Y-45370000D01*
X240916320Y-45369999D01*
X240994896Y-45363815D01*
X240994897Y-45363815D01*
X241177640Y-45314849D01*
X241346206Y-45228962D01*
X241346208Y-45228961D01*
X241493233Y-45109900D01*
X241612294Y-44962875D01*
X241612295Y-44962873D01*
X241694484Y-44801567D01*
X241742458Y-44750771D01*
X241810279Y-44733975D01*
X241876414Y-44756512D01*
X241905288Y-44784976D01*
X242001367Y-44917219D01*
X242146119Y-45061971D01*
X242301082Y-45174556D01*
X242311723Y-45182287D01*
X242403326Y-45228961D01*
X242494109Y-45275218D01*
X242494111Y-45275218D01*
X242494114Y-45275220D01*
X242598470Y-45309127D01*
X242688798Y-45338477D01*
X242789890Y-45354488D01*
X242890981Y-45370500D01*
X242890982Y-45370500D01*
X243095684Y-45370500D01*
X243095685Y-45370500D01*
X243297867Y-45338477D01*
X243492552Y-45275220D01*
X243674943Y-45182287D01*
X243782708Y-45103992D01*
X243840546Y-45061971D01*
X243840548Y-45061968D01*
X243840552Y-45061966D01*
X243985299Y-44917219D01*
X243985301Y-44917215D01*
X243985304Y-44917213D01*
X244081378Y-44784976D01*
X244105620Y-44751610D01*
X244198553Y-44569219D01*
X244261810Y-44374534D01*
X244266281Y-44346306D01*
X244281655Y-44249240D01*
X244293833Y-44172351D01*
X244293833Y-43967648D01*
X244261810Y-43765465D01*
X244230443Y-43668929D01*
X244210325Y-43607012D01*
X266246667Y-43607012D01*
X266246667Y-43820000D01*
X267171389Y-43820000D01*
X267127334Y-43896306D01*
X267096667Y-44010756D01*
X267096667Y-44129244D01*
X267127334Y-44243694D01*
X267171389Y-44320000D01*
X266246667Y-44320000D01*
X266246667Y-44532987D01*
X266252851Y-44611563D01*
X266252851Y-44611564D01*
X266301817Y-44794307D01*
X266387704Y-44962873D01*
X266387705Y-44962875D01*
X266506766Y-45109900D01*
X266653791Y-45228961D01*
X266653793Y-45228962D01*
X266822359Y-45314849D01*
X267005103Y-45363815D01*
X267083679Y-45369999D01*
X267083691Y-45370000D01*
X267296667Y-45370000D01*
X267296667Y-44445277D01*
X267372973Y-44489333D01*
X267487423Y-44520000D01*
X267605911Y-44520000D01*
X267720361Y-44489333D01*
X267796667Y-44445277D01*
X267796667Y-45370000D01*
X268009643Y-45370000D01*
X268009654Y-45369999D01*
X268088230Y-45363815D01*
X268088231Y-45363815D01*
X268270974Y-45314849D01*
X268439540Y-45228962D01*
X268439542Y-45228961D01*
X268586567Y-45109900D01*
X268705628Y-44962875D01*
X268705629Y-44962873D01*
X268787818Y-44801567D01*
X268835792Y-44750771D01*
X268903613Y-44733975D01*
X268969748Y-44756512D01*
X268998622Y-44784976D01*
X269094701Y-44917219D01*
X269239453Y-45061971D01*
X269394416Y-45174556D01*
X269405057Y-45182287D01*
X269496660Y-45228961D01*
X269587443Y-45275218D01*
X269587445Y-45275218D01*
X269587448Y-45275220D01*
X269691804Y-45309127D01*
X269782132Y-45338477D01*
X269883224Y-45354488D01*
X269984315Y-45370500D01*
X269984316Y-45370500D01*
X270189018Y-45370500D01*
X270189019Y-45370500D01*
X270391201Y-45338477D01*
X270585886Y-45275220D01*
X270768277Y-45182287D01*
X270876042Y-45103992D01*
X270933880Y-45061971D01*
X270933882Y-45061968D01*
X270933886Y-45061966D01*
X271078633Y-44917219D01*
X271078635Y-44917215D01*
X271078638Y-44917213D01*
X271174712Y-44784976D01*
X271198954Y-44751610D01*
X271291887Y-44569219D01*
X271355144Y-44374534D01*
X271359615Y-44346306D01*
X271374989Y-44249240D01*
X271387167Y-44172351D01*
X271387167Y-43967648D01*
X271355144Y-43765465D01*
X271323777Y-43668929D01*
X271303659Y-43607012D01*
X293340000Y-43607012D01*
X293340000Y-43820000D01*
X294264722Y-43820000D01*
X294220667Y-43896306D01*
X294190000Y-44010756D01*
X294190000Y-44129244D01*
X294220667Y-44243694D01*
X294264722Y-44320000D01*
X293340000Y-44320000D01*
X293340000Y-44532987D01*
X293346184Y-44611563D01*
X293346184Y-44611564D01*
X293395150Y-44794307D01*
X293481037Y-44962873D01*
X293481038Y-44962875D01*
X293600099Y-45109900D01*
X293747124Y-45228961D01*
X293747126Y-45228962D01*
X293915692Y-45314849D01*
X294098436Y-45363815D01*
X294177012Y-45369999D01*
X294177024Y-45370000D01*
X294390000Y-45370000D01*
X294390000Y-44445277D01*
X294466306Y-44489333D01*
X294580756Y-44520000D01*
X294699244Y-44520000D01*
X294813694Y-44489333D01*
X294890000Y-44445277D01*
X294890000Y-45370000D01*
X295102976Y-45370000D01*
X295102987Y-45369999D01*
X295181563Y-45363815D01*
X295181564Y-45363815D01*
X295364307Y-45314849D01*
X295532873Y-45228962D01*
X295532875Y-45228961D01*
X295679900Y-45109900D01*
X295798961Y-44962875D01*
X295798962Y-44962873D01*
X295881151Y-44801567D01*
X295929125Y-44750771D01*
X295996946Y-44733975D01*
X296063081Y-44756512D01*
X296091955Y-44784976D01*
X296188034Y-44917219D01*
X296332786Y-45061971D01*
X296487749Y-45174556D01*
X296498390Y-45182287D01*
X296589993Y-45228961D01*
X296680776Y-45275218D01*
X296680778Y-45275218D01*
X296680781Y-45275220D01*
X296785137Y-45309127D01*
X296875465Y-45338477D01*
X296976557Y-45354488D01*
X297077648Y-45370500D01*
X297077649Y-45370500D01*
X297282351Y-45370500D01*
X297282352Y-45370500D01*
X297484534Y-45338477D01*
X297679219Y-45275220D01*
X297861610Y-45182287D01*
X297969375Y-45103992D01*
X298027213Y-45061971D01*
X298027215Y-45061968D01*
X298027219Y-45061966D01*
X298171966Y-44917219D01*
X298171968Y-44917215D01*
X298171971Y-44917213D01*
X298268045Y-44784976D01*
X298292287Y-44751610D01*
X298385220Y-44569219D01*
X298448477Y-44374534D01*
X298452948Y-44346306D01*
X298468322Y-44249240D01*
X298480500Y-44172351D01*
X298480500Y-43967648D01*
X298448477Y-43765465D01*
X298417110Y-43668929D01*
X298396992Y-43607012D01*
X320433333Y-43607012D01*
X320433333Y-43820000D01*
X321358055Y-43820000D01*
X321314000Y-43896306D01*
X321283333Y-44010756D01*
X321283333Y-44129244D01*
X321314000Y-44243694D01*
X321358055Y-44320000D01*
X320433333Y-44320000D01*
X320433333Y-44532987D01*
X320439517Y-44611563D01*
X320439517Y-44611564D01*
X320488483Y-44794307D01*
X320574370Y-44962873D01*
X320574371Y-44962875D01*
X320693432Y-45109900D01*
X320840457Y-45228961D01*
X320840459Y-45228962D01*
X321009025Y-45314849D01*
X321191769Y-45363815D01*
X321270345Y-45369999D01*
X321270357Y-45370000D01*
X321483333Y-45370000D01*
X321483333Y-44445277D01*
X321559639Y-44489333D01*
X321674089Y-44520000D01*
X321792577Y-44520000D01*
X321907027Y-44489333D01*
X321983333Y-44445277D01*
X321983333Y-45370000D01*
X322196309Y-45370000D01*
X322196320Y-45369999D01*
X322274896Y-45363815D01*
X322274897Y-45363815D01*
X322457640Y-45314849D01*
X322626206Y-45228962D01*
X322626208Y-45228961D01*
X322773233Y-45109900D01*
X322892294Y-44962875D01*
X322892295Y-44962873D01*
X322974484Y-44801567D01*
X323022458Y-44750771D01*
X323090279Y-44733975D01*
X323156414Y-44756512D01*
X323185288Y-44784976D01*
X323281367Y-44917219D01*
X323426119Y-45061971D01*
X323581082Y-45174556D01*
X323591723Y-45182287D01*
X323683326Y-45228961D01*
X323774109Y-45275218D01*
X323774111Y-45275218D01*
X323774114Y-45275220D01*
X323878470Y-45309127D01*
X323968798Y-45338477D01*
X324069890Y-45354488D01*
X324170981Y-45370500D01*
X324170982Y-45370500D01*
X324375684Y-45370500D01*
X324375685Y-45370500D01*
X324577867Y-45338477D01*
X324772552Y-45275220D01*
X324954943Y-45182287D01*
X325062708Y-45103992D01*
X325120546Y-45061971D01*
X325120548Y-45061968D01*
X325120552Y-45061966D01*
X325265299Y-44917219D01*
X325265301Y-44917215D01*
X325265304Y-44917213D01*
X325361378Y-44784976D01*
X325385620Y-44751610D01*
X325478553Y-44569219D01*
X325541810Y-44374534D01*
X325546281Y-44346306D01*
X325561655Y-44249240D01*
X325573833Y-44172351D01*
X325573833Y-43967648D01*
X325541810Y-43765465D01*
X325510443Y-43668929D01*
X325490325Y-43607012D01*
X347526667Y-43607012D01*
X347526667Y-43820000D01*
X348451389Y-43820000D01*
X348407334Y-43896306D01*
X348376667Y-44010756D01*
X348376667Y-44129244D01*
X348407334Y-44243694D01*
X348451389Y-44320000D01*
X347526667Y-44320000D01*
X347526667Y-44532987D01*
X347532851Y-44611563D01*
X347532851Y-44611564D01*
X347581817Y-44794307D01*
X347667704Y-44962873D01*
X347667705Y-44962875D01*
X347786766Y-45109900D01*
X347933791Y-45228961D01*
X347933793Y-45228962D01*
X348102359Y-45314849D01*
X348285103Y-45363815D01*
X348363679Y-45369999D01*
X348363691Y-45370000D01*
X348576667Y-45370000D01*
X348576667Y-44445277D01*
X348652973Y-44489333D01*
X348767423Y-44520000D01*
X348885911Y-44520000D01*
X349000361Y-44489333D01*
X349076667Y-44445277D01*
X349076667Y-45370000D01*
X349289643Y-45370000D01*
X349289654Y-45369999D01*
X349368230Y-45363815D01*
X349368231Y-45363815D01*
X349550974Y-45314849D01*
X349719540Y-45228962D01*
X349719542Y-45228961D01*
X349866567Y-45109900D01*
X349985628Y-44962875D01*
X349985629Y-44962873D01*
X350067818Y-44801567D01*
X350115792Y-44750771D01*
X350183613Y-44733975D01*
X350249748Y-44756512D01*
X350278622Y-44784976D01*
X350374701Y-44917219D01*
X350519453Y-45061971D01*
X350674416Y-45174556D01*
X350685057Y-45182287D01*
X350776660Y-45228961D01*
X350867443Y-45275218D01*
X350867445Y-45275218D01*
X350867448Y-45275220D01*
X350971804Y-45309127D01*
X351062132Y-45338477D01*
X351163224Y-45354488D01*
X351264315Y-45370500D01*
X351264316Y-45370500D01*
X351469018Y-45370500D01*
X351469019Y-45370500D01*
X351671201Y-45338477D01*
X351865886Y-45275220D01*
X352048277Y-45182287D01*
X352156042Y-45103992D01*
X352213880Y-45061971D01*
X352213882Y-45061968D01*
X352213886Y-45061966D01*
X352358633Y-44917219D01*
X352358635Y-44917215D01*
X352358638Y-44917213D01*
X352454712Y-44784976D01*
X352478954Y-44751610D01*
X352571887Y-44569219D01*
X352635144Y-44374534D01*
X352639615Y-44346306D01*
X352654989Y-44249240D01*
X352667167Y-44172351D01*
X352667167Y-43967648D01*
X352635144Y-43765465D01*
X352603777Y-43668929D01*
X352583659Y-43607012D01*
X374620000Y-43607012D01*
X374620000Y-43820000D01*
X375544722Y-43820000D01*
X375500667Y-43896306D01*
X375470000Y-44010756D01*
X375470000Y-44129244D01*
X375500667Y-44243694D01*
X375544722Y-44320000D01*
X374620000Y-44320000D01*
X374620000Y-44532987D01*
X374626184Y-44611563D01*
X374626184Y-44611564D01*
X374675150Y-44794307D01*
X374761037Y-44962873D01*
X374761038Y-44962875D01*
X374880099Y-45109900D01*
X375027124Y-45228961D01*
X375027126Y-45228962D01*
X375195692Y-45314849D01*
X375378436Y-45363815D01*
X375457012Y-45369999D01*
X375457024Y-45370000D01*
X375670000Y-45370000D01*
X375670000Y-44445277D01*
X375746306Y-44489333D01*
X375860756Y-44520000D01*
X375979244Y-44520000D01*
X376093694Y-44489333D01*
X376170000Y-44445277D01*
X376170000Y-45370000D01*
X376382976Y-45370000D01*
X376382987Y-45369999D01*
X376461563Y-45363815D01*
X376461564Y-45363815D01*
X376644307Y-45314849D01*
X376812873Y-45228962D01*
X376812875Y-45228961D01*
X376959900Y-45109900D01*
X377078961Y-44962875D01*
X377078962Y-44962873D01*
X377161151Y-44801567D01*
X377209125Y-44750771D01*
X377276946Y-44733975D01*
X377343081Y-44756512D01*
X377371955Y-44784976D01*
X377468034Y-44917219D01*
X377612786Y-45061971D01*
X377767749Y-45174556D01*
X377778390Y-45182287D01*
X377869993Y-45228961D01*
X377960776Y-45275218D01*
X377960778Y-45275218D01*
X377960781Y-45275220D01*
X378065137Y-45309127D01*
X378155465Y-45338477D01*
X378256557Y-45354488D01*
X378357648Y-45370500D01*
X378357649Y-45370500D01*
X378562351Y-45370500D01*
X378562352Y-45370500D01*
X378764534Y-45338477D01*
X378959219Y-45275220D01*
X379141610Y-45182287D01*
X379249375Y-45103992D01*
X379307213Y-45061971D01*
X379307215Y-45061968D01*
X379307219Y-45061966D01*
X379451966Y-44917219D01*
X379451968Y-44917215D01*
X379451971Y-44917213D01*
X379548045Y-44784976D01*
X379572287Y-44751610D01*
X379665220Y-44569219D01*
X379728477Y-44374534D01*
X379732948Y-44346306D01*
X379748322Y-44249240D01*
X379760500Y-44172351D01*
X379760500Y-43967648D01*
X379728477Y-43765465D01*
X379697110Y-43668929D01*
X379676992Y-43607012D01*
X401713333Y-43607012D01*
X401713333Y-43820000D01*
X402638055Y-43820000D01*
X402594000Y-43896306D01*
X402563333Y-44010756D01*
X402563333Y-44129244D01*
X402594000Y-44243694D01*
X402638055Y-44320000D01*
X401713333Y-44320000D01*
X401713333Y-44532987D01*
X401719517Y-44611563D01*
X401719517Y-44611564D01*
X401768483Y-44794307D01*
X401854370Y-44962873D01*
X401854371Y-44962875D01*
X401973432Y-45109900D01*
X402120457Y-45228961D01*
X402120459Y-45228962D01*
X402289025Y-45314849D01*
X402471769Y-45363815D01*
X402550345Y-45369999D01*
X402550357Y-45370000D01*
X402763333Y-45370000D01*
X402763333Y-44445277D01*
X402839639Y-44489333D01*
X402954089Y-44520000D01*
X403072577Y-44520000D01*
X403187027Y-44489333D01*
X403263333Y-44445277D01*
X403263333Y-45370000D01*
X403476309Y-45370000D01*
X403476320Y-45369999D01*
X403554896Y-45363815D01*
X403554897Y-45363815D01*
X403737640Y-45314849D01*
X403906206Y-45228962D01*
X403906208Y-45228961D01*
X404053233Y-45109900D01*
X404172294Y-44962875D01*
X404172295Y-44962873D01*
X404254484Y-44801567D01*
X404302458Y-44750771D01*
X404370279Y-44733975D01*
X404436414Y-44756512D01*
X404465288Y-44784976D01*
X404561367Y-44917219D01*
X404706119Y-45061971D01*
X404861082Y-45174556D01*
X404871723Y-45182287D01*
X404963326Y-45228961D01*
X405054109Y-45275218D01*
X405054111Y-45275218D01*
X405054114Y-45275220D01*
X405158470Y-45309127D01*
X405248798Y-45338477D01*
X405349890Y-45354488D01*
X405450981Y-45370500D01*
X405450982Y-45370500D01*
X405655684Y-45370500D01*
X405655685Y-45370500D01*
X405857867Y-45338477D01*
X406052552Y-45275220D01*
X406234943Y-45182287D01*
X406342708Y-45103992D01*
X406400546Y-45061971D01*
X406400548Y-45061968D01*
X406400552Y-45061966D01*
X406545299Y-44917219D01*
X406545301Y-44917215D01*
X406545304Y-44917213D01*
X406641378Y-44784976D01*
X406665620Y-44751610D01*
X406758553Y-44569219D01*
X406821810Y-44374534D01*
X406826281Y-44346306D01*
X406841655Y-44249240D01*
X406853833Y-44172351D01*
X406853833Y-43967648D01*
X406821810Y-43765465D01*
X406790443Y-43668929D01*
X406770325Y-43607012D01*
X428806667Y-43607012D01*
X428806667Y-43820000D01*
X429731389Y-43820000D01*
X429687334Y-43896306D01*
X429656667Y-44010756D01*
X429656667Y-44129244D01*
X429687334Y-44243694D01*
X429731389Y-44320000D01*
X428806667Y-44320000D01*
X428806667Y-44532987D01*
X428812851Y-44611563D01*
X428812851Y-44611564D01*
X428861817Y-44794307D01*
X428947704Y-44962873D01*
X428947705Y-44962875D01*
X429066766Y-45109900D01*
X429213791Y-45228961D01*
X429213793Y-45228962D01*
X429382359Y-45314849D01*
X429565103Y-45363815D01*
X429643679Y-45369999D01*
X429643691Y-45370000D01*
X429856667Y-45370000D01*
X429856667Y-44445277D01*
X429932973Y-44489333D01*
X430047423Y-44520000D01*
X430165911Y-44520000D01*
X430280361Y-44489333D01*
X430356667Y-44445277D01*
X430356667Y-45370000D01*
X430569643Y-45370000D01*
X430569654Y-45369999D01*
X430648230Y-45363815D01*
X430648231Y-45363815D01*
X430830974Y-45314849D01*
X430999540Y-45228962D01*
X430999542Y-45228961D01*
X431146567Y-45109900D01*
X431265628Y-44962875D01*
X431265629Y-44962873D01*
X431347818Y-44801567D01*
X431395792Y-44750771D01*
X431463613Y-44733975D01*
X431529748Y-44756512D01*
X431558622Y-44784976D01*
X431654701Y-44917219D01*
X431799453Y-45061971D01*
X431954416Y-45174556D01*
X431965057Y-45182287D01*
X432056660Y-45228961D01*
X432147443Y-45275218D01*
X432147445Y-45275218D01*
X432147448Y-45275220D01*
X432251804Y-45309127D01*
X432342132Y-45338477D01*
X432443224Y-45354488D01*
X432544315Y-45370500D01*
X432544316Y-45370500D01*
X432749018Y-45370500D01*
X432749019Y-45370500D01*
X432951201Y-45338477D01*
X433145886Y-45275220D01*
X433328277Y-45182287D01*
X433436042Y-45103992D01*
X433493880Y-45061971D01*
X433493882Y-45061968D01*
X433493886Y-45061966D01*
X433638633Y-44917219D01*
X433638635Y-44917215D01*
X433638638Y-44917213D01*
X433734712Y-44784976D01*
X433758954Y-44751610D01*
X433851887Y-44569219D01*
X433915144Y-44374534D01*
X433919615Y-44346306D01*
X433934989Y-44249240D01*
X433947167Y-44172351D01*
X433947167Y-43967648D01*
X433915144Y-43765465D01*
X433883777Y-43668929D01*
X433863659Y-43607012D01*
X455900000Y-43607012D01*
X455900000Y-43820000D01*
X456824722Y-43820000D01*
X456780667Y-43896306D01*
X456750000Y-44010756D01*
X456750000Y-44129244D01*
X456780667Y-44243694D01*
X456824722Y-44320000D01*
X455900000Y-44320000D01*
X455900000Y-44532987D01*
X455906184Y-44611563D01*
X455906184Y-44611564D01*
X455955150Y-44794307D01*
X456041037Y-44962873D01*
X456041038Y-44962875D01*
X456160099Y-45109900D01*
X456307124Y-45228961D01*
X456307126Y-45228962D01*
X456475692Y-45314849D01*
X456658436Y-45363815D01*
X456737012Y-45369999D01*
X456737024Y-45370000D01*
X456950000Y-45370000D01*
X456950000Y-44445277D01*
X457026306Y-44489333D01*
X457140756Y-44520000D01*
X457259244Y-44520000D01*
X457373694Y-44489333D01*
X457450000Y-44445277D01*
X457450000Y-45370000D01*
X457662976Y-45370000D01*
X457662987Y-45369999D01*
X457741563Y-45363815D01*
X457741564Y-45363815D01*
X457924307Y-45314849D01*
X458092873Y-45228962D01*
X458092875Y-45228961D01*
X458239900Y-45109900D01*
X458358961Y-44962875D01*
X458358962Y-44962873D01*
X458441151Y-44801567D01*
X458489125Y-44750771D01*
X458556946Y-44733975D01*
X458623081Y-44756512D01*
X458651955Y-44784976D01*
X458748034Y-44917219D01*
X458892786Y-45061971D01*
X459047749Y-45174556D01*
X459058390Y-45182287D01*
X459149993Y-45228961D01*
X459240776Y-45275218D01*
X459240778Y-45275218D01*
X459240781Y-45275220D01*
X459345137Y-45309127D01*
X459435465Y-45338477D01*
X459536557Y-45354488D01*
X459637648Y-45370500D01*
X459637649Y-45370500D01*
X459842351Y-45370500D01*
X459842352Y-45370500D01*
X460044534Y-45338477D01*
X460239219Y-45275220D01*
X460421610Y-45182287D01*
X460529375Y-45103992D01*
X460587213Y-45061971D01*
X460587215Y-45061968D01*
X460587219Y-45061966D01*
X460731966Y-44917219D01*
X460731968Y-44917215D01*
X460731971Y-44917213D01*
X460828045Y-44784976D01*
X460852287Y-44751610D01*
X460945220Y-44569219D01*
X461008477Y-44374534D01*
X461040500Y-44172352D01*
X461040500Y-43967648D01*
X461029153Y-43896008D01*
X461008477Y-43765465D01*
X460977110Y-43668929D01*
X460945220Y-43570781D01*
X460945218Y-43570778D01*
X460945218Y-43570776D01*
X460886772Y-43456071D01*
X460852287Y-43388390D01*
X460828045Y-43355023D01*
X460731971Y-43222786D01*
X460587213Y-43078028D01*
X460421613Y-42957715D01*
X460421612Y-42957714D01*
X460421610Y-42957713D01*
X460364653Y-42928691D01*
X460239223Y-42864781D01*
X460044534Y-42801522D01*
X459869995Y-42773878D01*
X459842352Y-42769500D01*
X459637648Y-42769500D01*
X459613329Y-42773351D01*
X459435465Y-42801522D01*
X459240776Y-42864781D01*
X459058386Y-42957715D01*
X458892786Y-43078028D01*
X458748032Y-43222782D01*
X458748028Y-43222787D01*
X458651954Y-43355023D01*
X458596624Y-43397689D01*
X458527011Y-43403668D01*
X458465216Y-43371063D01*
X458441151Y-43338432D01*
X458358962Y-43177126D01*
X458358961Y-43177124D01*
X458239900Y-43030099D01*
X458092875Y-42911038D01*
X458092873Y-42911037D01*
X457924307Y-42825150D01*
X457741563Y-42776184D01*
X457662987Y-42770000D01*
X457450000Y-42770000D01*
X457450000Y-43694722D01*
X457373694Y-43650667D01*
X457259244Y-43620000D01*
X457140756Y-43620000D01*
X457026306Y-43650667D01*
X456950000Y-43694722D01*
X456950000Y-42770000D01*
X456737012Y-42770000D01*
X456658436Y-42776184D01*
X456658435Y-42776184D01*
X456475692Y-42825150D01*
X456307126Y-42911037D01*
X456307124Y-42911038D01*
X456160099Y-43030099D01*
X456041038Y-43177124D01*
X456041037Y-43177126D01*
X455955150Y-43345692D01*
X455906184Y-43528435D01*
X455906184Y-43528436D01*
X455900000Y-43607012D01*
X433863659Y-43607012D01*
X433851887Y-43570781D01*
X433758954Y-43388390D01*
X433734712Y-43355023D01*
X433638638Y-43222786D01*
X433493880Y-43078028D01*
X433328280Y-42957715D01*
X433328279Y-42957714D01*
X433328277Y-42957713D01*
X433271320Y-42928691D01*
X433145890Y-42864781D01*
X432951201Y-42801522D01*
X432776662Y-42773878D01*
X432749019Y-42769500D01*
X432544315Y-42769500D01*
X432519996Y-42773351D01*
X432342132Y-42801522D01*
X432147443Y-42864781D01*
X431965053Y-42957715D01*
X431799453Y-43078028D01*
X431654699Y-43222782D01*
X431654695Y-43222787D01*
X431558621Y-43355023D01*
X431503291Y-43397689D01*
X431433678Y-43403668D01*
X431371883Y-43371063D01*
X431347818Y-43338432D01*
X431265629Y-43177126D01*
X431265628Y-43177124D01*
X431146567Y-43030099D01*
X430999542Y-42911038D01*
X430999540Y-42911037D01*
X430830974Y-42825150D01*
X430648230Y-42776184D01*
X430569654Y-42770000D01*
X430356667Y-42770000D01*
X430356667Y-43694722D01*
X430280361Y-43650667D01*
X430165911Y-43620000D01*
X430047423Y-43620000D01*
X429932973Y-43650667D01*
X429856667Y-43694722D01*
X429856667Y-42770000D01*
X429643679Y-42770000D01*
X429565103Y-42776184D01*
X429565102Y-42776184D01*
X429382359Y-42825150D01*
X429213793Y-42911037D01*
X429213791Y-42911038D01*
X429066766Y-43030099D01*
X428947705Y-43177124D01*
X428947704Y-43177126D01*
X428861817Y-43345692D01*
X428812851Y-43528435D01*
X428812851Y-43528436D01*
X428806667Y-43607012D01*
X406770325Y-43607012D01*
X406758553Y-43570781D01*
X406665620Y-43388390D01*
X406641378Y-43355023D01*
X406545304Y-43222786D01*
X406400546Y-43078028D01*
X406234946Y-42957715D01*
X406234945Y-42957714D01*
X406234943Y-42957713D01*
X406177986Y-42928691D01*
X406052556Y-42864781D01*
X405857867Y-42801522D01*
X405683328Y-42773878D01*
X405655685Y-42769500D01*
X405450981Y-42769500D01*
X405426662Y-42773351D01*
X405248798Y-42801522D01*
X405054109Y-42864781D01*
X404871719Y-42957715D01*
X404706119Y-43078028D01*
X404561365Y-43222782D01*
X404561361Y-43222787D01*
X404465287Y-43355023D01*
X404409957Y-43397689D01*
X404340344Y-43403668D01*
X404278549Y-43371063D01*
X404254484Y-43338432D01*
X404172295Y-43177126D01*
X404172294Y-43177124D01*
X404053233Y-43030099D01*
X403906208Y-42911038D01*
X403906206Y-42911037D01*
X403737640Y-42825150D01*
X403554896Y-42776184D01*
X403476320Y-42770000D01*
X403263333Y-42770000D01*
X403263333Y-43694722D01*
X403187027Y-43650667D01*
X403072577Y-43620000D01*
X402954089Y-43620000D01*
X402839639Y-43650667D01*
X402763333Y-43694722D01*
X402763333Y-42770000D01*
X402550345Y-42770000D01*
X402471769Y-42776184D01*
X402471768Y-42776184D01*
X402289025Y-42825150D01*
X402120459Y-42911037D01*
X402120457Y-42911038D01*
X401973432Y-43030099D01*
X401854371Y-43177124D01*
X401854370Y-43177126D01*
X401768483Y-43345692D01*
X401719517Y-43528435D01*
X401719517Y-43528436D01*
X401713333Y-43607012D01*
X379676992Y-43607012D01*
X379665220Y-43570781D01*
X379572287Y-43388390D01*
X379548045Y-43355023D01*
X379451971Y-43222786D01*
X379307213Y-43078028D01*
X379141613Y-42957715D01*
X379141612Y-42957714D01*
X379141610Y-42957713D01*
X379084653Y-42928691D01*
X378959223Y-42864781D01*
X378764534Y-42801522D01*
X378589995Y-42773878D01*
X378562352Y-42769500D01*
X378357648Y-42769500D01*
X378333329Y-42773351D01*
X378155465Y-42801522D01*
X377960776Y-42864781D01*
X377778386Y-42957715D01*
X377612786Y-43078028D01*
X377468032Y-43222782D01*
X377468028Y-43222787D01*
X377371954Y-43355023D01*
X377316624Y-43397689D01*
X377247011Y-43403668D01*
X377185216Y-43371063D01*
X377161151Y-43338432D01*
X377078962Y-43177126D01*
X377078961Y-43177124D01*
X376959900Y-43030099D01*
X376812875Y-42911038D01*
X376812873Y-42911037D01*
X376644307Y-42825150D01*
X376461563Y-42776184D01*
X376382987Y-42770000D01*
X376170000Y-42770000D01*
X376170000Y-43694722D01*
X376093694Y-43650667D01*
X375979244Y-43620000D01*
X375860756Y-43620000D01*
X375746306Y-43650667D01*
X375670000Y-43694722D01*
X375670000Y-42770000D01*
X375457012Y-42770000D01*
X375378436Y-42776184D01*
X375378435Y-42776184D01*
X375195692Y-42825150D01*
X375027126Y-42911037D01*
X375027124Y-42911038D01*
X374880099Y-43030099D01*
X374761038Y-43177124D01*
X374761037Y-43177126D01*
X374675150Y-43345692D01*
X374626184Y-43528435D01*
X374626184Y-43528436D01*
X374620000Y-43607012D01*
X352583659Y-43607012D01*
X352571887Y-43570781D01*
X352478954Y-43388390D01*
X352454712Y-43355023D01*
X352358638Y-43222786D01*
X352213880Y-43078028D01*
X352048280Y-42957715D01*
X352048279Y-42957714D01*
X352048277Y-42957713D01*
X351991320Y-42928691D01*
X351865890Y-42864781D01*
X351671201Y-42801522D01*
X351496662Y-42773878D01*
X351469019Y-42769500D01*
X351264315Y-42769500D01*
X351239996Y-42773351D01*
X351062132Y-42801522D01*
X350867443Y-42864781D01*
X350685053Y-42957715D01*
X350519453Y-43078028D01*
X350374699Y-43222782D01*
X350374695Y-43222787D01*
X350278621Y-43355023D01*
X350223291Y-43397689D01*
X350153678Y-43403668D01*
X350091883Y-43371063D01*
X350067818Y-43338432D01*
X349985629Y-43177126D01*
X349985628Y-43177124D01*
X349866567Y-43030099D01*
X349719542Y-42911038D01*
X349719540Y-42911037D01*
X349550974Y-42825150D01*
X349368230Y-42776184D01*
X349289654Y-42770000D01*
X349076667Y-42770000D01*
X349076667Y-43694722D01*
X349000361Y-43650667D01*
X348885911Y-43620000D01*
X348767423Y-43620000D01*
X348652973Y-43650667D01*
X348576667Y-43694722D01*
X348576667Y-42770000D01*
X348363679Y-42770000D01*
X348285103Y-42776184D01*
X348285102Y-42776184D01*
X348102359Y-42825150D01*
X347933793Y-42911037D01*
X347933791Y-42911038D01*
X347786766Y-43030099D01*
X347667705Y-43177124D01*
X347667704Y-43177126D01*
X347581817Y-43345692D01*
X347532851Y-43528435D01*
X347532851Y-43528436D01*
X347526667Y-43607012D01*
X325490325Y-43607012D01*
X325478553Y-43570781D01*
X325385620Y-43388390D01*
X325361378Y-43355023D01*
X325265304Y-43222786D01*
X325120546Y-43078028D01*
X324954946Y-42957715D01*
X324954945Y-42957714D01*
X324954943Y-42957713D01*
X324897986Y-42928691D01*
X324772556Y-42864781D01*
X324577867Y-42801522D01*
X324403328Y-42773878D01*
X324375685Y-42769500D01*
X324170981Y-42769500D01*
X324146662Y-42773351D01*
X323968798Y-42801522D01*
X323774109Y-42864781D01*
X323591719Y-42957715D01*
X323426119Y-43078028D01*
X323281365Y-43222782D01*
X323281361Y-43222787D01*
X323185287Y-43355023D01*
X323129957Y-43397689D01*
X323060344Y-43403668D01*
X322998549Y-43371063D01*
X322974484Y-43338432D01*
X322892295Y-43177126D01*
X322892294Y-43177124D01*
X322773233Y-43030099D01*
X322626208Y-42911038D01*
X322626206Y-42911037D01*
X322457640Y-42825150D01*
X322274896Y-42776184D01*
X322196320Y-42770000D01*
X321983333Y-42770000D01*
X321983333Y-43694722D01*
X321907027Y-43650667D01*
X321792577Y-43620000D01*
X321674089Y-43620000D01*
X321559639Y-43650667D01*
X321483333Y-43694722D01*
X321483333Y-42770000D01*
X321270345Y-42770000D01*
X321191769Y-42776184D01*
X321191768Y-42776184D01*
X321009025Y-42825150D01*
X320840459Y-42911037D01*
X320840457Y-42911038D01*
X320693432Y-43030099D01*
X320574371Y-43177124D01*
X320574370Y-43177126D01*
X320488483Y-43345692D01*
X320439517Y-43528435D01*
X320439517Y-43528436D01*
X320433333Y-43607012D01*
X298396992Y-43607012D01*
X298385220Y-43570781D01*
X298292287Y-43388390D01*
X298268045Y-43355023D01*
X298171971Y-43222786D01*
X298027213Y-43078028D01*
X297861613Y-42957715D01*
X297861612Y-42957714D01*
X297861610Y-42957713D01*
X297804653Y-42928691D01*
X297679223Y-42864781D01*
X297484534Y-42801522D01*
X297309995Y-42773878D01*
X297282352Y-42769500D01*
X297077648Y-42769500D01*
X297053329Y-42773351D01*
X296875465Y-42801522D01*
X296680776Y-42864781D01*
X296498386Y-42957715D01*
X296332786Y-43078028D01*
X296188032Y-43222782D01*
X296188028Y-43222787D01*
X296091954Y-43355023D01*
X296036624Y-43397689D01*
X295967011Y-43403668D01*
X295905216Y-43371063D01*
X295881151Y-43338432D01*
X295798962Y-43177126D01*
X295798961Y-43177124D01*
X295679900Y-43030099D01*
X295532875Y-42911038D01*
X295532873Y-42911037D01*
X295364307Y-42825150D01*
X295181563Y-42776184D01*
X295102987Y-42770000D01*
X294890000Y-42770000D01*
X294890000Y-43694722D01*
X294813694Y-43650667D01*
X294699244Y-43620000D01*
X294580756Y-43620000D01*
X294466306Y-43650667D01*
X294390000Y-43694722D01*
X294390000Y-42770000D01*
X294177012Y-42770000D01*
X294098436Y-42776184D01*
X294098435Y-42776184D01*
X293915692Y-42825150D01*
X293747126Y-42911037D01*
X293747124Y-42911038D01*
X293600099Y-43030099D01*
X293481038Y-43177124D01*
X293481037Y-43177126D01*
X293395150Y-43345692D01*
X293346184Y-43528435D01*
X293346184Y-43528436D01*
X293340000Y-43607012D01*
X271303659Y-43607012D01*
X271291887Y-43570781D01*
X271198954Y-43388390D01*
X271174712Y-43355023D01*
X271078638Y-43222786D01*
X270933880Y-43078028D01*
X270768280Y-42957715D01*
X270768279Y-42957714D01*
X270768277Y-42957713D01*
X270711320Y-42928691D01*
X270585890Y-42864781D01*
X270391201Y-42801522D01*
X270216662Y-42773878D01*
X270189019Y-42769500D01*
X269984315Y-42769500D01*
X269959996Y-42773351D01*
X269782132Y-42801522D01*
X269587443Y-42864781D01*
X269405053Y-42957715D01*
X269239453Y-43078028D01*
X269094699Y-43222782D01*
X269094695Y-43222787D01*
X268998621Y-43355023D01*
X268943291Y-43397689D01*
X268873678Y-43403668D01*
X268811883Y-43371063D01*
X268787818Y-43338432D01*
X268705629Y-43177126D01*
X268705628Y-43177124D01*
X268586567Y-43030099D01*
X268439542Y-42911038D01*
X268439540Y-42911037D01*
X268270974Y-42825150D01*
X268088230Y-42776184D01*
X268009654Y-42770000D01*
X267796667Y-42770000D01*
X267796667Y-43694722D01*
X267720361Y-43650667D01*
X267605911Y-43620000D01*
X267487423Y-43620000D01*
X267372973Y-43650667D01*
X267296667Y-43694722D01*
X267296667Y-42770000D01*
X267083679Y-42770000D01*
X267005103Y-42776184D01*
X267005102Y-42776184D01*
X266822359Y-42825150D01*
X266653793Y-42911037D01*
X266653791Y-42911038D01*
X266506766Y-43030099D01*
X266387705Y-43177124D01*
X266387704Y-43177126D01*
X266301817Y-43345692D01*
X266252851Y-43528435D01*
X266252851Y-43528436D01*
X266246667Y-43607012D01*
X244210325Y-43607012D01*
X244198553Y-43570781D01*
X244105620Y-43388390D01*
X244081378Y-43355023D01*
X243985304Y-43222786D01*
X243840546Y-43078028D01*
X243674946Y-42957715D01*
X243674945Y-42957714D01*
X243674943Y-42957713D01*
X243617986Y-42928691D01*
X243492556Y-42864781D01*
X243297867Y-42801522D01*
X243123328Y-42773878D01*
X243095685Y-42769500D01*
X242890981Y-42769500D01*
X242866662Y-42773351D01*
X242688798Y-42801522D01*
X242494109Y-42864781D01*
X242311719Y-42957715D01*
X242146119Y-43078028D01*
X242001365Y-43222782D01*
X242001361Y-43222787D01*
X241905287Y-43355023D01*
X241849957Y-43397689D01*
X241780344Y-43403668D01*
X241718549Y-43371063D01*
X241694484Y-43338432D01*
X241612295Y-43177126D01*
X241612294Y-43177124D01*
X241493233Y-43030099D01*
X241346208Y-42911038D01*
X241346206Y-42911037D01*
X241177640Y-42825150D01*
X240994896Y-42776184D01*
X240916320Y-42770000D01*
X240703333Y-42770000D01*
X240703333Y-43694722D01*
X240627027Y-43650667D01*
X240512577Y-43620000D01*
X240394089Y-43620000D01*
X240279639Y-43650667D01*
X240203333Y-43694722D01*
X240203333Y-42770000D01*
X239990345Y-42770000D01*
X239911769Y-42776184D01*
X239911768Y-42776184D01*
X239729025Y-42825150D01*
X239560459Y-42911037D01*
X239560457Y-42911038D01*
X239413432Y-43030099D01*
X239294371Y-43177124D01*
X239294370Y-43177126D01*
X239208483Y-43345692D01*
X239159517Y-43528435D01*
X239159517Y-43528436D01*
X239153333Y-43607012D01*
X217116992Y-43607012D01*
X217105220Y-43570781D01*
X217012287Y-43388390D01*
X216988045Y-43355023D01*
X216891971Y-43222786D01*
X216747213Y-43078028D01*
X216581613Y-42957715D01*
X216581612Y-42957714D01*
X216581610Y-42957713D01*
X216524653Y-42928691D01*
X216399223Y-42864781D01*
X216204534Y-42801522D01*
X216029995Y-42773878D01*
X216002352Y-42769500D01*
X215797648Y-42769500D01*
X215773329Y-42773351D01*
X215595465Y-42801522D01*
X215400776Y-42864781D01*
X215218386Y-42957715D01*
X215052786Y-43078028D01*
X214908032Y-43222782D01*
X214908028Y-43222787D01*
X214811954Y-43355023D01*
X214756624Y-43397689D01*
X214687011Y-43403668D01*
X214625216Y-43371063D01*
X214601151Y-43338432D01*
X214518962Y-43177126D01*
X214518961Y-43177124D01*
X214399900Y-43030099D01*
X214252875Y-42911038D01*
X214252873Y-42911037D01*
X214084307Y-42825150D01*
X213901563Y-42776184D01*
X213822987Y-42770000D01*
X213610000Y-42770000D01*
X213610000Y-43694722D01*
X213533694Y-43650667D01*
X213419244Y-43620000D01*
X213300756Y-43620000D01*
X213186306Y-43650667D01*
X213110000Y-43694722D01*
X213110000Y-42770000D01*
X212897012Y-42770000D01*
X212818436Y-42776184D01*
X212818435Y-42776184D01*
X212635692Y-42825150D01*
X212467126Y-42911037D01*
X212467124Y-42911038D01*
X212320099Y-43030099D01*
X212201038Y-43177124D01*
X212201037Y-43177126D01*
X212115150Y-43345692D01*
X212066184Y-43528435D01*
X212066184Y-43528436D01*
X212060000Y-43607012D01*
X190023659Y-43607012D01*
X190011887Y-43570781D01*
X189918954Y-43388390D01*
X189894712Y-43355023D01*
X189798638Y-43222786D01*
X189653880Y-43078028D01*
X189488280Y-42957715D01*
X189488279Y-42957714D01*
X189488277Y-42957713D01*
X189431320Y-42928691D01*
X189305890Y-42864781D01*
X189111201Y-42801522D01*
X188936662Y-42773878D01*
X188909019Y-42769500D01*
X188704315Y-42769500D01*
X188679996Y-42773351D01*
X188502132Y-42801522D01*
X188307443Y-42864781D01*
X188125053Y-42957715D01*
X187959453Y-43078028D01*
X187814699Y-43222782D01*
X187814695Y-43222787D01*
X187718621Y-43355023D01*
X187663291Y-43397689D01*
X187593678Y-43403668D01*
X187531883Y-43371063D01*
X187507818Y-43338432D01*
X187425629Y-43177126D01*
X187425628Y-43177124D01*
X187306567Y-43030099D01*
X187159542Y-42911038D01*
X187159540Y-42911037D01*
X186990974Y-42825150D01*
X186808230Y-42776184D01*
X186729654Y-42770000D01*
X186516667Y-42770000D01*
X186516667Y-43694722D01*
X186440361Y-43650667D01*
X186325911Y-43620000D01*
X186207423Y-43620000D01*
X186092973Y-43650667D01*
X186016667Y-43694722D01*
X186016667Y-42770000D01*
X185803679Y-42770000D01*
X185725103Y-42776184D01*
X185725102Y-42776184D01*
X185542359Y-42825150D01*
X185373793Y-42911037D01*
X185373791Y-42911038D01*
X185226766Y-43030099D01*
X185107705Y-43177124D01*
X185107704Y-43177126D01*
X185021817Y-43345692D01*
X184972851Y-43528435D01*
X184972851Y-43528436D01*
X184966667Y-43607012D01*
X162930325Y-43607012D01*
X162918553Y-43570781D01*
X162825620Y-43388390D01*
X162801378Y-43355023D01*
X162705304Y-43222786D01*
X162560546Y-43078028D01*
X162394946Y-42957715D01*
X162394945Y-42957714D01*
X162394943Y-42957713D01*
X162337986Y-42928691D01*
X162212556Y-42864781D01*
X162017867Y-42801522D01*
X161843328Y-42773878D01*
X161815685Y-42769500D01*
X161610981Y-42769500D01*
X161586662Y-42773351D01*
X161408798Y-42801522D01*
X161214109Y-42864781D01*
X161031719Y-42957715D01*
X160866119Y-43078028D01*
X160721365Y-43222782D01*
X160721361Y-43222787D01*
X160625287Y-43355023D01*
X160569957Y-43397689D01*
X160500344Y-43403668D01*
X160438549Y-43371063D01*
X160414484Y-43338432D01*
X160332295Y-43177126D01*
X160332294Y-43177124D01*
X160213233Y-43030099D01*
X160066208Y-42911038D01*
X160066206Y-42911037D01*
X159897640Y-42825150D01*
X159714896Y-42776184D01*
X159636320Y-42770000D01*
X159423333Y-42770000D01*
X159423333Y-43694722D01*
X159347027Y-43650667D01*
X159232577Y-43620000D01*
X159114089Y-43620000D01*
X158999639Y-43650667D01*
X158923333Y-43694722D01*
X158923333Y-42770000D01*
X158710345Y-42770000D01*
X158631769Y-42776184D01*
X158631768Y-42776184D01*
X158449025Y-42825150D01*
X158280459Y-42911037D01*
X158280457Y-42911038D01*
X158133432Y-43030099D01*
X158014371Y-43177124D01*
X158014370Y-43177126D01*
X157928483Y-43345692D01*
X157879517Y-43528435D01*
X157879517Y-43528436D01*
X157873333Y-43607012D01*
X135836992Y-43607012D01*
X135825220Y-43570781D01*
X135732287Y-43388390D01*
X135708045Y-43355023D01*
X135611971Y-43222786D01*
X135467213Y-43078028D01*
X135301613Y-42957715D01*
X135301612Y-42957714D01*
X135301610Y-42957713D01*
X135244653Y-42928691D01*
X135119223Y-42864781D01*
X134924534Y-42801522D01*
X134749995Y-42773878D01*
X134722352Y-42769500D01*
X134517648Y-42769500D01*
X134493329Y-42773351D01*
X134315465Y-42801522D01*
X134120776Y-42864781D01*
X133938386Y-42957715D01*
X133772786Y-43078028D01*
X133628032Y-43222782D01*
X133628028Y-43222787D01*
X133531954Y-43355023D01*
X133476624Y-43397689D01*
X133407011Y-43403668D01*
X133345216Y-43371063D01*
X133321151Y-43338432D01*
X133238962Y-43177126D01*
X133238961Y-43177124D01*
X133119900Y-43030099D01*
X132972875Y-42911038D01*
X132972873Y-42911037D01*
X132804307Y-42825150D01*
X132621563Y-42776184D01*
X132542987Y-42770000D01*
X132330000Y-42770000D01*
X132330000Y-43694722D01*
X132253694Y-43650667D01*
X132139244Y-43620000D01*
X132020756Y-43620000D01*
X131906306Y-43650667D01*
X131830000Y-43694722D01*
X131830000Y-42770000D01*
X131617012Y-42770000D01*
X131538436Y-42776184D01*
X131538435Y-42776184D01*
X131355692Y-42825150D01*
X131187126Y-42911037D01*
X131187124Y-42911038D01*
X131040099Y-43030099D01*
X130921038Y-43177124D01*
X130921037Y-43177126D01*
X130835150Y-43345692D01*
X130786184Y-43528435D01*
X130786184Y-43528436D01*
X130780000Y-43607012D01*
X108743659Y-43607012D01*
X108731887Y-43570781D01*
X108638954Y-43388390D01*
X108614712Y-43355023D01*
X108518638Y-43222786D01*
X108373880Y-43078028D01*
X108208280Y-42957715D01*
X108208279Y-42957714D01*
X108208277Y-42957713D01*
X108151320Y-42928691D01*
X108025890Y-42864781D01*
X107831201Y-42801522D01*
X107656662Y-42773878D01*
X107629019Y-42769500D01*
X107424315Y-42769500D01*
X107399996Y-42773351D01*
X107222132Y-42801522D01*
X107027443Y-42864781D01*
X106845053Y-42957715D01*
X106679453Y-43078028D01*
X106534699Y-43222782D01*
X106534695Y-43222787D01*
X106438621Y-43355023D01*
X106383291Y-43397689D01*
X106313678Y-43403668D01*
X106251883Y-43371063D01*
X106227818Y-43338432D01*
X106145629Y-43177126D01*
X106145628Y-43177124D01*
X106026567Y-43030099D01*
X105879542Y-42911038D01*
X105879540Y-42911037D01*
X105710974Y-42825150D01*
X105528230Y-42776184D01*
X105449654Y-42770000D01*
X105236667Y-42770000D01*
X105236667Y-43694722D01*
X105160361Y-43650667D01*
X105045911Y-43620000D01*
X104927423Y-43620000D01*
X104812973Y-43650667D01*
X104736667Y-43694722D01*
X104736667Y-42770000D01*
X104523679Y-42770000D01*
X104445103Y-42776184D01*
X104445102Y-42776184D01*
X104262359Y-42825150D01*
X104093793Y-42911037D01*
X104093791Y-42911038D01*
X103946766Y-43030099D01*
X103827705Y-43177124D01*
X103827704Y-43177126D01*
X103741817Y-43345692D01*
X103692851Y-43528435D01*
X103692851Y-43528436D01*
X103686667Y-43607012D01*
X81650325Y-43607012D01*
X81638553Y-43570781D01*
X81545620Y-43388390D01*
X81521378Y-43355023D01*
X81425304Y-43222786D01*
X81280546Y-43078028D01*
X81114946Y-42957715D01*
X81114945Y-42957714D01*
X81114943Y-42957713D01*
X81057986Y-42928691D01*
X80932556Y-42864781D01*
X80737867Y-42801522D01*
X80563328Y-42773878D01*
X80535685Y-42769500D01*
X80330981Y-42769500D01*
X80306662Y-42773351D01*
X80128798Y-42801522D01*
X79934109Y-42864781D01*
X79751719Y-42957715D01*
X79586119Y-43078028D01*
X79441365Y-43222782D01*
X79441361Y-43222787D01*
X79345287Y-43355023D01*
X79289957Y-43397689D01*
X79220344Y-43403668D01*
X79158549Y-43371063D01*
X79134484Y-43338432D01*
X79052295Y-43177126D01*
X79052294Y-43177124D01*
X78933233Y-43030099D01*
X78786208Y-42911038D01*
X78786206Y-42911037D01*
X78617640Y-42825150D01*
X78434896Y-42776184D01*
X78356320Y-42770000D01*
X78143333Y-42770000D01*
X78143333Y-43694722D01*
X78067027Y-43650667D01*
X77952577Y-43620000D01*
X77834089Y-43620000D01*
X77719639Y-43650667D01*
X77643333Y-43694722D01*
X77643333Y-42770000D01*
X77430345Y-42770000D01*
X77351769Y-42776184D01*
X77351768Y-42776184D01*
X77169025Y-42825150D01*
X77000459Y-42911037D01*
X77000457Y-42911038D01*
X76853432Y-43030099D01*
X76734371Y-43177124D01*
X76734370Y-43177126D01*
X76648483Y-43345692D01*
X76599517Y-43528435D01*
X76599517Y-43528436D01*
X76593333Y-43607012D01*
X54556992Y-43607012D01*
X54545220Y-43570781D01*
X54452287Y-43388390D01*
X54428045Y-43355023D01*
X54331971Y-43222786D01*
X54187213Y-43078028D01*
X54021613Y-42957715D01*
X54021612Y-42957714D01*
X54021610Y-42957713D01*
X53964653Y-42928691D01*
X53839223Y-42864781D01*
X53644534Y-42801522D01*
X53469995Y-42773878D01*
X53442352Y-42769500D01*
X53237648Y-42769500D01*
X53213329Y-42773351D01*
X53035465Y-42801522D01*
X52840776Y-42864781D01*
X52658386Y-42957715D01*
X52492786Y-43078028D01*
X52348032Y-43222782D01*
X52348028Y-43222787D01*
X52251954Y-43355023D01*
X52196624Y-43397689D01*
X52127011Y-43403668D01*
X52065216Y-43371063D01*
X52041151Y-43338432D01*
X51958962Y-43177126D01*
X51958961Y-43177124D01*
X51839900Y-43030099D01*
X51692875Y-42911038D01*
X51692873Y-42911037D01*
X51524307Y-42825150D01*
X51341563Y-42776184D01*
X51262987Y-42770000D01*
X51050000Y-42770000D01*
X51050000Y-43694722D01*
X50973694Y-43650667D01*
X50859244Y-43620000D01*
X50740756Y-43620000D01*
X50626306Y-43650667D01*
X50550000Y-43694722D01*
X50550000Y-42770000D01*
X50337012Y-42770000D01*
X50258436Y-42776184D01*
X50258435Y-42776184D01*
X50075692Y-42825150D01*
X49907126Y-42911037D01*
X49907124Y-42911038D01*
X49760099Y-43030099D01*
X49641038Y-43177124D01*
X49641037Y-43177126D01*
X49555150Y-43345692D01*
X49506184Y-43528435D01*
X49506184Y-43528436D01*
X49500000Y-43607012D01*
X37499999Y-43607012D01*
X37499999Y-41700030D01*
X37499998Y-41700015D01*
X37489505Y-41597304D01*
X37434358Y-41430882D01*
X37434356Y-41430877D01*
X37342315Y-41281655D01*
X37218344Y-41157684D01*
X37069122Y-41065643D01*
X37069117Y-41065641D01*
X36902695Y-41010494D01*
X36902688Y-41010493D01*
X36799984Y-41000000D01*
X34250000Y-41000000D01*
X34250000Y-42641733D01*
X34122894Y-42625000D01*
X33877106Y-42625000D01*
X33750000Y-42641733D01*
X33750000Y-41000000D01*
X31200030Y-41000000D01*
X31200014Y-41000001D01*
X31097304Y-41010494D01*
X30930882Y-41065641D01*
X30930877Y-41065643D01*
X30781655Y-41157684D01*
X30657684Y-41281655D01*
X30565643Y-41430877D01*
X30565641Y-41430882D01*
X30510494Y-41597304D01*
X30510493Y-41597311D01*
X30500000Y-41700015D01*
X16208823Y-41700015D01*
X16166905Y-38849568D01*
X53379500Y-38849568D01*
X53379500Y-39130431D01*
X53410942Y-39409494D01*
X53410945Y-39409512D01*
X53473439Y-39683317D01*
X53473443Y-39683329D01*
X53566200Y-39948411D01*
X53688053Y-40201442D01*
X53688055Y-40201445D01*
X53837477Y-40439248D01*
X54012584Y-40658825D01*
X54211175Y-40857416D01*
X54430752Y-41032523D01*
X54668555Y-41181945D01*
X54921592Y-41303801D01*
X55120680Y-41373465D01*
X55186670Y-41396556D01*
X55186682Y-41396560D01*
X55460491Y-41459055D01*
X55460497Y-41459055D01*
X55460505Y-41459057D01*
X55646547Y-41480018D01*
X55739569Y-41490499D01*
X55739572Y-41490500D01*
X55739575Y-41490500D01*
X56020428Y-41490500D01*
X56020429Y-41490499D01*
X56163055Y-41474429D01*
X56299494Y-41459057D01*
X56299499Y-41459056D01*
X56299509Y-41459055D01*
X56573318Y-41396560D01*
X56838408Y-41303801D01*
X57091445Y-41181945D01*
X57329248Y-41032523D01*
X57548825Y-40857416D01*
X57747416Y-40658825D01*
X57922523Y-40439248D01*
X58071945Y-40201445D01*
X58193801Y-39948408D01*
X58286560Y-39683318D01*
X58349055Y-39409509D01*
X58380500Y-39130425D01*
X58380500Y-38849575D01*
X58380499Y-38849568D01*
X80472833Y-38849568D01*
X80472833Y-39130431D01*
X80504275Y-39409494D01*
X80504278Y-39409512D01*
X80566772Y-39683317D01*
X80566776Y-39683329D01*
X80659533Y-39948411D01*
X80781386Y-40201442D01*
X80781388Y-40201445D01*
X80930810Y-40439248D01*
X81105917Y-40658825D01*
X81304508Y-40857416D01*
X81524085Y-41032523D01*
X81761888Y-41181945D01*
X82014925Y-41303801D01*
X82214013Y-41373465D01*
X82280003Y-41396556D01*
X82280015Y-41396560D01*
X82553824Y-41459055D01*
X82553830Y-41459055D01*
X82553838Y-41459057D01*
X82739880Y-41480018D01*
X82832902Y-41490499D01*
X82832905Y-41490500D01*
X82832908Y-41490500D01*
X83113761Y-41490500D01*
X83113762Y-41490499D01*
X83256388Y-41474429D01*
X83392827Y-41459057D01*
X83392832Y-41459056D01*
X83392842Y-41459055D01*
X83666651Y-41396560D01*
X83931741Y-41303801D01*
X84184778Y-41181945D01*
X84422581Y-41032523D01*
X84642158Y-40857416D01*
X84840749Y-40658825D01*
X85015856Y-40439248D01*
X85165278Y-40201445D01*
X85287134Y-39948408D01*
X85379893Y-39683318D01*
X85442388Y-39409509D01*
X85473833Y-39130425D01*
X85473833Y-38849575D01*
X85473832Y-38849568D01*
X107566167Y-38849568D01*
X107566167Y-39130431D01*
X107597609Y-39409494D01*
X107597612Y-39409512D01*
X107660106Y-39683317D01*
X107660110Y-39683329D01*
X107752867Y-39948411D01*
X107874720Y-40201442D01*
X107874722Y-40201445D01*
X108024144Y-40439248D01*
X108199251Y-40658825D01*
X108397842Y-40857416D01*
X108617419Y-41032523D01*
X108855222Y-41181945D01*
X109108259Y-41303801D01*
X109307347Y-41373465D01*
X109373337Y-41396556D01*
X109373349Y-41396560D01*
X109647158Y-41459055D01*
X109647164Y-41459055D01*
X109647172Y-41459057D01*
X109833214Y-41480018D01*
X109926236Y-41490499D01*
X109926239Y-41490500D01*
X109926242Y-41490500D01*
X110207095Y-41490500D01*
X110207096Y-41490499D01*
X110349722Y-41474429D01*
X110486161Y-41459057D01*
X110486166Y-41459056D01*
X110486176Y-41459055D01*
X110759985Y-41396560D01*
X111025075Y-41303801D01*
X111278112Y-41181945D01*
X111515915Y-41032523D01*
X111735492Y-40857416D01*
X111934083Y-40658825D01*
X112109190Y-40439248D01*
X112258612Y-40201445D01*
X112380468Y-39948408D01*
X112473227Y-39683318D01*
X112535722Y-39409509D01*
X112567167Y-39130425D01*
X112567167Y-38849575D01*
X112567166Y-38849568D01*
X134659500Y-38849568D01*
X134659500Y-39130431D01*
X134690942Y-39409494D01*
X134690945Y-39409512D01*
X134753439Y-39683317D01*
X134753443Y-39683329D01*
X134846200Y-39948411D01*
X134968053Y-40201442D01*
X134968055Y-40201445D01*
X135117477Y-40439248D01*
X135292584Y-40658825D01*
X135491175Y-40857416D01*
X135710752Y-41032523D01*
X135948555Y-41181945D01*
X136201592Y-41303801D01*
X136400680Y-41373465D01*
X136466670Y-41396556D01*
X136466682Y-41396560D01*
X136740491Y-41459055D01*
X136740497Y-41459055D01*
X136740505Y-41459057D01*
X136926547Y-41480018D01*
X137019569Y-41490499D01*
X137019572Y-41490500D01*
X137019575Y-41490500D01*
X137300428Y-41490500D01*
X137300429Y-41490499D01*
X137443055Y-41474429D01*
X137579494Y-41459057D01*
X137579499Y-41459056D01*
X137579509Y-41459055D01*
X137853318Y-41396560D01*
X138118408Y-41303801D01*
X138371445Y-41181945D01*
X138609248Y-41032523D01*
X138828825Y-40857416D01*
X139027416Y-40658825D01*
X139202523Y-40439248D01*
X139351945Y-40201445D01*
X139473801Y-39948408D01*
X139566560Y-39683318D01*
X139629055Y-39409509D01*
X139660500Y-39130425D01*
X139660500Y-38849575D01*
X139660499Y-38849568D01*
X161752833Y-38849568D01*
X161752833Y-39130431D01*
X161784275Y-39409494D01*
X161784278Y-39409512D01*
X161846772Y-39683317D01*
X161846776Y-39683329D01*
X161939533Y-39948411D01*
X162061386Y-40201442D01*
X162061388Y-40201445D01*
X162210810Y-40439248D01*
X162385917Y-40658825D01*
X162584508Y-40857416D01*
X162804085Y-41032523D01*
X163041888Y-41181945D01*
X163294925Y-41303801D01*
X163494013Y-41373465D01*
X163560003Y-41396556D01*
X163560015Y-41396560D01*
X163833824Y-41459055D01*
X163833830Y-41459055D01*
X163833838Y-41459057D01*
X164019880Y-41480018D01*
X164112902Y-41490499D01*
X164112905Y-41490500D01*
X164112908Y-41490500D01*
X164393761Y-41490500D01*
X164393762Y-41490499D01*
X164536388Y-41474429D01*
X164672827Y-41459057D01*
X164672832Y-41459056D01*
X164672842Y-41459055D01*
X164946651Y-41396560D01*
X165211741Y-41303801D01*
X165464778Y-41181945D01*
X165702581Y-41032523D01*
X165922158Y-40857416D01*
X166120749Y-40658825D01*
X166295856Y-40439248D01*
X166445278Y-40201445D01*
X166567134Y-39948408D01*
X166659893Y-39683318D01*
X166722388Y-39409509D01*
X166753833Y-39130425D01*
X166753833Y-38849575D01*
X166753832Y-38849568D01*
X188846167Y-38849568D01*
X188846167Y-39130431D01*
X188877609Y-39409494D01*
X188877612Y-39409512D01*
X188940106Y-39683317D01*
X188940110Y-39683329D01*
X189032867Y-39948411D01*
X189154720Y-40201442D01*
X189154722Y-40201445D01*
X189304144Y-40439248D01*
X189479251Y-40658825D01*
X189677842Y-40857416D01*
X189897419Y-41032523D01*
X190135222Y-41181945D01*
X190388259Y-41303801D01*
X190587347Y-41373465D01*
X190653337Y-41396556D01*
X190653349Y-41396560D01*
X190927158Y-41459055D01*
X190927164Y-41459055D01*
X190927172Y-41459057D01*
X191113214Y-41480018D01*
X191206236Y-41490499D01*
X191206239Y-41490500D01*
X191206242Y-41490500D01*
X191487095Y-41490500D01*
X191487096Y-41490499D01*
X191629722Y-41474429D01*
X191766161Y-41459057D01*
X191766166Y-41459056D01*
X191766176Y-41459055D01*
X192039985Y-41396560D01*
X192305075Y-41303801D01*
X192558112Y-41181945D01*
X192795915Y-41032523D01*
X193015492Y-40857416D01*
X193214083Y-40658825D01*
X193389190Y-40439248D01*
X193538612Y-40201445D01*
X193660468Y-39948408D01*
X193753227Y-39683318D01*
X193815722Y-39409509D01*
X193847167Y-39130425D01*
X193847167Y-38849575D01*
X193847166Y-38849568D01*
X215939500Y-38849568D01*
X215939500Y-39130431D01*
X215970942Y-39409494D01*
X215970945Y-39409512D01*
X216033439Y-39683317D01*
X216033443Y-39683329D01*
X216126200Y-39948411D01*
X216248053Y-40201442D01*
X216248055Y-40201445D01*
X216397477Y-40439248D01*
X216572584Y-40658825D01*
X216771175Y-40857416D01*
X216990752Y-41032523D01*
X217228555Y-41181945D01*
X217481592Y-41303801D01*
X217680680Y-41373465D01*
X217746670Y-41396556D01*
X217746682Y-41396560D01*
X218020491Y-41459055D01*
X218020497Y-41459055D01*
X218020505Y-41459057D01*
X218206547Y-41480018D01*
X218299569Y-41490499D01*
X218299572Y-41490500D01*
X218299575Y-41490500D01*
X218580428Y-41490500D01*
X218580429Y-41490499D01*
X218723055Y-41474429D01*
X218859494Y-41459057D01*
X218859499Y-41459056D01*
X218859509Y-41459055D01*
X219133318Y-41396560D01*
X219398408Y-41303801D01*
X219651445Y-41181945D01*
X219889248Y-41032523D01*
X220108825Y-40857416D01*
X220307416Y-40658825D01*
X220482523Y-40439248D01*
X220631945Y-40201445D01*
X220753801Y-39948408D01*
X220846560Y-39683318D01*
X220909055Y-39409509D01*
X220940500Y-39130425D01*
X220940500Y-38849575D01*
X220940499Y-38849568D01*
X243032833Y-38849568D01*
X243032833Y-39130431D01*
X243064275Y-39409494D01*
X243064278Y-39409512D01*
X243126772Y-39683317D01*
X243126776Y-39683329D01*
X243219533Y-39948411D01*
X243341386Y-40201442D01*
X243341388Y-40201445D01*
X243490810Y-40439248D01*
X243665917Y-40658825D01*
X243864508Y-40857416D01*
X244084085Y-41032523D01*
X244321888Y-41181945D01*
X244574925Y-41303801D01*
X244774013Y-41373465D01*
X244840003Y-41396556D01*
X244840015Y-41396560D01*
X245113824Y-41459055D01*
X245113830Y-41459055D01*
X245113838Y-41459057D01*
X245299880Y-41480018D01*
X245392902Y-41490499D01*
X245392905Y-41490500D01*
X245392908Y-41490500D01*
X245673761Y-41490500D01*
X245673762Y-41490499D01*
X245816388Y-41474429D01*
X245952827Y-41459057D01*
X245952832Y-41459056D01*
X245952842Y-41459055D01*
X246226651Y-41396560D01*
X246491741Y-41303801D01*
X246744778Y-41181945D01*
X246982581Y-41032523D01*
X247202158Y-40857416D01*
X247400749Y-40658825D01*
X247575856Y-40439248D01*
X247725278Y-40201445D01*
X247847134Y-39948408D01*
X247939893Y-39683318D01*
X248002388Y-39409509D01*
X248033833Y-39130425D01*
X248033833Y-38849575D01*
X248033832Y-38849568D01*
X270126167Y-38849568D01*
X270126167Y-39130431D01*
X270157609Y-39409494D01*
X270157612Y-39409512D01*
X270220106Y-39683317D01*
X270220110Y-39683329D01*
X270312867Y-39948411D01*
X270434720Y-40201442D01*
X270434722Y-40201445D01*
X270584144Y-40439248D01*
X270759251Y-40658825D01*
X270957842Y-40857416D01*
X271177419Y-41032523D01*
X271415222Y-41181945D01*
X271668259Y-41303801D01*
X271867347Y-41373465D01*
X271933337Y-41396556D01*
X271933349Y-41396560D01*
X272207158Y-41459055D01*
X272207164Y-41459055D01*
X272207172Y-41459057D01*
X272393214Y-41480018D01*
X272486236Y-41490499D01*
X272486239Y-41490500D01*
X272486242Y-41490500D01*
X272767095Y-41490500D01*
X272767096Y-41490499D01*
X272909722Y-41474429D01*
X273046161Y-41459057D01*
X273046166Y-41459056D01*
X273046176Y-41459055D01*
X273319985Y-41396560D01*
X273585075Y-41303801D01*
X273838112Y-41181945D01*
X274075915Y-41032523D01*
X274295492Y-40857416D01*
X274494083Y-40658825D01*
X274669190Y-40439248D01*
X274818612Y-40201445D01*
X274940468Y-39948408D01*
X275033227Y-39683318D01*
X275095722Y-39409509D01*
X275127167Y-39130425D01*
X275127167Y-38849575D01*
X275127166Y-38849568D01*
X297219500Y-38849568D01*
X297219500Y-39130431D01*
X297250942Y-39409494D01*
X297250945Y-39409512D01*
X297313439Y-39683317D01*
X297313443Y-39683329D01*
X297406200Y-39948411D01*
X297528053Y-40201442D01*
X297528055Y-40201445D01*
X297677477Y-40439248D01*
X297852584Y-40658825D01*
X298051175Y-40857416D01*
X298270752Y-41032523D01*
X298508555Y-41181945D01*
X298761592Y-41303801D01*
X298960680Y-41373465D01*
X299026670Y-41396556D01*
X299026682Y-41396560D01*
X299300491Y-41459055D01*
X299300497Y-41459055D01*
X299300505Y-41459057D01*
X299486547Y-41480018D01*
X299579569Y-41490499D01*
X299579572Y-41490500D01*
X299579575Y-41490500D01*
X299860428Y-41490500D01*
X299860429Y-41490499D01*
X300003055Y-41474429D01*
X300139494Y-41459057D01*
X300139499Y-41459056D01*
X300139509Y-41459055D01*
X300413318Y-41396560D01*
X300678408Y-41303801D01*
X300931445Y-41181945D01*
X301169248Y-41032523D01*
X301388825Y-40857416D01*
X301587416Y-40658825D01*
X301762523Y-40439248D01*
X301911945Y-40201445D01*
X302033801Y-39948408D01*
X302126560Y-39683318D01*
X302189055Y-39409509D01*
X302220500Y-39130425D01*
X302220500Y-38849575D01*
X302220499Y-38849568D01*
X324312833Y-38849568D01*
X324312833Y-39130431D01*
X324344275Y-39409494D01*
X324344278Y-39409512D01*
X324406772Y-39683317D01*
X324406776Y-39683329D01*
X324499533Y-39948411D01*
X324621386Y-40201442D01*
X324621388Y-40201445D01*
X324770810Y-40439248D01*
X324945917Y-40658825D01*
X325144508Y-40857416D01*
X325364085Y-41032523D01*
X325601888Y-41181945D01*
X325854925Y-41303801D01*
X326054013Y-41373465D01*
X326120003Y-41396556D01*
X326120015Y-41396560D01*
X326393824Y-41459055D01*
X326393830Y-41459055D01*
X326393838Y-41459057D01*
X326579880Y-41480018D01*
X326672902Y-41490499D01*
X326672905Y-41490500D01*
X326672908Y-41490500D01*
X326953761Y-41490500D01*
X326953762Y-41490499D01*
X327096388Y-41474429D01*
X327232827Y-41459057D01*
X327232832Y-41459056D01*
X327232842Y-41459055D01*
X327506651Y-41396560D01*
X327771741Y-41303801D01*
X328024778Y-41181945D01*
X328262581Y-41032523D01*
X328482158Y-40857416D01*
X328680749Y-40658825D01*
X328855856Y-40439248D01*
X329005278Y-40201445D01*
X329127134Y-39948408D01*
X329219893Y-39683318D01*
X329282388Y-39409509D01*
X329313833Y-39130425D01*
X329313833Y-38849575D01*
X329313832Y-38849568D01*
X351406167Y-38849568D01*
X351406167Y-39130431D01*
X351437609Y-39409494D01*
X351437612Y-39409512D01*
X351500106Y-39683317D01*
X351500110Y-39683329D01*
X351592867Y-39948411D01*
X351714720Y-40201442D01*
X351714722Y-40201445D01*
X351864144Y-40439248D01*
X352039251Y-40658825D01*
X352237842Y-40857416D01*
X352457419Y-41032523D01*
X352695222Y-41181945D01*
X352948259Y-41303801D01*
X353147347Y-41373465D01*
X353213337Y-41396556D01*
X353213349Y-41396560D01*
X353487158Y-41459055D01*
X353487164Y-41459055D01*
X353487172Y-41459057D01*
X353673214Y-41480018D01*
X353766236Y-41490499D01*
X353766239Y-41490500D01*
X353766242Y-41490500D01*
X354047095Y-41490500D01*
X354047096Y-41490499D01*
X354189722Y-41474429D01*
X354326161Y-41459057D01*
X354326166Y-41459056D01*
X354326176Y-41459055D01*
X354599985Y-41396560D01*
X354865075Y-41303801D01*
X355118112Y-41181945D01*
X355355915Y-41032523D01*
X355575492Y-40857416D01*
X355774083Y-40658825D01*
X355949190Y-40439248D01*
X356098612Y-40201445D01*
X356220468Y-39948408D01*
X356313227Y-39683318D01*
X356375722Y-39409509D01*
X356407167Y-39130425D01*
X356407167Y-38849575D01*
X356407166Y-38849568D01*
X378499500Y-38849568D01*
X378499500Y-39130431D01*
X378530942Y-39409494D01*
X378530945Y-39409512D01*
X378593439Y-39683317D01*
X378593443Y-39683329D01*
X378686200Y-39948411D01*
X378808053Y-40201442D01*
X378808055Y-40201445D01*
X378957477Y-40439248D01*
X379132584Y-40658825D01*
X379331175Y-40857416D01*
X379550752Y-41032523D01*
X379788555Y-41181945D01*
X380041592Y-41303801D01*
X380240680Y-41373465D01*
X380306670Y-41396556D01*
X380306682Y-41396560D01*
X380580491Y-41459055D01*
X380580497Y-41459055D01*
X380580505Y-41459057D01*
X380766547Y-41480018D01*
X380859569Y-41490499D01*
X380859572Y-41490500D01*
X380859575Y-41490500D01*
X381140428Y-41490500D01*
X381140429Y-41490499D01*
X381283055Y-41474429D01*
X381419494Y-41459057D01*
X381419499Y-41459056D01*
X381419509Y-41459055D01*
X381693318Y-41396560D01*
X381958408Y-41303801D01*
X382211445Y-41181945D01*
X382449248Y-41032523D01*
X382668825Y-40857416D01*
X382867416Y-40658825D01*
X383042523Y-40439248D01*
X383191945Y-40201445D01*
X383313801Y-39948408D01*
X383406560Y-39683318D01*
X383469055Y-39409509D01*
X383500500Y-39130425D01*
X383500500Y-38849575D01*
X383500499Y-38849568D01*
X405592833Y-38849568D01*
X405592833Y-39130431D01*
X405624275Y-39409494D01*
X405624278Y-39409512D01*
X405686772Y-39683317D01*
X405686776Y-39683329D01*
X405779533Y-39948411D01*
X405901386Y-40201442D01*
X405901388Y-40201445D01*
X406050810Y-40439248D01*
X406225917Y-40658825D01*
X406424508Y-40857416D01*
X406644085Y-41032523D01*
X406881888Y-41181945D01*
X407134925Y-41303801D01*
X407334013Y-41373465D01*
X407400003Y-41396556D01*
X407400015Y-41396560D01*
X407673824Y-41459055D01*
X407673830Y-41459055D01*
X407673838Y-41459057D01*
X407859880Y-41480018D01*
X407952902Y-41490499D01*
X407952905Y-41490500D01*
X407952908Y-41490500D01*
X408233761Y-41490500D01*
X408233762Y-41490499D01*
X408376388Y-41474429D01*
X408512827Y-41459057D01*
X408512832Y-41459056D01*
X408512842Y-41459055D01*
X408786651Y-41396560D01*
X409051741Y-41303801D01*
X409304778Y-41181945D01*
X409542581Y-41032523D01*
X409762158Y-40857416D01*
X409960749Y-40658825D01*
X410135856Y-40439248D01*
X410285278Y-40201445D01*
X410407134Y-39948408D01*
X410499893Y-39683318D01*
X410562388Y-39409509D01*
X410593833Y-39130425D01*
X410593833Y-38849575D01*
X410593832Y-38849568D01*
X432686167Y-38849568D01*
X432686167Y-39130431D01*
X432717609Y-39409494D01*
X432717612Y-39409512D01*
X432780106Y-39683317D01*
X432780110Y-39683329D01*
X432872867Y-39948411D01*
X432994720Y-40201442D01*
X432994722Y-40201445D01*
X433144144Y-40439248D01*
X433319251Y-40658825D01*
X433517842Y-40857416D01*
X433737419Y-41032523D01*
X433975222Y-41181945D01*
X434228259Y-41303801D01*
X434427347Y-41373465D01*
X434493337Y-41396556D01*
X434493349Y-41396560D01*
X434767158Y-41459055D01*
X434767164Y-41459055D01*
X434767172Y-41459057D01*
X434953214Y-41480018D01*
X435046236Y-41490499D01*
X435046239Y-41490500D01*
X435046242Y-41490500D01*
X435327095Y-41490500D01*
X435327096Y-41490499D01*
X435469722Y-41474429D01*
X435606161Y-41459057D01*
X435606166Y-41459056D01*
X435606176Y-41459055D01*
X435879985Y-41396560D01*
X436145075Y-41303801D01*
X436398112Y-41181945D01*
X436635915Y-41032523D01*
X436855492Y-40857416D01*
X437054083Y-40658825D01*
X437229190Y-40439248D01*
X437378612Y-40201445D01*
X437500468Y-39948408D01*
X437593227Y-39683318D01*
X437655722Y-39409509D01*
X437687167Y-39130425D01*
X437687167Y-38849575D01*
X437687166Y-38849568D01*
X459779500Y-38849568D01*
X459779500Y-39130431D01*
X459810942Y-39409494D01*
X459810945Y-39409512D01*
X459873439Y-39683317D01*
X459873443Y-39683329D01*
X459966200Y-39948411D01*
X460088053Y-40201442D01*
X460088055Y-40201445D01*
X460237477Y-40439248D01*
X460412584Y-40658825D01*
X460611175Y-40857416D01*
X460830752Y-41032523D01*
X461068555Y-41181945D01*
X461321592Y-41303801D01*
X461520680Y-41373465D01*
X461586670Y-41396556D01*
X461586682Y-41396560D01*
X461860491Y-41459055D01*
X461860497Y-41459055D01*
X461860505Y-41459057D01*
X462046547Y-41480018D01*
X462139569Y-41490499D01*
X462139572Y-41490500D01*
X462139575Y-41490500D01*
X462420428Y-41490500D01*
X462420429Y-41490499D01*
X462563055Y-41474429D01*
X462699494Y-41459057D01*
X462699499Y-41459056D01*
X462699509Y-41459055D01*
X462973318Y-41396560D01*
X463238408Y-41303801D01*
X463491445Y-41181945D01*
X463729248Y-41032523D01*
X463948825Y-40857416D01*
X464147416Y-40658825D01*
X464322523Y-40439248D01*
X464471945Y-40201445D01*
X464593801Y-39948408D01*
X464686560Y-39683318D01*
X464749055Y-39409509D01*
X464780500Y-39130425D01*
X464780500Y-38849575D01*
X464749055Y-38570491D01*
X464686560Y-38296682D01*
X464593801Y-38031592D01*
X464471945Y-37778555D01*
X464322523Y-37540752D01*
X464147416Y-37321175D01*
X463948825Y-37122584D01*
X463729248Y-36947477D01*
X463491445Y-36798055D01*
X463491442Y-36798053D01*
X463238411Y-36676200D01*
X462973329Y-36583443D01*
X462973317Y-36583439D01*
X462699512Y-36520945D01*
X462699494Y-36520942D01*
X462420431Y-36489500D01*
X462420425Y-36489500D01*
X462139575Y-36489500D01*
X462139568Y-36489500D01*
X461860505Y-36520942D01*
X461860487Y-36520945D01*
X461586682Y-36583439D01*
X461586670Y-36583443D01*
X461321588Y-36676200D01*
X461068557Y-36798053D01*
X460830753Y-36947476D01*
X460611175Y-37122583D01*
X460412583Y-37321175D01*
X460237476Y-37540753D01*
X460088053Y-37778557D01*
X459966200Y-38031588D01*
X459873443Y-38296670D01*
X459873439Y-38296682D01*
X459810945Y-38570487D01*
X459810942Y-38570505D01*
X459779500Y-38849568D01*
X437687166Y-38849568D01*
X437655722Y-38570491D01*
X437593227Y-38296682D01*
X437500468Y-38031592D01*
X437378612Y-37778555D01*
X437229190Y-37540752D01*
X437054083Y-37321175D01*
X436855492Y-37122584D01*
X436635915Y-36947477D01*
X436398112Y-36798055D01*
X436398109Y-36798053D01*
X436145078Y-36676200D01*
X435879996Y-36583443D01*
X435879984Y-36583439D01*
X435606179Y-36520945D01*
X435606161Y-36520942D01*
X435327098Y-36489500D01*
X435327092Y-36489500D01*
X435046242Y-36489500D01*
X435046235Y-36489500D01*
X434767172Y-36520942D01*
X434767154Y-36520945D01*
X434493349Y-36583439D01*
X434493337Y-36583443D01*
X434228255Y-36676200D01*
X433975224Y-36798053D01*
X433737420Y-36947476D01*
X433517842Y-37122583D01*
X433319250Y-37321175D01*
X433144143Y-37540753D01*
X432994720Y-37778557D01*
X432872867Y-38031588D01*
X432780110Y-38296670D01*
X432780106Y-38296682D01*
X432717612Y-38570487D01*
X432717609Y-38570505D01*
X432686167Y-38849568D01*
X410593832Y-38849568D01*
X410562388Y-38570491D01*
X410499893Y-38296682D01*
X410407134Y-38031592D01*
X410285278Y-37778555D01*
X410135856Y-37540752D01*
X409960749Y-37321175D01*
X409762158Y-37122584D01*
X409542581Y-36947477D01*
X409304778Y-36798055D01*
X409304775Y-36798053D01*
X409051744Y-36676200D01*
X408786662Y-36583443D01*
X408786650Y-36583439D01*
X408512845Y-36520945D01*
X408512827Y-36520942D01*
X408233764Y-36489500D01*
X408233758Y-36489500D01*
X407952908Y-36489500D01*
X407952901Y-36489500D01*
X407673838Y-36520942D01*
X407673820Y-36520945D01*
X407400015Y-36583439D01*
X407400003Y-36583443D01*
X407134921Y-36676200D01*
X406881890Y-36798053D01*
X406644086Y-36947476D01*
X406424508Y-37122583D01*
X406225916Y-37321175D01*
X406050809Y-37540753D01*
X405901386Y-37778557D01*
X405779533Y-38031588D01*
X405686776Y-38296670D01*
X405686772Y-38296682D01*
X405624278Y-38570487D01*
X405624275Y-38570505D01*
X405592833Y-38849568D01*
X383500499Y-38849568D01*
X383469055Y-38570491D01*
X383406560Y-38296682D01*
X383313801Y-38031592D01*
X383191945Y-37778555D01*
X383042523Y-37540752D01*
X382867416Y-37321175D01*
X382668825Y-37122584D01*
X382449248Y-36947477D01*
X382211445Y-36798055D01*
X382211442Y-36798053D01*
X381958411Y-36676200D01*
X381693329Y-36583443D01*
X381693317Y-36583439D01*
X381419512Y-36520945D01*
X381419494Y-36520942D01*
X381140431Y-36489500D01*
X381140425Y-36489500D01*
X380859575Y-36489500D01*
X380859568Y-36489500D01*
X380580505Y-36520942D01*
X380580487Y-36520945D01*
X380306682Y-36583439D01*
X380306670Y-36583443D01*
X380041588Y-36676200D01*
X379788557Y-36798053D01*
X379550753Y-36947476D01*
X379331175Y-37122583D01*
X379132583Y-37321175D01*
X378957476Y-37540753D01*
X378808053Y-37778557D01*
X378686200Y-38031588D01*
X378593443Y-38296670D01*
X378593439Y-38296682D01*
X378530945Y-38570487D01*
X378530942Y-38570505D01*
X378499500Y-38849568D01*
X356407166Y-38849568D01*
X356375722Y-38570491D01*
X356313227Y-38296682D01*
X356220468Y-38031592D01*
X356098612Y-37778555D01*
X355949190Y-37540752D01*
X355774083Y-37321175D01*
X355575492Y-37122584D01*
X355355915Y-36947477D01*
X355118112Y-36798055D01*
X355118109Y-36798053D01*
X354865078Y-36676200D01*
X354599996Y-36583443D01*
X354599984Y-36583439D01*
X354326179Y-36520945D01*
X354326161Y-36520942D01*
X354047098Y-36489500D01*
X354047092Y-36489500D01*
X353766242Y-36489500D01*
X353766235Y-36489500D01*
X353487172Y-36520942D01*
X353487154Y-36520945D01*
X353213349Y-36583439D01*
X353213337Y-36583443D01*
X352948255Y-36676200D01*
X352695224Y-36798053D01*
X352457420Y-36947476D01*
X352237842Y-37122583D01*
X352039250Y-37321175D01*
X351864143Y-37540753D01*
X351714720Y-37778557D01*
X351592867Y-38031588D01*
X351500110Y-38296670D01*
X351500106Y-38296682D01*
X351437612Y-38570487D01*
X351437609Y-38570505D01*
X351406167Y-38849568D01*
X329313832Y-38849568D01*
X329282388Y-38570491D01*
X329219893Y-38296682D01*
X329127134Y-38031592D01*
X329005278Y-37778555D01*
X328855856Y-37540752D01*
X328680749Y-37321175D01*
X328482158Y-37122584D01*
X328262581Y-36947477D01*
X328024778Y-36798055D01*
X328024775Y-36798053D01*
X327771744Y-36676200D01*
X327506662Y-36583443D01*
X327506650Y-36583439D01*
X327232845Y-36520945D01*
X327232827Y-36520942D01*
X326953764Y-36489500D01*
X326953758Y-36489500D01*
X326672908Y-36489500D01*
X326672901Y-36489500D01*
X326393838Y-36520942D01*
X326393820Y-36520945D01*
X326120015Y-36583439D01*
X326120003Y-36583443D01*
X325854921Y-36676200D01*
X325601890Y-36798053D01*
X325364086Y-36947476D01*
X325144508Y-37122583D01*
X324945916Y-37321175D01*
X324770809Y-37540753D01*
X324621386Y-37778557D01*
X324499533Y-38031588D01*
X324406776Y-38296670D01*
X324406772Y-38296682D01*
X324344278Y-38570487D01*
X324344275Y-38570505D01*
X324312833Y-38849568D01*
X302220499Y-38849568D01*
X302189055Y-38570491D01*
X302126560Y-38296682D01*
X302033801Y-38031592D01*
X301911945Y-37778555D01*
X301762523Y-37540752D01*
X301587416Y-37321175D01*
X301388825Y-37122584D01*
X301169248Y-36947477D01*
X300931445Y-36798055D01*
X300931442Y-36798053D01*
X300678411Y-36676200D01*
X300413329Y-36583443D01*
X300413317Y-36583439D01*
X300139512Y-36520945D01*
X300139494Y-36520942D01*
X299860431Y-36489500D01*
X299860425Y-36489500D01*
X299579575Y-36489500D01*
X299579568Y-36489500D01*
X299300505Y-36520942D01*
X299300487Y-36520945D01*
X299026682Y-36583439D01*
X299026670Y-36583443D01*
X298761588Y-36676200D01*
X298508557Y-36798053D01*
X298270753Y-36947476D01*
X298051175Y-37122583D01*
X297852583Y-37321175D01*
X297677476Y-37540753D01*
X297528053Y-37778557D01*
X297406200Y-38031588D01*
X297313443Y-38296670D01*
X297313439Y-38296682D01*
X297250945Y-38570487D01*
X297250942Y-38570505D01*
X297219500Y-38849568D01*
X275127166Y-38849568D01*
X275095722Y-38570491D01*
X275033227Y-38296682D01*
X274940468Y-38031592D01*
X274818612Y-37778555D01*
X274669190Y-37540752D01*
X274494083Y-37321175D01*
X274295492Y-37122584D01*
X274075915Y-36947477D01*
X273838112Y-36798055D01*
X273838109Y-36798053D01*
X273585078Y-36676200D01*
X273319996Y-36583443D01*
X273319984Y-36583439D01*
X273046179Y-36520945D01*
X273046161Y-36520942D01*
X272767098Y-36489500D01*
X272767092Y-36489500D01*
X272486242Y-36489500D01*
X272486235Y-36489500D01*
X272207172Y-36520942D01*
X272207154Y-36520945D01*
X271933349Y-36583439D01*
X271933337Y-36583443D01*
X271668255Y-36676200D01*
X271415224Y-36798053D01*
X271177420Y-36947476D01*
X270957842Y-37122583D01*
X270759250Y-37321175D01*
X270584143Y-37540753D01*
X270434720Y-37778557D01*
X270312867Y-38031588D01*
X270220110Y-38296670D01*
X270220106Y-38296682D01*
X270157612Y-38570487D01*
X270157609Y-38570505D01*
X270126167Y-38849568D01*
X248033832Y-38849568D01*
X248002388Y-38570491D01*
X247939893Y-38296682D01*
X247847134Y-38031592D01*
X247725278Y-37778555D01*
X247575856Y-37540752D01*
X247400749Y-37321175D01*
X247202158Y-37122584D01*
X246982581Y-36947477D01*
X246744778Y-36798055D01*
X246744775Y-36798053D01*
X246491744Y-36676200D01*
X246226662Y-36583443D01*
X246226650Y-36583439D01*
X245952845Y-36520945D01*
X245952827Y-36520942D01*
X245673764Y-36489500D01*
X245673758Y-36489500D01*
X245392908Y-36489500D01*
X245392901Y-36489500D01*
X245113838Y-36520942D01*
X245113820Y-36520945D01*
X244840015Y-36583439D01*
X244840003Y-36583443D01*
X244574921Y-36676200D01*
X244321890Y-36798053D01*
X244084086Y-36947476D01*
X243864508Y-37122583D01*
X243665916Y-37321175D01*
X243490809Y-37540753D01*
X243341386Y-37778557D01*
X243219533Y-38031588D01*
X243126776Y-38296670D01*
X243126772Y-38296682D01*
X243064278Y-38570487D01*
X243064275Y-38570505D01*
X243032833Y-38849568D01*
X220940499Y-38849568D01*
X220909055Y-38570491D01*
X220846560Y-38296682D01*
X220753801Y-38031592D01*
X220631945Y-37778555D01*
X220482523Y-37540752D01*
X220307416Y-37321175D01*
X220108825Y-37122584D01*
X219889248Y-36947477D01*
X219651445Y-36798055D01*
X219651442Y-36798053D01*
X219398411Y-36676200D01*
X219133329Y-36583443D01*
X219133317Y-36583439D01*
X218859512Y-36520945D01*
X218859494Y-36520942D01*
X218580431Y-36489500D01*
X218580425Y-36489500D01*
X218299575Y-36489500D01*
X218299568Y-36489500D01*
X218020505Y-36520942D01*
X218020487Y-36520945D01*
X217746682Y-36583439D01*
X217746670Y-36583443D01*
X217481588Y-36676200D01*
X217228557Y-36798053D01*
X216990753Y-36947476D01*
X216771175Y-37122583D01*
X216572583Y-37321175D01*
X216397476Y-37540753D01*
X216248053Y-37778557D01*
X216126200Y-38031588D01*
X216033443Y-38296670D01*
X216033439Y-38296682D01*
X215970945Y-38570487D01*
X215970942Y-38570505D01*
X215939500Y-38849568D01*
X193847166Y-38849568D01*
X193815722Y-38570491D01*
X193753227Y-38296682D01*
X193660468Y-38031592D01*
X193538612Y-37778555D01*
X193389190Y-37540752D01*
X193214083Y-37321175D01*
X193015492Y-37122584D01*
X192795915Y-36947477D01*
X192558112Y-36798055D01*
X192558109Y-36798053D01*
X192305078Y-36676200D01*
X192039996Y-36583443D01*
X192039984Y-36583439D01*
X191766179Y-36520945D01*
X191766161Y-36520942D01*
X191487098Y-36489500D01*
X191487092Y-36489500D01*
X191206242Y-36489500D01*
X191206235Y-36489500D01*
X190927172Y-36520942D01*
X190927154Y-36520945D01*
X190653349Y-36583439D01*
X190653337Y-36583443D01*
X190388255Y-36676200D01*
X190135224Y-36798053D01*
X189897420Y-36947476D01*
X189677842Y-37122583D01*
X189479250Y-37321175D01*
X189304143Y-37540753D01*
X189154720Y-37778557D01*
X189032867Y-38031588D01*
X188940110Y-38296670D01*
X188940106Y-38296682D01*
X188877612Y-38570487D01*
X188877609Y-38570505D01*
X188846167Y-38849568D01*
X166753832Y-38849568D01*
X166722388Y-38570491D01*
X166659893Y-38296682D01*
X166567134Y-38031592D01*
X166445278Y-37778555D01*
X166295856Y-37540752D01*
X166120749Y-37321175D01*
X165922158Y-37122584D01*
X165702581Y-36947477D01*
X165464778Y-36798055D01*
X165464775Y-36798053D01*
X165211744Y-36676200D01*
X164946662Y-36583443D01*
X164946650Y-36583439D01*
X164672845Y-36520945D01*
X164672827Y-36520942D01*
X164393764Y-36489500D01*
X164393758Y-36489500D01*
X164112908Y-36489500D01*
X164112901Y-36489500D01*
X163833838Y-36520942D01*
X163833820Y-36520945D01*
X163560015Y-36583439D01*
X163560003Y-36583443D01*
X163294921Y-36676200D01*
X163041890Y-36798053D01*
X162804086Y-36947476D01*
X162584508Y-37122583D01*
X162385916Y-37321175D01*
X162210809Y-37540753D01*
X162061386Y-37778557D01*
X161939533Y-38031588D01*
X161846776Y-38296670D01*
X161846772Y-38296682D01*
X161784278Y-38570487D01*
X161784275Y-38570505D01*
X161752833Y-38849568D01*
X139660499Y-38849568D01*
X139629055Y-38570491D01*
X139566560Y-38296682D01*
X139473801Y-38031592D01*
X139351945Y-37778555D01*
X139202523Y-37540752D01*
X139027416Y-37321175D01*
X138828825Y-37122584D01*
X138609248Y-36947477D01*
X138371445Y-36798055D01*
X138371442Y-36798053D01*
X138118411Y-36676200D01*
X137853329Y-36583443D01*
X137853317Y-36583439D01*
X137579512Y-36520945D01*
X137579494Y-36520942D01*
X137300431Y-36489500D01*
X137300425Y-36489500D01*
X137019575Y-36489500D01*
X137019568Y-36489500D01*
X136740505Y-36520942D01*
X136740487Y-36520945D01*
X136466682Y-36583439D01*
X136466670Y-36583443D01*
X136201588Y-36676200D01*
X135948557Y-36798053D01*
X135710753Y-36947476D01*
X135491175Y-37122583D01*
X135292583Y-37321175D01*
X135117476Y-37540753D01*
X134968053Y-37778557D01*
X134846200Y-38031588D01*
X134753443Y-38296670D01*
X134753439Y-38296682D01*
X134690945Y-38570487D01*
X134690942Y-38570505D01*
X134659500Y-38849568D01*
X112567166Y-38849568D01*
X112535722Y-38570491D01*
X112473227Y-38296682D01*
X112380468Y-38031592D01*
X112258612Y-37778555D01*
X112109190Y-37540752D01*
X111934083Y-37321175D01*
X111735492Y-37122584D01*
X111515915Y-36947477D01*
X111278112Y-36798055D01*
X111278109Y-36798053D01*
X111025078Y-36676200D01*
X110759996Y-36583443D01*
X110759984Y-36583439D01*
X110486179Y-36520945D01*
X110486161Y-36520942D01*
X110207098Y-36489500D01*
X110207092Y-36489500D01*
X109926242Y-36489500D01*
X109926235Y-36489500D01*
X109647172Y-36520942D01*
X109647154Y-36520945D01*
X109373349Y-36583439D01*
X109373337Y-36583443D01*
X109108255Y-36676200D01*
X108855224Y-36798053D01*
X108617420Y-36947476D01*
X108397842Y-37122583D01*
X108199250Y-37321175D01*
X108024143Y-37540753D01*
X107874720Y-37778557D01*
X107752867Y-38031588D01*
X107660110Y-38296670D01*
X107660106Y-38296682D01*
X107597612Y-38570487D01*
X107597609Y-38570505D01*
X107566167Y-38849568D01*
X85473832Y-38849568D01*
X85442388Y-38570491D01*
X85379893Y-38296682D01*
X85287134Y-38031592D01*
X85165278Y-37778555D01*
X85015856Y-37540752D01*
X84840749Y-37321175D01*
X84642158Y-37122584D01*
X84422581Y-36947477D01*
X84184778Y-36798055D01*
X84184775Y-36798053D01*
X83931744Y-36676200D01*
X83666662Y-36583443D01*
X83666650Y-36583439D01*
X83392845Y-36520945D01*
X83392827Y-36520942D01*
X83113764Y-36489500D01*
X83113758Y-36489500D01*
X82832908Y-36489500D01*
X82832901Y-36489500D01*
X82553838Y-36520942D01*
X82553820Y-36520945D01*
X82280015Y-36583439D01*
X82280003Y-36583443D01*
X82014921Y-36676200D01*
X81761890Y-36798053D01*
X81524086Y-36947476D01*
X81304508Y-37122583D01*
X81105916Y-37321175D01*
X80930809Y-37540753D01*
X80781386Y-37778557D01*
X80659533Y-38031588D01*
X80566776Y-38296670D01*
X80566772Y-38296682D01*
X80504278Y-38570487D01*
X80504275Y-38570505D01*
X80472833Y-38849568D01*
X58380499Y-38849568D01*
X58349055Y-38570491D01*
X58286560Y-38296682D01*
X58193801Y-38031592D01*
X58071945Y-37778555D01*
X57922523Y-37540752D01*
X57747416Y-37321175D01*
X57548825Y-37122584D01*
X57329248Y-36947477D01*
X57091445Y-36798055D01*
X57091442Y-36798053D01*
X56838411Y-36676200D01*
X56573329Y-36583443D01*
X56573317Y-36583439D01*
X56299512Y-36520945D01*
X56299494Y-36520942D01*
X56020431Y-36489500D01*
X56020425Y-36489500D01*
X55739575Y-36489500D01*
X55739568Y-36489500D01*
X55460505Y-36520942D01*
X55460487Y-36520945D01*
X55186682Y-36583439D01*
X55186670Y-36583443D01*
X54921588Y-36676200D01*
X54668557Y-36798053D01*
X54430753Y-36947476D01*
X54211175Y-37122583D01*
X54012583Y-37321175D01*
X53837476Y-37540753D01*
X53688053Y-37778557D01*
X53566200Y-38031588D01*
X53473443Y-38296670D01*
X53473439Y-38296682D01*
X53410945Y-38570487D01*
X53410942Y-38570505D01*
X53379500Y-38849568D01*
X16166905Y-38849568D01*
X16001850Y-27625821D01*
X16020547Y-27558502D01*
X16072673Y-27511975D01*
X16125837Y-27500000D01*
X467877810Y-27500000D01*
X467944849Y-27519685D01*
G37*
%TD.AperFunction*%
%TD*%
M02*
