%TF.GenerationSoftware,KiCad,Pcbnew,9.0.2*%
%TF.CreationDate,2025-06-17T08:49:50-07:00*%
%TF.ProjectId,BNC-breakout,424e432d-6272-4656-916b-6f75742e6b69,rev?*%
%TF.SameCoordinates,Original*%
%TF.FileFunction,Legend,Top*%
%TF.FilePolarity,Positive*%
%FSLAX46Y46*%
G04 Gerber Fmt 4.6, Leading zero omitted, Abs format (unit mm)*
G04 Created by KiCad (PCBNEW 9.0.2) date 2025-06-17 08:49:50*
%MOMM*%
%LPD*%
G01*
G04 APERTURE LIST*
%ADD10C,0.100000*%
%ADD11C,0.254000*%
%ADD12C,0.150000*%
G04 APERTURE END LIST*
D10*
X21463095Y-68086419D02*
X21463095Y-67086419D01*
X21463095Y-67562609D02*
X22034523Y-67562609D01*
X22034523Y-68086419D02*
X22034523Y-67086419D01*
X22986904Y-67086419D02*
X22510714Y-67086419D01*
X22510714Y-67086419D02*
X22463095Y-67562609D01*
X22463095Y-67562609D02*
X22510714Y-67514990D01*
X22510714Y-67514990D02*
X22605952Y-67467371D01*
X22605952Y-67467371D02*
X22844047Y-67467371D01*
X22844047Y-67467371D02*
X22939285Y-67514990D01*
X22939285Y-67514990D02*
X22986904Y-67562609D01*
X22986904Y-67562609D02*
X23034523Y-67657847D01*
X23034523Y-67657847D02*
X23034523Y-67895942D01*
X23034523Y-67895942D02*
X22986904Y-67991180D01*
X22986904Y-67991180D02*
X22939285Y-68038800D01*
X22939285Y-68038800D02*
X22844047Y-68086419D01*
X22844047Y-68086419D02*
X22605952Y-68086419D01*
X22605952Y-68086419D02*
X22510714Y-68038800D01*
X22510714Y-68038800D02*
X22463095Y-67991180D01*
X21463095Y-36082419D02*
X21463095Y-35082419D01*
X21463095Y-35558609D02*
X22034523Y-35558609D01*
X22034523Y-36082419D02*
X22034523Y-35082419D01*
X23034523Y-36082419D02*
X22463095Y-36082419D01*
X22748809Y-36082419D02*
X22748809Y-35082419D01*
X22748809Y-35082419D02*
X22653571Y-35225276D01*
X22653571Y-35225276D02*
X22558333Y-35320514D01*
X22558333Y-35320514D02*
X22463095Y-35368133D01*
X21463095Y-52084419D02*
X21463095Y-51084419D01*
X21463095Y-51560609D02*
X22034523Y-51560609D01*
X22034523Y-52084419D02*
X22034523Y-51084419D01*
X22463095Y-51179657D02*
X22510714Y-51132038D01*
X22510714Y-51132038D02*
X22605952Y-51084419D01*
X22605952Y-51084419D02*
X22844047Y-51084419D01*
X22844047Y-51084419D02*
X22939285Y-51132038D01*
X22939285Y-51132038D02*
X22986904Y-51179657D01*
X22986904Y-51179657D02*
X23034523Y-51274895D01*
X23034523Y-51274895D02*
X23034523Y-51370133D01*
X23034523Y-51370133D02*
X22986904Y-51512990D01*
X22986904Y-51512990D02*
X22415476Y-52084419D01*
X22415476Y-52084419D02*
X23034523Y-52084419D01*
X481838095Y-68086419D02*
X481838095Y-67086419D01*
X481838095Y-67562609D02*
X482409523Y-67562609D01*
X482409523Y-68086419D02*
X482409523Y-67086419D01*
X483314285Y-67086419D02*
X483123809Y-67086419D01*
X483123809Y-67086419D02*
X483028571Y-67134038D01*
X483028571Y-67134038D02*
X482980952Y-67181657D01*
X482980952Y-67181657D02*
X482885714Y-67324514D01*
X482885714Y-67324514D02*
X482838095Y-67514990D01*
X482838095Y-67514990D02*
X482838095Y-67895942D01*
X482838095Y-67895942D02*
X482885714Y-67991180D01*
X482885714Y-67991180D02*
X482933333Y-68038800D01*
X482933333Y-68038800D02*
X483028571Y-68086419D01*
X483028571Y-68086419D02*
X483219047Y-68086419D01*
X483219047Y-68086419D02*
X483314285Y-68038800D01*
X483314285Y-68038800D02*
X483361904Y-67991180D01*
X483361904Y-67991180D02*
X483409523Y-67895942D01*
X483409523Y-67895942D02*
X483409523Y-67657847D01*
X483409523Y-67657847D02*
X483361904Y-67562609D01*
X483361904Y-67562609D02*
X483314285Y-67514990D01*
X483314285Y-67514990D02*
X483219047Y-67467371D01*
X483219047Y-67467371D02*
X483028571Y-67467371D01*
X483028571Y-67467371D02*
X482933333Y-67514990D01*
X482933333Y-67514990D02*
X482885714Y-67562609D01*
X482885714Y-67562609D02*
X482838095Y-67657847D01*
X481838095Y-52084419D02*
X481838095Y-51084419D01*
X481838095Y-51560609D02*
X482409523Y-51560609D01*
X482409523Y-52084419D02*
X482409523Y-51084419D01*
X483314285Y-51417752D02*
X483314285Y-52084419D01*
X483076190Y-51036800D02*
X482838095Y-51751085D01*
X482838095Y-51751085D02*
X483457142Y-51751085D01*
X481838095Y-36082419D02*
X481838095Y-35082419D01*
X481838095Y-35558609D02*
X482409523Y-35558609D01*
X482409523Y-36082419D02*
X482409523Y-35082419D01*
X482790476Y-35082419D02*
X483409523Y-35082419D01*
X483409523Y-35082419D02*
X483076190Y-35463371D01*
X483076190Y-35463371D02*
X483219047Y-35463371D01*
X483219047Y-35463371D02*
X483314285Y-35510990D01*
X483314285Y-35510990D02*
X483361904Y-35558609D01*
X483361904Y-35558609D02*
X483409523Y-35653847D01*
X483409523Y-35653847D02*
X483409523Y-35891942D01*
X483409523Y-35891942D02*
X483361904Y-35987180D01*
X483361904Y-35987180D02*
X483314285Y-36034800D01*
X483314285Y-36034800D02*
X483219047Y-36082419D01*
X483219047Y-36082419D02*
X482933333Y-36082419D01*
X482933333Y-36082419D02*
X482838095Y-36034800D01*
X482838095Y-36034800D02*
X482790476Y-35987180D01*
D11*
X266276667Y-46929318D02*
X266276667Y-47836461D01*
X266276667Y-47836461D02*
X266216190Y-48017889D01*
X266216190Y-48017889D02*
X266095238Y-48138842D01*
X266095238Y-48138842D02*
X265913809Y-48199318D01*
X265913809Y-48199318D02*
X265792857Y-48199318D01*
X266941905Y-48199318D02*
X267183809Y-48199318D01*
X267183809Y-48199318D02*
X267304762Y-48138842D01*
X267304762Y-48138842D02*
X267365238Y-48078365D01*
X267365238Y-48078365D02*
X267486190Y-47896937D01*
X267486190Y-47896937D02*
X267546667Y-47655032D01*
X267546667Y-47655032D02*
X267546667Y-47171222D01*
X267546667Y-47171222D02*
X267486190Y-47050270D01*
X267486190Y-47050270D02*
X267425714Y-46989794D01*
X267425714Y-46989794D02*
X267304762Y-46929318D01*
X267304762Y-46929318D02*
X267062857Y-46929318D01*
X267062857Y-46929318D02*
X266941905Y-46989794D01*
X266941905Y-46989794D02*
X266881428Y-47050270D01*
X266881428Y-47050270D02*
X266820952Y-47171222D01*
X266820952Y-47171222D02*
X266820952Y-47473603D01*
X266820952Y-47473603D02*
X266881428Y-47594556D01*
X266881428Y-47594556D02*
X266941905Y-47655032D01*
X266941905Y-47655032D02*
X267062857Y-47715508D01*
X267062857Y-47715508D02*
X267304762Y-47715508D01*
X267304762Y-47715508D02*
X267425714Y-47655032D01*
X267425714Y-47655032D02*
X267486190Y-47594556D01*
X267486190Y-47594556D02*
X267546667Y-47473603D01*
X341871905Y-46929318D02*
X341871905Y-47836461D01*
X341871905Y-47836461D02*
X341811428Y-48017889D01*
X341811428Y-48017889D02*
X341690476Y-48138842D01*
X341690476Y-48138842D02*
X341509047Y-48199318D01*
X341509047Y-48199318D02*
X341388095Y-48199318D01*
X343141905Y-48199318D02*
X342416190Y-48199318D01*
X342779047Y-48199318D02*
X342779047Y-46929318D01*
X342779047Y-46929318D02*
X342658095Y-47110746D01*
X342658095Y-47110746D02*
X342537143Y-47231699D01*
X342537143Y-47231699D02*
X342416190Y-47292175D01*
X343625714Y-47050270D02*
X343686190Y-46989794D01*
X343686190Y-46989794D02*
X343807143Y-46929318D01*
X343807143Y-46929318D02*
X344109524Y-46929318D01*
X344109524Y-46929318D02*
X344230476Y-46989794D01*
X344230476Y-46989794D02*
X344290952Y-47050270D01*
X344290952Y-47050270D02*
X344351429Y-47171222D01*
X344351429Y-47171222D02*
X344351429Y-47292175D01*
X344351429Y-47292175D02*
X344290952Y-47473603D01*
X344290952Y-47473603D02*
X343565238Y-48199318D01*
X343565238Y-48199318D02*
X344351429Y-48199318D01*
X367271905Y-46929318D02*
X367271905Y-47836461D01*
X367271905Y-47836461D02*
X367211428Y-48017889D01*
X367211428Y-48017889D02*
X367090476Y-48138842D01*
X367090476Y-48138842D02*
X366909047Y-48199318D01*
X366909047Y-48199318D02*
X366788095Y-48199318D01*
X368541905Y-48199318D02*
X367816190Y-48199318D01*
X368179047Y-48199318D02*
X368179047Y-46929318D01*
X368179047Y-46929318D02*
X368058095Y-47110746D01*
X368058095Y-47110746D02*
X367937143Y-47231699D01*
X367937143Y-47231699D02*
X367816190Y-47292175D01*
X368965238Y-46929318D02*
X369751429Y-46929318D01*
X369751429Y-46929318D02*
X369328095Y-47413127D01*
X369328095Y-47413127D02*
X369509524Y-47413127D01*
X369509524Y-47413127D02*
X369630476Y-47473603D01*
X369630476Y-47473603D02*
X369690952Y-47534080D01*
X369690952Y-47534080D02*
X369751429Y-47655032D01*
X369751429Y-47655032D02*
X369751429Y-47957413D01*
X369751429Y-47957413D02*
X369690952Y-48078365D01*
X369690952Y-48078365D02*
X369630476Y-48138842D01*
X369630476Y-48138842D02*
X369509524Y-48199318D01*
X369509524Y-48199318D02*
X369146667Y-48199318D01*
X369146667Y-48199318D02*
X369025714Y-48138842D01*
X369025714Y-48138842D02*
X368965238Y-48078365D01*
D12*
X40738095Y-47254819D02*
X41309523Y-47254819D01*
X41023809Y-48254819D02*
X41023809Y-47254819D01*
X41642857Y-48254819D02*
X41642857Y-47254819D01*
X41642857Y-47254819D02*
X42023809Y-47254819D01*
X42023809Y-47254819D02*
X42119047Y-47302438D01*
X42119047Y-47302438D02*
X42166666Y-47350057D01*
X42166666Y-47350057D02*
X42214285Y-47445295D01*
X42214285Y-47445295D02*
X42214285Y-47588152D01*
X42214285Y-47588152D02*
X42166666Y-47683390D01*
X42166666Y-47683390D02*
X42119047Y-47731009D01*
X42119047Y-47731009D02*
X42023809Y-47778628D01*
X42023809Y-47778628D02*
X41642857Y-47778628D01*
X42595238Y-47350057D02*
X42642857Y-47302438D01*
X42642857Y-47302438D02*
X42738095Y-47254819D01*
X42738095Y-47254819D02*
X42976190Y-47254819D01*
X42976190Y-47254819D02*
X43071428Y-47302438D01*
X43071428Y-47302438D02*
X43119047Y-47350057D01*
X43119047Y-47350057D02*
X43166666Y-47445295D01*
X43166666Y-47445295D02*
X43166666Y-47540533D01*
X43166666Y-47540533D02*
X43119047Y-47683390D01*
X43119047Y-47683390D02*
X42547619Y-48254819D01*
X42547619Y-48254819D02*
X43166666Y-48254819D01*
D11*
X215476667Y-46929318D02*
X215476667Y-47836461D01*
X215476667Y-47836461D02*
X215416190Y-48017889D01*
X215416190Y-48017889D02*
X215295238Y-48138842D01*
X215295238Y-48138842D02*
X215113809Y-48199318D01*
X215113809Y-48199318D02*
X214992857Y-48199318D01*
X215960476Y-46929318D02*
X216807143Y-46929318D01*
X216807143Y-46929318D02*
X216262857Y-48199318D01*
X316471905Y-46929318D02*
X316471905Y-47836461D01*
X316471905Y-47836461D02*
X316411428Y-48017889D01*
X316411428Y-48017889D02*
X316290476Y-48138842D01*
X316290476Y-48138842D02*
X316109047Y-48199318D01*
X316109047Y-48199318D02*
X315988095Y-48199318D01*
X317741905Y-48199318D02*
X317016190Y-48199318D01*
X317379047Y-48199318D02*
X317379047Y-46929318D01*
X317379047Y-46929318D02*
X317258095Y-47110746D01*
X317258095Y-47110746D02*
X317137143Y-47231699D01*
X317137143Y-47231699D02*
X317016190Y-47292175D01*
X318951429Y-48199318D02*
X318225714Y-48199318D01*
X318588571Y-48199318D02*
X318588571Y-46929318D01*
X318588571Y-46929318D02*
X318467619Y-47110746D01*
X318467619Y-47110746D02*
X318346667Y-47231699D01*
X318346667Y-47231699D02*
X318225714Y-47292175D01*
X139276667Y-46929318D02*
X139276667Y-47836461D01*
X139276667Y-47836461D02*
X139216190Y-48017889D01*
X139216190Y-48017889D02*
X139095238Y-48138842D01*
X139095238Y-48138842D02*
X138913809Y-48199318D01*
X138913809Y-48199318D02*
X138792857Y-48199318D01*
X140425714Y-47352651D02*
X140425714Y-48199318D01*
X140123333Y-46868842D02*
X139820952Y-47775984D01*
X139820952Y-47775984D02*
X140607143Y-47775984D01*
X190076667Y-46929318D02*
X190076667Y-47836461D01*
X190076667Y-47836461D02*
X190016190Y-48017889D01*
X190016190Y-48017889D02*
X189895238Y-48138842D01*
X189895238Y-48138842D02*
X189713809Y-48199318D01*
X189713809Y-48199318D02*
X189592857Y-48199318D01*
X191225714Y-46929318D02*
X190983809Y-46929318D01*
X190983809Y-46929318D02*
X190862857Y-46989794D01*
X190862857Y-46989794D02*
X190802381Y-47050270D01*
X190802381Y-47050270D02*
X190681428Y-47231699D01*
X190681428Y-47231699D02*
X190620952Y-47473603D01*
X190620952Y-47473603D02*
X190620952Y-47957413D01*
X190620952Y-47957413D02*
X190681428Y-48078365D01*
X190681428Y-48078365D02*
X190741905Y-48138842D01*
X190741905Y-48138842D02*
X190862857Y-48199318D01*
X190862857Y-48199318D02*
X191104762Y-48199318D01*
X191104762Y-48199318D02*
X191225714Y-48138842D01*
X191225714Y-48138842D02*
X191286190Y-48078365D01*
X191286190Y-48078365D02*
X191346667Y-47957413D01*
X191346667Y-47957413D02*
X191346667Y-47655032D01*
X191346667Y-47655032D02*
X191286190Y-47534080D01*
X191286190Y-47534080D02*
X191225714Y-47473603D01*
X191225714Y-47473603D02*
X191104762Y-47413127D01*
X191104762Y-47413127D02*
X190862857Y-47413127D01*
X190862857Y-47413127D02*
X190741905Y-47473603D01*
X190741905Y-47473603D02*
X190681428Y-47534080D01*
X190681428Y-47534080D02*
X190620952Y-47655032D01*
X392671905Y-46929318D02*
X392671905Y-47836461D01*
X392671905Y-47836461D02*
X392611428Y-48017889D01*
X392611428Y-48017889D02*
X392490476Y-48138842D01*
X392490476Y-48138842D02*
X392309047Y-48199318D01*
X392309047Y-48199318D02*
X392188095Y-48199318D01*
X393941905Y-48199318D02*
X393216190Y-48199318D01*
X393579047Y-48199318D02*
X393579047Y-46929318D01*
X393579047Y-46929318D02*
X393458095Y-47110746D01*
X393458095Y-47110746D02*
X393337143Y-47231699D01*
X393337143Y-47231699D02*
X393216190Y-47292175D01*
X395030476Y-47352651D02*
X395030476Y-48199318D01*
X394728095Y-46868842D02*
X394425714Y-47775984D01*
X394425714Y-47775984D02*
X395211905Y-47775984D01*
X240876667Y-46929318D02*
X240876667Y-47836461D01*
X240876667Y-47836461D02*
X240816190Y-48017889D01*
X240816190Y-48017889D02*
X240695238Y-48138842D01*
X240695238Y-48138842D02*
X240513809Y-48199318D01*
X240513809Y-48199318D02*
X240392857Y-48199318D01*
X241662857Y-47473603D02*
X241541905Y-47413127D01*
X241541905Y-47413127D02*
X241481428Y-47352651D01*
X241481428Y-47352651D02*
X241420952Y-47231699D01*
X241420952Y-47231699D02*
X241420952Y-47171222D01*
X241420952Y-47171222D02*
X241481428Y-47050270D01*
X241481428Y-47050270D02*
X241541905Y-46989794D01*
X241541905Y-46989794D02*
X241662857Y-46929318D01*
X241662857Y-46929318D02*
X241904762Y-46929318D01*
X241904762Y-46929318D02*
X242025714Y-46989794D01*
X242025714Y-46989794D02*
X242086190Y-47050270D01*
X242086190Y-47050270D02*
X242146667Y-47171222D01*
X242146667Y-47171222D02*
X242146667Y-47231699D01*
X242146667Y-47231699D02*
X242086190Y-47352651D01*
X242086190Y-47352651D02*
X242025714Y-47413127D01*
X242025714Y-47413127D02*
X241904762Y-47473603D01*
X241904762Y-47473603D02*
X241662857Y-47473603D01*
X241662857Y-47473603D02*
X241541905Y-47534080D01*
X241541905Y-47534080D02*
X241481428Y-47594556D01*
X241481428Y-47594556D02*
X241420952Y-47715508D01*
X241420952Y-47715508D02*
X241420952Y-47957413D01*
X241420952Y-47957413D02*
X241481428Y-48078365D01*
X241481428Y-48078365D02*
X241541905Y-48138842D01*
X241541905Y-48138842D02*
X241662857Y-48199318D01*
X241662857Y-48199318D02*
X241904762Y-48199318D01*
X241904762Y-48199318D02*
X242025714Y-48138842D01*
X242025714Y-48138842D02*
X242086190Y-48078365D01*
X242086190Y-48078365D02*
X242146667Y-47957413D01*
X242146667Y-47957413D02*
X242146667Y-47715508D01*
X242146667Y-47715508D02*
X242086190Y-47594556D01*
X242086190Y-47594556D02*
X242025714Y-47534080D01*
X242025714Y-47534080D02*
X241904762Y-47473603D01*
D12*
X40738095Y-36754819D02*
X41309523Y-36754819D01*
X41023809Y-37754819D02*
X41023809Y-36754819D01*
X41642857Y-37754819D02*
X41642857Y-36754819D01*
X41642857Y-36754819D02*
X42023809Y-36754819D01*
X42023809Y-36754819D02*
X42119047Y-36802438D01*
X42119047Y-36802438D02*
X42166666Y-36850057D01*
X42166666Y-36850057D02*
X42214285Y-36945295D01*
X42214285Y-36945295D02*
X42214285Y-37088152D01*
X42214285Y-37088152D02*
X42166666Y-37183390D01*
X42166666Y-37183390D02*
X42119047Y-37231009D01*
X42119047Y-37231009D02*
X42023809Y-37278628D01*
X42023809Y-37278628D02*
X41642857Y-37278628D01*
X43166666Y-37754819D02*
X42595238Y-37754819D01*
X42880952Y-37754819D02*
X42880952Y-36754819D01*
X42880952Y-36754819D02*
X42785714Y-36897676D01*
X42785714Y-36897676D02*
X42690476Y-36992914D01*
X42690476Y-36992914D02*
X42595238Y-37040533D01*
D11*
X113876667Y-46929318D02*
X113876667Y-47836461D01*
X113876667Y-47836461D02*
X113816190Y-48017889D01*
X113816190Y-48017889D02*
X113695238Y-48138842D01*
X113695238Y-48138842D02*
X113513809Y-48199318D01*
X113513809Y-48199318D02*
X113392857Y-48199318D01*
X114360476Y-46929318D02*
X115146667Y-46929318D01*
X115146667Y-46929318D02*
X114723333Y-47413127D01*
X114723333Y-47413127D02*
X114904762Y-47413127D01*
X114904762Y-47413127D02*
X115025714Y-47473603D01*
X115025714Y-47473603D02*
X115086190Y-47534080D01*
X115086190Y-47534080D02*
X115146667Y-47655032D01*
X115146667Y-47655032D02*
X115146667Y-47957413D01*
X115146667Y-47957413D02*
X115086190Y-48078365D01*
X115086190Y-48078365D02*
X115025714Y-48138842D01*
X115025714Y-48138842D02*
X114904762Y-48199318D01*
X114904762Y-48199318D02*
X114541905Y-48199318D01*
X114541905Y-48199318D02*
X114420952Y-48138842D01*
X114420952Y-48138842D02*
X114360476Y-48078365D01*
X418071905Y-46929318D02*
X418071905Y-47836461D01*
X418071905Y-47836461D02*
X418011428Y-48017889D01*
X418011428Y-48017889D02*
X417890476Y-48138842D01*
X417890476Y-48138842D02*
X417709047Y-48199318D01*
X417709047Y-48199318D02*
X417588095Y-48199318D01*
X419341905Y-48199318D02*
X418616190Y-48199318D01*
X418979047Y-48199318D02*
X418979047Y-46929318D01*
X418979047Y-46929318D02*
X418858095Y-47110746D01*
X418858095Y-47110746D02*
X418737143Y-47231699D01*
X418737143Y-47231699D02*
X418616190Y-47292175D01*
X420490952Y-46929318D02*
X419886190Y-46929318D01*
X419886190Y-46929318D02*
X419825714Y-47534080D01*
X419825714Y-47534080D02*
X419886190Y-47473603D01*
X419886190Y-47473603D02*
X420007143Y-47413127D01*
X420007143Y-47413127D02*
X420309524Y-47413127D01*
X420309524Y-47413127D02*
X420430476Y-47473603D01*
X420430476Y-47473603D02*
X420490952Y-47534080D01*
X420490952Y-47534080D02*
X420551429Y-47655032D01*
X420551429Y-47655032D02*
X420551429Y-47957413D01*
X420551429Y-47957413D02*
X420490952Y-48078365D01*
X420490952Y-48078365D02*
X420430476Y-48138842D01*
X420430476Y-48138842D02*
X420309524Y-48199318D01*
X420309524Y-48199318D02*
X420007143Y-48199318D01*
X420007143Y-48199318D02*
X419886190Y-48138842D01*
X419886190Y-48138842D02*
X419825714Y-48078365D01*
X63076667Y-46929318D02*
X63076667Y-47836461D01*
X63076667Y-47836461D02*
X63016190Y-48017889D01*
X63016190Y-48017889D02*
X62895238Y-48138842D01*
X62895238Y-48138842D02*
X62713809Y-48199318D01*
X62713809Y-48199318D02*
X62592857Y-48199318D01*
X64346667Y-48199318D02*
X63620952Y-48199318D01*
X63983809Y-48199318D02*
X63983809Y-46929318D01*
X63983809Y-46929318D02*
X63862857Y-47110746D01*
X63862857Y-47110746D02*
X63741905Y-47231699D01*
X63741905Y-47231699D02*
X63620952Y-47292175D01*
X443471905Y-46929318D02*
X443471905Y-47836461D01*
X443471905Y-47836461D02*
X443411428Y-48017889D01*
X443411428Y-48017889D02*
X443290476Y-48138842D01*
X443290476Y-48138842D02*
X443109047Y-48199318D01*
X443109047Y-48199318D02*
X442988095Y-48199318D01*
X444741905Y-48199318D02*
X444016190Y-48199318D01*
X444379047Y-48199318D02*
X444379047Y-46929318D01*
X444379047Y-46929318D02*
X444258095Y-47110746D01*
X444258095Y-47110746D02*
X444137143Y-47231699D01*
X444137143Y-47231699D02*
X444016190Y-47292175D01*
X445830476Y-46929318D02*
X445588571Y-46929318D01*
X445588571Y-46929318D02*
X445467619Y-46989794D01*
X445467619Y-46989794D02*
X445407143Y-47050270D01*
X445407143Y-47050270D02*
X445286190Y-47231699D01*
X445286190Y-47231699D02*
X445225714Y-47473603D01*
X445225714Y-47473603D02*
X445225714Y-47957413D01*
X445225714Y-47957413D02*
X445286190Y-48078365D01*
X445286190Y-48078365D02*
X445346667Y-48138842D01*
X445346667Y-48138842D02*
X445467619Y-48199318D01*
X445467619Y-48199318D02*
X445709524Y-48199318D01*
X445709524Y-48199318D02*
X445830476Y-48138842D01*
X445830476Y-48138842D02*
X445890952Y-48078365D01*
X445890952Y-48078365D02*
X445951429Y-47957413D01*
X445951429Y-47957413D02*
X445951429Y-47655032D01*
X445951429Y-47655032D02*
X445890952Y-47534080D01*
X445890952Y-47534080D02*
X445830476Y-47473603D01*
X445830476Y-47473603D02*
X445709524Y-47413127D01*
X445709524Y-47413127D02*
X445467619Y-47413127D01*
X445467619Y-47413127D02*
X445346667Y-47473603D01*
X445346667Y-47473603D02*
X445286190Y-47534080D01*
X445286190Y-47534080D02*
X445225714Y-47655032D01*
X164676667Y-46929318D02*
X164676667Y-47836461D01*
X164676667Y-47836461D02*
X164616190Y-48017889D01*
X164616190Y-48017889D02*
X164495238Y-48138842D01*
X164495238Y-48138842D02*
X164313809Y-48199318D01*
X164313809Y-48199318D02*
X164192857Y-48199318D01*
X165886190Y-46929318D02*
X165281428Y-46929318D01*
X165281428Y-46929318D02*
X165220952Y-47534080D01*
X165220952Y-47534080D02*
X165281428Y-47473603D01*
X165281428Y-47473603D02*
X165402381Y-47413127D01*
X165402381Y-47413127D02*
X165704762Y-47413127D01*
X165704762Y-47413127D02*
X165825714Y-47473603D01*
X165825714Y-47473603D02*
X165886190Y-47534080D01*
X165886190Y-47534080D02*
X165946667Y-47655032D01*
X165946667Y-47655032D02*
X165946667Y-47957413D01*
X165946667Y-47957413D02*
X165886190Y-48078365D01*
X165886190Y-48078365D02*
X165825714Y-48138842D01*
X165825714Y-48138842D02*
X165704762Y-48199318D01*
X165704762Y-48199318D02*
X165402381Y-48199318D01*
X165402381Y-48199318D02*
X165281428Y-48138842D01*
X165281428Y-48138842D02*
X165220952Y-48078365D01*
X88476667Y-46929318D02*
X88476667Y-47836461D01*
X88476667Y-47836461D02*
X88416190Y-48017889D01*
X88416190Y-48017889D02*
X88295238Y-48138842D01*
X88295238Y-48138842D02*
X88113809Y-48199318D01*
X88113809Y-48199318D02*
X87992857Y-48199318D01*
X89020952Y-47050270D02*
X89081428Y-46989794D01*
X89081428Y-46989794D02*
X89202381Y-46929318D01*
X89202381Y-46929318D02*
X89504762Y-46929318D01*
X89504762Y-46929318D02*
X89625714Y-46989794D01*
X89625714Y-46989794D02*
X89686190Y-47050270D01*
X89686190Y-47050270D02*
X89746667Y-47171222D01*
X89746667Y-47171222D02*
X89746667Y-47292175D01*
X89746667Y-47292175D02*
X89686190Y-47473603D01*
X89686190Y-47473603D02*
X88960476Y-48199318D01*
X88960476Y-48199318D02*
X89746667Y-48199318D01*
X291071905Y-46929318D02*
X291071905Y-47836461D01*
X291071905Y-47836461D02*
X291011428Y-48017889D01*
X291011428Y-48017889D02*
X290890476Y-48138842D01*
X290890476Y-48138842D02*
X290709047Y-48199318D01*
X290709047Y-48199318D02*
X290588095Y-48199318D01*
X292341905Y-48199318D02*
X291616190Y-48199318D01*
X291979047Y-48199318D02*
X291979047Y-46929318D01*
X291979047Y-46929318D02*
X291858095Y-47110746D01*
X291858095Y-47110746D02*
X291737143Y-47231699D01*
X291737143Y-47231699D02*
X291616190Y-47292175D01*
X293128095Y-46929318D02*
X293249048Y-46929318D01*
X293249048Y-46929318D02*
X293370000Y-46989794D01*
X293370000Y-46989794D02*
X293430476Y-47050270D01*
X293430476Y-47050270D02*
X293490952Y-47171222D01*
X293490952Y-47171222D02*
X293551429Y-47413127D01*
X293551429Y-47413127D02*
X293551429Y-47715508D01*
X293551429Y-47715508D02*
X293490952Y-47957413D01*
X293490952Y-47957413D02*
X293430476Y-48078365D01*
X293430476Y-48078365D02*
X293370000Y-48138842D01*
X293370000Y-48138842D02*
X293249048Y-48199318D01*
X293249048Y-48199318D02*
X293128095Y-48199318D01*
X293128095Y-48199318D02*
X293007143Y-48138842D01*
X293007143Y-48138842D02*
X292946667Y-48078365D01*
X292946667Y-48078365D02*
X292886190Y-47957413D01*
X292886190Y-47957413D02*
X292825714Y-47715508D01*
X292825714Y-47715508D02*
X292825714Y-47413127D01*
X292825714Y-47413127D02*
X292886190Y-47171222D01*
X292886190Y-47171222D02*
X292946667Y-47050270D01*
X292946667Y-47050270D02*
X293007143Y-46989794D01*
X293007143Y-46989794D02*
X293128095Y-46929318D01*
D10*
%TO.C,J9*%
X260600000Y-47625000D02*
X260600000Y-47625000D01*
X260700000Y-47625000D02*
X260700000Y-47625000D01*
X260600000Y-47625000D02*
G75*
G02*
X260700000Y-47625000I50000J0D01*
G01*
X260700000Y-47625000D02*
G75*
G02*
X260600000Y-47625000I-50000J0D01*
G01*
%TO.C,J12*%
X336800000Y-47625000D02*
X336800000Y-47625000D01*
X336900000Y-47625000D02*
X336900000Y-47625000D01*
X336800000Y-47625000D02*
G75*
G02*
X336900000Y-47625000I50000J0D01*
G01*
X336900000Y-47625000D02*
G75*
G02*
X336800000Y-47625000I-50000J0D01*
G01*
%TO.C,J13*%
X362200000Y-47625000D02*
X362200000Y-47625000D01*
X362300000Y-47625000D02*
X362300000Y-47625000D01*
X362200000Y-47625000D02*
G75*
G02*
X362300000Y-47625000I50000J0D01*
G01*
X362300000Y-47625000D02*
G75*
G02*
X362200000Y-47625000I-50000J0D01*
G01*
%TO.C,J7*%
X209800000Y-47625000D02*
X209800000Y-47625000D01*
X209900000Y-47625000D02*
X209900000Y-47625000D01*
X209800000Y-47625000D02*
G75*
G02*
X209900000Y-47625000I50000J0D01*
G01*
X209900000Y-47625000D02*
G75*
G02*
X209800000Y-47625000I-50000J0D01*
G01*
%TO.C,J11*%
X311400000Y-47625000D02*
X311400000Y-47625000D01*
X311500000Y-47625000D02*
X311500000Y-47625000D01*
X311400000Y-47625000D02*
G75*
G02*
X311500000Y-47625000I50000J0D01*
G01*
X311500000Y-47625000D02*
G75*
G02*
X311400000Y-47625000I-50000J0D01*
G01*
%TO.C,J4*%
X133600000Y-47625000D02*
X133600000Y-47625000D01*
X133700000Y-47625000D02*
X133700000Y-47625000D01*
X133600000Y-47625000D02*
G75*
G02*
X133700000Y-47625000I50000J0D01*
G01*
X133700000Y-47625000D02*
G75*
G02*
X133600000Y-47625000I-50000J0D01*
G01*
%TO.C,J6*%
X184400000Y-47625000D02*
X184400000Y-47625000D01*
X184500000Y-47625000D02*
X184500000Y-47625000D01*
X184400000Y-47625000D02*
G75*
G02*
X184500000Y-47625000I50000J0D01*
G01*
X184500000Y-47625000D02*
G75*
G02*
X184400000Y-47625000I-50000J0D01*
G01*
%TO.C,J14*%
X387600000Y-47625000D02*
X387600000Y-47625000D01*
X387700000Y-47625000D02*
X387700000Y-47625000D01*
X387600000Y-47625000D02*
G75*
G02*
X387700000Y-47625000I50000J0D01*
G01*
X387700000Y-47625000D02*
G75*
G02*
X387600000Y-47625000I-50000J0D01*
G01*
%TO.C,J8*%
X235200000Y-47625000D02*
X235200000Y-47625000D01*
X235300000Y-47625000D02*
X235300000Y-47625000D01*
X235200000Y-47625000D02*
G75*
G02*
X235300000Y-47625000I50000J0D01*
G01*
X235300000Y-47625000D02*
G75*
G02*
X235200000Y-47625000I-50000J0D01*
G01*
%TO.C,J3*%
X108200000Y-47625000D02*
X108200000Y-47625000D01*
X108300000Y-47625000D02*
X108300000Y-47625000D01*
X108200000Y-47625000D02*
G75*
G02*
X108300000Y-47625000I50000J0D01*
G01*
X108300000Y-47625000D02*
G75*
G02*
X108200000Y-47625000I-50000J0D01*
G01*
%TO.C,J15*%
X413000000Y-47625000D02*
X413000000Y-47625000D01*
X413100000Y-47625000D02*
X413100000Y-47625000D01*
X413000000Y-47625000D02*
G75*
G02*
X413100000Y-47625000I50000J0D01*
G01*
X413100000Y-47625000D02*
G75*
G02*
X413000000Y-47625000I-50000J0D01*
G01*
%TO.C,J1*%
X57400000Y-47625000D02*
X57400000Y-47625000D01*
X57500000Y-47625000D02*
X57500000Y-47625000D01*
X57400000Y-47625000D02*
G75*
G02*
X57500000Y-47625000I50000J0D01*
G01*
X57500000Y-47625000D02*
G75*
G02*
X57400000Y-47625000I-50000J0D01*
G01*
%TO.C,J16*%
X438400000Y-47625000D02*
X438400000Y-47625000D01*
X438500000Y-47625000D02*
X438500000Y-47625000D01*
X438400000Y-47625000D02*
G75*
G02*
X438500000Y-47625000I50000J0D01*
G01*
X438500000Y-47625000D02*
G75*
G02*
X438400000Y-47625000I-50000J0D01*
G01*
%TO.C,J5*%
X159000000Y-47625000D02*
X159000000Y-47625000D01*
X159100000Y-47625000D02*
X159100000Y-47625000D01*
X159000000Y-47625000D02*
G75*
G02*
X159100000Y-47625000I50000J0D01*
G01*
X159100000Y-47625000D02*
G75*
G02*
X159000000Y-47625000I-50000J0D01*
G01*
%TO.C,J2*%
X82800000Y-47625000D02*
X82800000Y-47625000D01*
X82900000Y-47625000D02*
X82900000Y-47625000D01*
X82800000Y-47625000D02*
G75*
G02*
X82900000Y-47625000I50000J0D01*
G01*
X82900000Y-47625000D02*
G75*
G02*
X82800000Y-47625000I-50000J0D01*
G01*
%TO.C,J10*%
X286000000Y-47625000D02*
X286000000Y-47625000D01*
X286100000Y-47625000D02*
X286100000Y-47625000D01*
X286000000Y-47625000D02*
G75*
G02*
X286100000Y-47625000I50000J0D01*
G01*
X286100000Y-47625000D02*
G75*
G02*
X286000000Y-47625000I-50000J0D01*
G01*
%TD*%
M02*
