%TF.GenerationSoftware,KiCad,Pcbnew,9.0.2*%
%TF.CreationDate,2025-06-17T08:49:50-07:00*%
%TF.ProjectId,BNC-breakout,424e432d-6272-4656-916b-6f75742e6b69,rev?*%
%TF.SameCoordinates,Original*%
%TF.FileFunction,Soldermask,Top*%
%TF.FilePolarity,Negative*%
%FSLAX46Y46*%
G04 Gerber Fmt 4.6, Leading zero omitted, Abs format (unit mm)*
G04 Created by KiCad (PCBNEW 9.0.2) date 2025-06-17 08:49:50*
%MOMM*%
%LPD*%
G01*
G04 APERTURE LIST*
G04 Aperture macros list*
%AMRoundRect*
0 Rectangle with rounded corners*
0 $1 Rounding radius*
0 $2 $3 $4 $5 $6 $7 $8 $9 X,Y pos of 4 corners*
0 Add a 4 corners polygon primitive as box body*
4,1,4,$2,$3,$4,$5,$6,$7,$8,$9,$2,$3,0*
0 Add four circle primitives for the rounded corners*
1,1,$1+$1,$2,$3*
1,1,$1+$1,$4,$5*
1,1,$1+$1,$6,$7*
1,1,$1+$1,$8,$9*
0 Add four rect primitives between the rounded corners*
20,1,$1+$1,$2,$3,$4,$5,0*
20,1,$1+$1,$4,$5,$6,$7,0*
20,1,$1+$1,$6,$7,$8,$9,0*
20,1,$1+$1,$8,$9,$2,$3,0*%
G04 Aperture macros list end*
%ADD10R,2.540000X1.270000*%
%ADD11R,1.950000X1.950000*%
%ADD12C,3.600000*%
%ADD13RoundRect,0.250002X-2.749998X-2.749998X2.749998X-2.749998X2.749998X2.749998X-2.749998X2.749998X0*%
G04 APERTURE END LIST*
D10*
%TO.C,H5*%
X22225000Y-63129000D03*
%TD*%
%TO.C,H1*%
X22225000Y-31125000D03*
%TD*%
%TO.C,H2*%
X22225000Y-47127000D03*
%TD*%
%TO.C,H6*%
X482600000Y-63129000D03*
%TD*%
%TO.C,H4*%
X482600000Y-47127000D03*
%TD*%
%TO.C,H3*%
X482600000Y-31125000D03*
%TD*%
D11*
%TO.C,J9*%
X266700000Y-47625000D03*
D12*
X263260000Y-51065000D03*
X270140000Y-51065000D03*
X270140000Y-44185000D03*
X263260000Y-44185000D03*
%TD*%
D11*
%TO.C,J12*%
X342900000Y-47625000D03*
D12*
X339460000Y-51065000D03*
X346340000Y-51065000D03*
X346340000Y-44185000D03*
X339460000Y-44185000D03*
%TD*%
D11*
%TO.C,J13*%
X368300000Y-47625000D03*
D12*
X364860000Y-51065000D03*
X371740000Y-51065000D03*
X371740000Y-44185000D03*
X364860000Y-44185000D03*
%TD*%
D13*
%TO.C,TP2*%
X42000000Y-52000000D03*
%TD*%
D11*
%TO.C,J7*%
X215900000Y-47625000D03*
D12*
X212460000Y-51065000D03*
X219340000Y-51065000D03*
X219340000Y-44185000D03*
X212460000Y-44185000D03*
%TD*%
D11*
%TO.C,J11*%
X317500000Y-47625000D03*
D12*
X314060000Y-51065000D03*
X320940000Y-51065000D03*
X320940000Y-44185000D03*
X314060000Y-44185000D03*
%TD*%
D11*
%TO.C,J4*%
X139700000Y-47625000D03*
D12*
X136260000Y-51065000D03*
X143140000Y-51065000D03*
X143140000Y-44185000D03*
X136260000Y-44185000D03*
%TD*%
D11*
%TO.C,J6*%
X190500000Y-47625000D03*
D12*
X187060000Y-51065000D03*
X193940000Y-51065000D03*
X193940000Y-44185000D03*
X187060000Y-44185000D03*
%TD*%
D11*
%TO.C,J14*%
X393700000Y-47625000D03*
D12*
X390260000Y-51065000D03*
X397140000Y-51065000D03*
X397140000Y-44185000D03*
X390260000Y-44185000D03*
%TD*%
D11*
%TO.C,J8*%
X241300000Y-47625000D03*
D12*
X237860000Y-51065000D03*
X244740000Y-51065000D03*
X244740000Y-44185000D03*
X237860000Y-44185000D03*
%TD*%
D13*
%TO.C,TP1*%
X42000000Y-41500000D03*
%TD*%
D11*
%TO.C,J3*%
X114300000Y-47625000D03*
D12*
X110860000Y-51065000D03*
X117740000Y-51065000D03*
X117740000Y-44185000D03*
X110860000Y-44185000D03*
%TD*%
D11*
%TO.C,J15*%
X419100000Y-47625000D03*
D12*
X415660000Y-51065000D03*
X422540000Y-51065000D03*
X422540000Y-44185000D03*
X415660000Y-44185000D03*
%TD*%
D11*
%TO.C,J1*%
X63500000Y-47625000D03*
D12*
X60060000Y-51065000D03*
X66940000Y-51065000D03*
X66940000Y-44185000D03*
X60060000Y-44185000D03*
%TD*%
D11*
%TO.C,J16*%
X444500000Y-47625000D03*
D12*
X441060000Y-51065000D03*
X447940000Y-51065000D03*
X447940000Y-44185000D03*
X441060000Y-44185000D03*
%TD*%
D11*
%TO.C,J5*%
X165100000Y-47625000D03*
D12*
X161660000Y-51065000D03*
X168540000Y-51065000D03*
X168540000Y-44185000D03*
X161660000Y-44185000D03*
%TD*%
D11*
%TO.C,J2*%
X88900000Y-47625000D03*
D12*
X85460000Y-51065000D03*
X92340000Y-51065000D03*
X92340000Y-44185000D03*
X85460000Y-44185000D03*
%TD*%
D11*
%TO.C,J10*%
X292100000Y-47625000D03*
D12*
X288660000Y-51065000D03*
X295540000Y-51065000D03*
X295540000Y-44185000D03*
X288660000Y-44185000D03*
%TD*%
M02*
