M48
; DRILL file {KiCad 9.0.2} date 2025-06-17T08:49:54-0700
; FORMAT={-:-/ absolute / metric / decimal}
; #@! TF.CreationDate,2025-06-17T08:49:54-07:00
; #@! TF.GenerationSoftware,Kicad,Pcbnew,9.0.2
; #@! TF.FileFunction,Plated,1,2,PTH
FMAT,2
METRIC
; #@! TA.AperFunction,Plated,PTH,ComponentDrill
T1C1.300
; #@! TA.AperFunction,Plated,PTH,ComponentDrill
T2C2.400
; #@! TA.AperFunction,Plated,PTH,ComponentDrill
T3C3.750
%
G90
G05
T1
X63.5Y-47.625
X88.9Y-47.625
X114.3Y-47.625
X139.7Y-47.625
X165.1Y-47.625
X190.5Y-47.625
X215.9Y-47.625
X241.3Y-47.625
X266.7Y-47.625
X292.1Y-47.625
X317.5Y-47.625
X342.9Y-47.625
X368.3Y-47.625
X393.7Y-47.625
X419.1Y-47.625
X444.5Y-47.625
T2
X60.06Y-44.185
X60.06Y-51.065
X66.94Y-44.185
X66.94Y-51.065
X85.46Y-44.185
X85.46Y-51.065
X92.34Y-44.185
X92.34Y-51.065
X110.86Y-44.185
X110.86Y-51.065
X117.74Y-44.185
X117.74Y-51.065
X136.26Y-44.185
X136.26Y-51.065
X143.14Y-44.185
X143.14Y-51.065
X161.66Y-44.185
X161.66Y-51.065
X168.54Y-44.185
X168.54Y-51.065
X187.06Y-44.185
X187.06Y-51.065
X193.94Y-44.185
X193.94Y-51.065
X212.46Y-44.185
X212.46Y-51.065
X219.34Y-44.185
X219.34Y-51.065
X237.86Y-44.185
X237.86Y-51.065
X244.74Y-44.185
X244.74Y-51.065
X263.26Y-44.185
X263.26Y-51.065
X270.14Y-44.185
X270.14Y-51.065
X288.66Y-44.185
X288.66Y-51.065
X295.54Y-44.185
X295.54Y-51.065
X314.06Y-44.185
X314.06Y-51.065
X320.94Y-44.185
X320.94Y-51.065
X339.46Y-44.185
X339.46Y-51.065
X346.34Y-44.185
X346.34Y-51.065
X364.86Y-44.185
X364.86Y-51.065
X371.74Y-44.185
X371.74Y-51.065
X390.26Y-44.185
X390.26Y-51.065
X397.14Y-44.185
X397.14Y-51.065
X415.66Y-44.185
X415.66Y-51.065
X422.54Y-44.185
X422.54Y-51.065
X441.06Y-44.185
X441.06Y-51.065
X447.94Y-44.185
X447.94Y-51.065
T3
X42.0Y-41.5
X42.0Y-52.0
M30
